SplineFontDB: 3.0
FontName: Keraleeyam
FullName: Keraleeyam
FamilyName: Keraleeyam
Weight: Bold
Copyright: Digitized data copyright (c) 2014 by Hussain KH, Rajeesh K Nambiar, Kavya Manohar, Swathanthra Malayalam Computing.
Version: 1.0.0-beta.20141217
ItalicAngle: 0
UnderlinePosition: -723
UnderlineWidth: 20
Ascent: 1304
Descent: 744
InvalidEm: 0
sfntRevision: 0x00050000
LayerCount: 2
Layer: 0 1 "Back" 1
Layer: 1 1 "Fore" 0
XUID: [1021 73 915813246 2168327]
FSType: 0
OS2Version: 3
OS2_WeightWidthSlopeOnly: 0
OS2_UseTypoMetrics: 1
CreationTime: 1418347145
ModificationTime: 1419959429
PfmFamily: 33
TTFWeight: 700
TTFWidth: 5
LineGap: 0
VLineGap: 0
Panose: 0 0 8 0 0 0 0 0 0 0
OS2TypoAscent: 1304
OS2TypoAOffset: 0
OS2TypoDescent: -744
OS2TypoDOffset: 0
OS2TypoLinegap: 0
OS2WinAscent: 1304
OS2WinAOffset: 0
OS2WinDescent: 744
OS2WinDOffset: 0
HheadAscent: 1304
HheadAOffset: 0
HheadDescent: -744
HheadDOffset: 0
OS2SubXSize: 700
OS2SubYSize: 650
OS2SubXOff: 0
OS2SubYOff: 140
OS2SupXSize: 700
OS2SupYSize: 650
OS2SupXOff: 0
OS2SupYOff: 477
OS2StrikeYSize: 50
OS2StrikeYPos: 250
OS2CapHeight: 0
OS2XHeight: 0
OS2Vendor: 'PfEd'
OS2CodePages: 00000001.00000000
OS2UnicodeRanges: 80800001.00002002.00000000.00000000
Lookup: 2 0 0 "'ccmp' Glyph Composition/Decomposition lookup 1" { "'ccmp' Glyph Composition/Decomposition lookup 1-1"  } ['ccmp' ('mlm2' <'dflt' > 'mlym' <'dflt' > ) ]
Lookup: 6 0 0 "'calt' Contextual Alternates lookup 1" { "'calt' Contextual Alternates lookup 1-1"  } ['calt' ('mlm2' <'dflt' > 'mlym' <'dflt' > ) ]
Lookup: 4 0 0 "akhnAkhandinMalaylamlookup1" { "akhnAkhandinMalaylamlookup1 subtable"  } ['akhn' ('mlym' <'dflt' > ) ]
Lookup: 4 0 0 "akhnAkhandinMalaylam2lookup1" { "akhnAkhandinMalaylam2lookup1 subtable"  } ['akhn' ('mlm2' <'dflt' > ) ]
Lookup: 4 0 0 "prefPreBaseFormsinMalaylam2look" { "prefPreBaseFormsinMalaylam2look subtable"  } ['pref' ('mlm2' <'dflt' > ) ]

StartChar: .notdef
Encoding: 187 -1 0
Width: 602
GlyphClass: 2
Flags: W
LayerCount: 2
Back
Fore
SplineSet
92 884 m 1,0,-1
 92 46 l 1,1,-1
 466 46 l 1,2,-1
 466 884 l 1,3,-1
 92 884 l 1,0,-1
512 0 m 1,4,-1
 46 0 l 1,5,-1
 46 932 l 1,6,-1
 512 932 l 1,7,-1
 512 0 l 1,4,-1
EndSplineSet
EndChar

StartChar: exclam
Encoding: 4 33 4
Width: 336
GlyphClass: 2
Flags: W
LayerCount: 2
Back
Fore
SplineSet
303 885 m 2,0,1
 303 563.52 303 563.52 219 372 c 1,2,-1
 164 372 l 1,3,4
 85 562.916666667 85 562.916666667 85 885 c 2,5,-1
 85 945 l 2,6,7
 85 1045.66666667 85 1045.66666667 93 1115 c 1,8,-1
 294 1115 l 1,9,10
 303 1040 303 1040 303 976 c 2,11,-1
 303 885 l 2,0,1
193 -21 m 256,12,13
 141.428571429 -21 141.428571429 -21 114.714285714 6.5 c 0,14,15
 68 54.5882352941 68 54.5882352941 68 109 c 256,16,17
 68 162.411764706 68 162.411764706 95 190.205882353 c 0,18,19
 142.4 239 142.4 239 193 239 c 256,20,21
 275.170212766 239 275.170212766 239 309 159.5 c 0,22,23
 319 136 319 136 319 109 c 256,24,25
 319 54.5882352941 319 54.5882352941 292 26.7941176471 c 0,26,27
 245.571428571 -21 245.571428571 -21 193 -21 c 256,12,13
EndSplineSet
EndChar

StartChar: quotedbl
Encoding: 5 34 5
Width: 633
GlyphClass: 2
Flags: W
LayerCount: 2
Back
Fore
SplineSet
523.611328125 710.130859375 m 2,0,-1
 481.611328125 710.130859375 l 2,1,2
 465.282226562 710.130859375 465.282226562 710.130859375 462.419921875 725.141601562 c 0,3,4
 395.999023438 1073.34765625 395.999023438 1073.34765625 396 1147.74316406 c 0,5,6
 395.999023438 1185.92773438 395.999023438 1185.92773438 420.116210938 1219.44726562 c 128,-1,7
 444.234375 1252.96582031 444.234375 1252.96582031 483.12890625 1267.15722656 c 0,8,9
 506.969726562 1275.86914062 506.969726562 1275.86914062 528.125976562 1275.86914062 c 0,10,11
 599.291015625 1275.86914062 599.291015625 1275.86914062 626.184570312 1214.74902344 c 0,12,13
 633.737304688 1194.60644531 633.737304688 1194.60644531 633.737304688 1174.25683594 c 0,14,15
 633.737304688 1077.37207031 633.737304688 1077.37207031 581.176757812 830.510742188 c 1,16,-1
 567.293945312 749.194335938 l 2,17,18
 566.524414062 744.690429688 566.524414062 744.690429688 564.588867188 739.618164062 c 128,-1,19
 562.65234375 734.544921875 562.65234375 734.544921875 558.165039062 727.099609375 c 128,-1,20
 553.677734375 719.653320312 553.677734375 719.653320312 544.665039062 714.892578125 c 128,-1,21
 535.651367188 710.130859375 535.651367188 710.130859375 523.611328125 710.130859375 c 2,0,-1
177.611328125 710.130859375 m 2,22,-1
 135.611328125 710.130859375 l 2,23,24
 119.284179688 710.130859375 119.284179688 710.130859375 116.419921875 725.142578125 c 0,25,26
 49.9990234375 1073.34765625 49.9990234375 1073.34765625 50 1147.7421875 c 0,27,28
 49.9990234375 1172.61425781 49.9990234375 1172.61425781 59.8662109375 1195.95214844 c 128,-1,29
 69.732421875 1219.29003906 69.732421875 1219.29003906 89.73828125 1238.51757812 c 128,-1,30
 109.745117188 1257.74511719 109.745117188 1257.74511719 136.998046875 1267.83886719 c 0,31,32
 161.087890625 1275.86914062 161.087890625 1275.86914062 182.125 1275.86914062 c 0,33,34
 253.29296875 1275.86914062 253.29296875 1275.86914062 280.184570312 1214.74902344 c 0,35,36
 287.737304688 1194.609375 287.737304688 1194.609375 287.736328125 1174.25683594 c 0,37,38
 287.736328125 1077.36914062 287.736328125 1077.36914062 235.176757812 830.510742188 c 1,39,-1
 221.293945312 749.193359375 l 2,40,41
 220.13671875 742.416992188 220.13671875 742.416992188 217.29296875 735.208984375 c 128,-1,42
 214.450195312 728.000976562 214.450195312 728.000976562 203.846679688 719.065429688 c 128,-1,43
 193.2421875 710.130859375 193.2421875 710.130859375 177.611328125 710.130859375 c 2,22,-1
EndSplineSet
EndChar

StartChar: numbersign
Encoding: 6 35 6
Width: 923
GlyphClass: 2
Flags: W
LayerCount: 2
Back
Fore
SplineSet
698 251 m 1,0,-1
 615 -115 l 1,1,-1
 441 -115 l 1,2,-1
 522 251 l 1,3,-1
 352 251 l 1,4,-1
 268 -115 l 1,5,-1
 92 -115 l 1,6,-1
 174 251 l 1,7,-1
 63 251 l 1,8,-1
 63 408 l 1,9,-1
 209 408 l 1,10,-1
 250 594 l 1,11,-1
 63 594 l 1,12,-1
 63 749 l 1,13,-1
 287 749 l 1,14,-1
 368 1116 l 1,15,-1
 544 1116 l 1,16,-1
 463 749 l 1,17,-1
 632 749 l 1,18,-1
 718 1116 l 1,19,-1
 894 1116 l 1,20,-1
 809 749 l 1,21,-1
 919 749 l 1,22,-1
 919 594 l 1,23,-1
 775 594 l 1,24,-1
 733 408 l 1,25,-1
 919 408 l 1,26,-1
 919 251 l 1,27,-1
 698 251 l 1,0,-1
428 594 m 1,28,-1
 386 408 l 1,29,-1
 556 408 l 1,30,-1
 599 594 l 1,31,-1
 428 594 l 1,28,-1
EndSplineSet
EndChar

StartChar: dollar
Encoding: 7 36 7
Width: 801
GlyphClass: 2
Flags: W
LayerCount: 2
Back
Fore
SplineSet
781.5 357.5 m 128,-1,1
 809 310 809 310 809 248 c 128,-1,2
 809 186 809 186 783 142.5 c 128,-1,3
 757 99 757 99 714.5 66.5 c 0,4,5
 630.752773376 2.45800316957 630.752773376 2.45800316957 502 -15 c 1,6,-1
 502 -124 l 1,7,-1
 343 -124 l 1,8,-1
 343 -19 l 1,9,10
 203.567164179 -7.38059701493 203.567164179 -7.38059701493 93 79 c 1,11,-1
 96 269 l 1,12,13
 138 194 138 194 198.5 160 c 128,-1,14
 259 126 259 126 343 118 c 1,15,-1
 343 430 l 1,16,17
 216.986987952 476.946024096 216.986987952 476.946024096 168.493493976 520.973012048 c 0,18,19
 74 606.763157895 74 606.763157895 74 729 c 0,20,21
 74 834.929577465 74 834.929577465 149.5 920 c 0,22,23
 223.840744571 1003.76421923 223.840744571 1003.76421923 343 1028 c 1,24,-1
 343 1113 l 1,25,-1
 502 1113 l 1,26,-1
 502 1034 l 1,27,28
 663.766536965 1025.70428016 663.766536965 1025.70428016 772 931 c 1,29,-1
 767 684 l 1,30,31
 724.392654524 869.249328158 724.392654524 869.249328158 502 893 c 1,32,-1
 502 536 l 1,33,34
 654.341269841 480.603174603 654.341269841 480.603174603 704.170634921 442.801587302 c 128,-1,0
 754 405 754 405 781.5 357.5 c 128,-1,1
343 604 m 1,35,-1
 343 877 l 1,36,37
 303 854 303 854 283 812 c 128,-1,38
 263 770 263 770 263 728 c 0,39,40
 263 655.111111111 263 655.111111111 343 604 c 1,35,-1
502 127 m 1,41,42
 615 161.391304348 615 161.391304348 615 241 c 0,43,44
 615 320.28 615 320.28 502 370 c 1,45,-1
 502 127 l 1,41,42
EndSplineSet
EndChar

StartChar: percent
Encoding: 8 37 8
Width: 871
GlyphClass: 2
Flags: W
LayerCount: 2
Back
Fore
SplineSet
866 1113 m 1,0,-1
 246 -125 l 1,1,-1
 53 -125 l 1,2,-1
 668 1113 l 1,3,-1
 866 1113 l 1,0,-1
203 774 m 256,4,5
 203 692 203 692 250 692 c 128,-1,6
 297 692 297 692 297 776 c 0,7,8
 297 827.789473684 297 827.789473684 280 843.894736842 c 128,-1,9
 263 860 263 860 247 860 c 0,10,11
 203 860 203 860 203 774 c 256,4,5
246 568 m 256,12,13
 147 568 147 568 101 637 c 0,14,15
 66 689.5 66 689.5 66 749.25 c 128,-1,16
 66 809 66 809 73 846 c 128,-1,17
 80 883 80 883 99.5 914 c 0,18,19
 143.532258065 984 143.532258065 984 246 984 c 0,20,21
 345.7 984 345.7 984 394 915 c 0,22,23
 431 862.142857143 431 862.142857143 431 775 c 256,24,25
 431 636.611111111 431 636.611111111 337 587 c 0,26,27
 301 568 301 568 246 568 c 256,12,13
623 196 m 256,28,29
 623 114 623 114 670 114 c 128,-1,30
 717 114 717 114 717 198 c 0,31,32
 717 249.789473684 717 249.789473684 700 265.894736842 c 128,-1,33
 683 282 683 282 667 282 c 0,34,35
 623 282 623 282 623 196 c 256,28,29
666 -9 m 256,36,37
 566.333333333 -9 566.333333333 -9 521 59 c 0,38,39
 486 111.5 486 111.5 486 171.25 c 128,-1,40
 486 231 486 231 493 268 c 128,-1,41
 500 305 500 305 519.5 336 c 0,42,43
 563.532258065 406 563.532258065 406 666 406 c 0,44,45
 765.7 406 765.7 406 814 337 c 0,46,47
 851 284.142857143 851 284.142857143 851 197 c 256,48,49
 851 59.6111111111 851 59.6111111111 757 10 c 0,50,51
 721 -9 721 -9 666 -9 c 256,36,37
EndSplineSet
EndChar

StartChar: ampersand
Encoding: 9 38 9
Width: 940
GlyphClass: 2
Flags: W
LayerCount: 2
Back
Fore
SplineSet
928 486 m 1,0,1
 928 310.875 928 310.875 826 177 c 1,2,3
 935 68 935 68 935 2 c 1,4,-1
 725 2 l 1,5,6
 725 24.0909090909 725 24.0909090909 701 59 c 1,7,8
 567.976744186 -29 567.976744186 -29 402 -29 c 0,9,10
 267.052631579 -29 267.052631579 -29 166 51 c 0,11,12
 59 135.708333333 59 135.708333333 59 260 c 0,13,14
 59 392.652173913 59 392.652173913 176.5 479.5 c 0,15,16
 211 505 211 505 250 528 c 1,17,18
 136 688.941176471 136 688.941176471 136 845 c 0,19,20
 136 955.292134831 136 955.292134831 236.5 1044.5 c 0,21,22
 332.82278481 1130 332.82278481 1130 451 1130 c 0,23,24
 584.295774648 1130 584.295774648 1130 678.5 1056.5 c 0,25,26
 778 978.868131868 778 978.868131868 778 854 c 0,27,28
 778 673.01 778 673.01 599 549.5 c 0,29,30
 549 515 549 515 497 486 c 1,31,32
 549.910798122 428.488262911 549.910798122 428.488262911 693 300 c 1,33,34
 747 378.923076923 747 378.923076923 747 481 c 1,35,-1
 928 486 l 1,0,1
589.5 772 m 128,-1,37
 606 808 606 808 606 847 c 128,-1,38
 606 886 606 886 593 908 c 128,-1,39
 580 930 580 930 558.5 943.5 c 0,40,41
 517.888888889 969 517.888888889 969 472.444444444 969 c 128,-1,42
 427 969 427 969 403 958.5 c 128,-1,43
 379 948 379 948 359.5 930.5 c 0,44,45
 316 891.461538462 316 891.461538462 316 836.730769231 c 0,46,47
 316 731.5 316 731.5 399 607 c 1,48,49
 498.955882353 659.357843137 498.955882353 659.357843137 535.977941176 697.678921569 c 128,-1,36
 573 736 573 736 589.5 772 c 128,-1,37
574 189 m 1,50,51
 407.654205607 342.299065421 407.654205607 342.299065421 351 403 c 1,52,53
 303 372 303 372 272.5 338.5 c 128,-1,54
 242 305 242 305 242 268.5 c 128,-1,55
 242 232 242 232 256.5 210.5 c 128,-1,56
 271 189 271 189 294 174 c 0,57,58
 340 144 340 144 394 144 c 0,59,60
 496.272727273 144 496.272727273 144 574 189 c 1,50,51
EndSplineSet
EndChar

StartChar: quotesingle
Encoding: 10 39 10
Width: 386
GlyphClass: 2
Flags: W
LayerCount: 2
Back
Fore
SplineSet
307.743164062 825.130859375 m 2,0,-1
 265.743164062 825.131835938 l 2,1,2
 249 825 249 825 246.551757812 840.142578125 c 0,3,4
 180 1184 180 1184 180.130859375 1183.7421875 c 0,5,6
 180 1222 180 1222 203.244871974 1255.35169197 c 0,7,8
 227 1290 227 1290 267.129882812 1303.83886719 c 0,9,10
 291 1312 291 1312 312.256835938 1311.86914062 c 0,11,12
 387 1312 387 1312 410.31640625 1250.75 c 0,13,14
 418 1231 418 1231 417.869140625 1210.2578125 c 0,15,16
 418 1192 418 1192 365.30859375 945.510742188 c 1,17,-1
 351.424804688 864.193359375 l 2,18,19
 351 863 351 863 347.424804688 850.208984375 c 0,20,21
 345 843 345 843 333.978515625 834.065429688 c 128,-1,22
 323 825 323 825 307.743164062 825.130859375 c 2,0,-1
EndSplineSet
EndChar

StartChar: parenleft
Encoding: 11 40 11
Width: 419
GlyphClass: 2
Flags: W
LayerCount: 2
Back
Fore
SplineSet
246 -342 m 1,0,1
 75 2.01176470588 75 2.01176470588 75 426 c 0,2,3
 75 877.421052632 75 877.421052632 242 1229 c 1,4,-1
 444 1229 l 1,5,6
 346.786885246 937.360655738 346.786885246 937.360655738 308.5 649.5 c 0,7,8
 295 548 295 548 295 457.5 c 128,-1,9
 295 367 295 367 306.5 263 c 128,-1,10
 318 159 318 159 337 53.5 c 0,11,12
 376.243721696 -164.405928366 376.243721696 -164.405928366 432 -342 c 1,13,-1
 246 -342 l 1,0,1
EndSplineSet
EndChar

StartChar: parenright
Encoding: 12 41 12
Width: 410
GlyphClass: 2
Flags: W
LayerCount: 2
Back
Fore
SplineSet
218 -352 m 1,0,-1
 32 -352 l 1,1,2
 122.8683565 -59.2019623876 122.8683565 -59.2019623876 157.5 257 c 0,3,4
 169 362 169 362 169 453 c 128,-1,5
 169 544 169 544 156 646 c 128,-1,6
 143 748 143 748 121.5 850.5 c 0,7,8
 80.3300149328 1046.7755102 80.3300149328 1046.7755102 20 1230 c 1,9,-1
 222 1230 l 1,10,11
 390 871.894736842 390 871.894736842 390 433.970897833 c 128,-1,12
 390 -3.95294117647 390 -3.95294117647 218 -352 c 1,0,-1
EndSplineSet
EndChar

StartChar: asterisk
Encoding: 13 42 13
Width: 865
GlyphClass: 2
Flags: W
LayerCount: 2
Back
Fore
SplineSet
837 500 m 1,0,-1
 622 500 l 1,1,-1
 780 342 l 1,2,-1
 694 257 l 1,3,-1
 532 419 l 1,4,-1
 532 179 l 1,5,-1
 411 179 l 1,6,-1
 411 409 l 1,7,-1
 245 243 l 1,8,-1
 159 328 l 1,9,-1
 331 500 l 1,10,-1
 91 500 l 1,11,-1
 91 621 l 1,12,-1
 330 621 l 1,13,-1
 164 787 l 1,14,-1
 250 873 l 1,15,-1
 411 711 l 1,16,-1
 411 929 l 1,17,-1
 532 929 l 1,18,-1
 532 701 l 1,19,-1
 689 859 l 1,20,-1
 775 773 l 1,21,-1
 623 621 l 1,22,-1
 837 621 l 1,23,-1
 837 500 l 1,0,-1
EndSplineSet
EndChar

StartChar: plus
Encoding: 14 43 14
Width: 1139
GlyphClass: 2
Flags: W
LayerCount: 2
Back
Fore
SplineSet
695 460 m 1,0,-1
 695 16 l 1,1,-1
 504 16 l 1,2,-1
 504 460 l 1,3,-1
 60 460 l 1,4,-1
 60 653 l 1,5,-1
 504 653 l 1,6,-1
 504 1096 l 1,7,-1
 695 1096 l 1,8,-1
 695 653 l 1,9,-1
 1140 653 l 1,10,-1
 1140 460 l 1,11,-1
 695 460 l 1,0,-1
EndSplineSet
EndChar

StartChar: comma
Encoding: 15 44 15
Width: 329
GlyphClass: 2
Flags: W
LayerCount: 2
Back
Fore
SplineSet
82 -275 m 1,0,-1
 9 -275 l 1,1,2
 102.411764706 -186.258823529 102.411764706 -186.258823529 124.705882353 -146.129411765 c 128,-1,3
 147 -106 147 -106 152 -77 c 1,4,5
 100.284671533 -65.0656934307 100.284671533 -65.0656934307 75.6423357664 -35.0328467153 c 0,6,7
 33 16.9375 33 16.9375 33 57.96875 c 128,-1,8
 33 99 33 99 45 126.5 c 128,-1,9
 57 154 57 154 77 174 c 0,10,11
 121 218 121 218 183 218 c 256,12,13
 244.4 218 244.4 218 289.5 174 c 0,14,15
 334 130.585365854 334 130.585365854 334 70.7926829268 c 0,16,17
 334 -41.5217391304 334 -41.5217391304 261.338108883 -136.298118849 c 128,-1,18
 188.676217765 -231.074498567 188.676217765 -231.074498567 82 -275 c 1,0,-1
EndSplineSet
EndChar

StartChar: hyphen
Encoding: 16 45 16
Width: 633
GlyphClass: 2
Flags: W
LayerCount: 2
Back
Fore
SplineSet
81 503 m 1,0,-1
 610 503 l 1,1,-1
 610 340 l 1,2,-1
 81 340 l 1,3,-1
 81 503 l 1,0,-1
EndSplineSet
EndChar

StartChar: period
Encoding: 17 46 17
Width: 329
GlyphClass: 2
Flags: W
LayerCount: 2
Back
Fore
SplineSet
193 -21 m 256,0,1
 95.4444444444 -21 95.4444444444 -21 55 70 c 0,2,3
 43 97 43 97 43 128 c 256,4,5
 43 190.585365854 43 190.585365854 87.5 234 c 0,6,7
 132.6 278 132.6 278 193 278 c 256,8,9
 254.4 278 254.4 278 299.5 234 c 0,10,11
 344 190.585365854 344 190.585365854 344 128 c 256,12,13
 344 67.6 344 67.6 300 22.5 c 0,14,15
 257.56097561 -21 257.56097561 -21 193 -21 c 256,0,1
EndSplineSet
EndChar

StartChar: slash
Encoding: 18 47 18
Width: 771
GlyphClass: 2
Flags: W
LayerCount: 2
Back
Fore
SplineSet
246 -204 m 1,0,-1
 53 -204 l 1,1,-1
 569 1230 l 1,2,-1
 767 1230 l 1,3,-1
 246 -204 l 1,0,-1
EndSplineSet
EndChar

StartChar: zero
Encoding: 19 48 19
Width: 759
GlyphClass: 2
Flags: W
LayerCount: 2
Back
Fore
SplineSet
408 -13 m 256,0,1
 152.47826087 -13 152.47826087 -13 79 325 c 0,2,3
 53 444.6 53 444.6 53 610 c 256,4,5
 53 1107.23423423 53 1107.23423423 278.5 1221 c 0,6,7
 334 1249 334 1249 408 1249 c 256,8,9
 662.669064748 1249 662.669064748 1249 733.5 909.5 c 0,10,11
 759 787.275862069 759 787.275862069 759 624 c 256,12,13
 759 128.018181818 759 128.018181818 537 15 c 0,14,15
 482 -13 482 -13 408 -13 c 256,0,1
404 1062 m 256,16,17
 332.683544304 1062 332.683544304 1062 288.5 972.5 c 0,18,19
 230 854 230 854 230 604 c 256,20,21
 230 283.482142857 230 283.482142857 337 197.5 c 0,22,23
 365 175 365 175 404 175 c 256,24,25
 473.56 175 473.56 175 517.5 259.5 c 0,26,27
 576 372 576 372 576 611 c 256,28,29
 576 948.857142857 576 948.857142857 472 1038 c 0,30,31
 444 1062 444 1062 404 1062 c 256,16,17
EndSplineSet
EndChar

StartChar: one
Encoding: 20 49 20
Width: 386
GlyphClass: 2
Flags: W
LayerCount: 2
Back
Fore
SplineSet
142 6 m 1,0,-1
 142 965 l 1,1,-1
 89 944 l 1,2,3
 86 982 86 982 82.5 1024 c 128,-1,4
 79 1066 79 1066 83 1110 c 0,5,6
 91.5454545455 1204 91.5454545455 1204 160 1204 c 2,7,-1
 352 1204 l 1,8,-1
 352 6 l 1,9,-1
 142 6 l 1,0,-1
EndSplineSet
EndChar

StartChar: two
Encoding: 21 50 21
Width: 825
GlyphClass: 2
Flags: W
LayerCount: 2
Back
Fore
SplineSet
80 641 m 1,0,1
 13 732.885714286 13 732.885714286 13 830.942857143 c 128,-1,2
 13 929 13 929 46 999.5 c 128,-1,3
 79 1070 79 1070 134.5 1123 c 0,4,5
 255.971698113 1239 255.971698113 1239 416 1239 c 0,6,7
 596.276422764 1239 596.276422764 1239 710 1104.5 c 0,8,9
 818 976.769230769 818 976.769230769 818 793 c 0,10,11
 818 578.526315789 818 578.526315789 660.5 415.5 c 0,12,13
 632 386 632 386 608 363 c 128,-1,14
 584 340 584 340 567 323.5 c 128,-1,15
 550 307 550 307 529 287.5 c 0,16,17
 496.8 257.6 496.8 257.6 422 185 c 1,18,-1
 798 186 l 1,19,-1
 798 1 l 1,20,-1
 60 1 l 1,21,22
 70.9326056004 116.885619364 70.9326056004 116.885619364 183 231.5 c 0,23,24
 205 254 205 254 229.5 276.5 c 128,-1,25
 254 299 254 299 280 320.5 c 128,-1,26
 306 342 306 342 345.5 375.5 c 128,-1,27
 385 409 385 409 437 455.5 c 128,-1,28
 489 502 489 502 529.5 554 c 0,29,30
 620 670.197530864 620 670.197530864 620 793 c 0,31,32
 620 969.195121951 620 969.195121951 511 1033 c 0,33,34
 470 1057 470 1057 412 1057 c 128,-1,35
 354 1057 354 1057 314 1034.5 c 128,-1,36
 274 1012 274 1012 248 976.5 c 0,37,38
 196 905.5 196 905.5 196 809.5625 c 128,-1,39
 196 713.625 196 713.625 256 648 c 1,40,-1
 80 641 l 1,0,1
EndSplineSet
EndChar

StartChar: three
Encoding: 22 51 22
Width: 809
GlyphClass: 2
Flags: W
LayerCount: 2
Back
Fore
SplineSet
669 623 m 1,0,1
 751.015706806 549.185863874 751.015706806 549.185863874 773.507853403 502.092931937 c 0,2,3
 810 425.6875 810 425.6875 810 344.84375 c 128,-1,4
 810 264 810 264 777.5 199.5 c 128,-1,5
 745 135 745 135 691.5 87 c 0,6,7
 575.583333333 -17 575.583333333 -17 424 -17 c 0,8,9
 267.588235294 -17 267.588235294 -17 155.5 94 c 0,10,11
 43.9888701954 204.428497476 43.9888701954 204.428497476 40 358 c 1,12,-1
 204 350 l 1,13,14
 203 345 203 345 203 340.5 c 2,15,-1
 203 332 l 2,16,17
 203 256.574074074 203 256.574074074 261 197.5 c 0,18,19
 321.381818182 136 321.381818182 136 398 136 c 256,20,21
 476.222222222 136 476.222222222 136 538.5 195 c 0,22,23
 602 255.157894737 602 255.157894737 602 330 c 0,24,25
 602 388.146341463 602 388.146341463 570 431.073170732 c 0,26,27
 510.418181818 511 510.418181818 511 444 511 c 2,28,-1
 377 511 l 1,29,-1
 386 686 l 1,30,-1
 444 686 l 2,31,32
 514.203389831 686 514.203389831 686 562 756.5 c 0,33,34
 602 815.5 602 815.5 602 866.25 c 128,-1,35
 602 917 602 917 585 950.5 c 128,-1,36
 568 984 568 984 539.5 1008 c 0,37,38
 478.9375 1059 478.9375 1059 397 1059 c 0,39,40
 321.52173913 1059 321.52173913 1059 264 1010 c 0,41,42
 205 959.740740741 205 959.740740741 205 885 c 2,43,-1
 205 872 l 1,44,-1
 40 864 l 1,45,46
 37.990593343 1020.73371925 37.990593343 1020.73371925 151.5 1131 c 0,47,48
 265.764705882 1242 265.764705882 1242 424 1242 c 0,49,50
 569.866666667 1242 569.866666667 1242 689.5 1145 c 0,51,52
 815 1043.24324324 815 1043.24324324 815 908 c 0,53,54
 815 822.411764706 815 822.411764706 791 773.705882353 c 0,55,56
 748.419058553 687.291618829 748.419058553 687.291618829 669 623 c 1,0,1
EndSplineSet
EndChar

StartChar: four
Encoding: 23 52 23
Width: 960
GlyphClass: 2
Flags: W
LayerCount: 2
Back
Fore
SplineSet
788 241 m 1,0,-1
 788 3 l 1,1,-1
 616 3 l 1,2,-1
 616 241 l 1,3,-1
 60 241 l 1,4,5
 63.5511100833 610.315448659 63.5511100833 610.315448659 182.5 879 c 0,6,7
 272.278780518 1081.79442188 272.278780518 1081.79442188 428 1163.5 c 0,8,9
 509 1206 509 1206 613 1206 c 2,10,-1
 788 1206 l 1,11,-1
 788 420 l 1,12,-1
 926 420 l 2,13,14
 960.678571429 420 960.678571429 420 973 351 c 0,15,16
 978 323 978 323 978 292.5 c 2,17,18
 978 241 l 1,19,-1
 788 241 l 1,0,-1
616 1028 m 1,20,-1
 592 1028 l 2,21,22
 417.490384615 1028 417.490384615 1028 338.5 763 c 0,23,24
 292 607 292 607 292 420 c 1,25,-1
 616 420 l 1,26,-1
 616 1028 l 1,20,-1
EndSplineSet
EndChar

StartChar: five
Encoding: 24 53 24
Width: 867
GlyphClass: 2
Flags: W
LayerCount: 2
Back
Fore
SplineSet
247 821 m 1,0,1
 369.684210526 884 369.684210526 884 462.842105263 884 c 128,-1,2
 556 884 556 884 630 844 c 128,-1,3
 704 804 704 804 756.5 739.5 c 0,4,5
 867 603.742857143 867 603.742857143 867 427 c 0,6,7
 867 245 867 245 759 110 c 0,8,9
 643.8 -34 643.8 -34 467 -34 c 0,10,11
 299.2 -34 299.2 -34 181 64.5 c 0,12,13
 55 169.5 55 169.5 55 325 c 1,14,-1
 56 351 l 1,15,-1
 238 342 l 1,16,17
 246.089605735 257.059139785 246.089605735 257.059139785 307 203.5 c 128,-1,18
 367.843137255 150 367.843137255 150 441.421568627 150 c 128,-1,19
 515 150 515 150 555 176.5 c 128,-1,20
 595 203 595 203 619.5 243.5 c 0,21,22
 665 318.714285714 665 318.714285714 665 422 c 0,23,24
 665 527.709090909 665 527.709090909 611.5 606.5 c 0,25,26
 548.012345679 700 548.012345679 700 431.00617284 700 c 128,-1,27
 314 700 314 700 247 599 c 1,28,-1
 59 591 l 1,29,-1
 59 1203 l 1,30,-1
 753 1203 l 2,31,32
 806.925925926 1203 806.925925926 1203 825 1081 c 0,33,34
 829 1054 829 1054 832 1029 c 1,35,-1
 247 1029 l 1,36,-1
 247 821 l 1,0,1
EndSplineSet
EndChar

StartChar: six
Encoding: 25 54 25
Width: 802
GlyphClass: 2
Flags: W
LayerCount: 2
Back
Fore
SplineSet
438.5 -22 m 0,0,1
 353 -22 353 -22 284 14 c 128,-1,2
 215 50 215 50 172 104.5 c 128,-1,3
 129 159 129 159 103.5 225 c 0,4,5
 56 347.941176471 56 347.941176471 56 507 c 0,6,7
 56 721.153846154 56 721.153846154 72 822.076923077 c 128,-1,8
 88 923 88 923 115 996.5 c 128,-1,9
 142 1070 142 1070 188.5 1125 c 0,10,11
 289.954545455 1245 289.954545455 1245 477 1245 c 0,12,13
 628.11827957 1245 628.11827957 1245 710.5 1145.5 c 0,14,15
 785.645691087 1054.73961986 785.645691087 1054.73961986 792 898 c 1,16,-1
 620 907 l 1,17,18
 609.65497076 976.828947368 609.65497076 976.828947368 589.32748538 1005.41447368 c 0,19,20
 549.088888889 1062 549.088888889 1062 489.544444444 1062 c 128,-1,21
 430 1062 430 1062 396 1044.5 c 128,-1,22
 362 1027 362 1027 338.5 997 c 128,-1,23
 315 967 315 967 301 927.5 c 128,-1,24
 287 888 287 888 279 843.5 c 0,25,26
 266 771.1875 266 771.1875 266 664 c 1,27,28
 365.977252843 761.036745407 365.977252843 761.036745407 428.5 777 c 0,29,30
 452 783 452 783 476 783 c 0,31,32
 628.5 783 628.5 783 718.5 663 c 0,33,34
 800 554.333333333 800 554.333333333 800 394 c 0,35,36
 800 221 800 221 706 103.5 c 0,37,38
 605.6 -22 605.6 -22 438.5 -22 c 0,0,1
513.5 576 m 128,-1,40
 481 599 481 599 432 599 c 128,-1,41
 383 599 383 599 350.5 574 c 128,-1,42
 318 549 318 549 299.5 513 c 0,43,44
 266 447.810810811 266 447.810810811 266 389.905405405 c 128,-1,45
 266 332 266 332 274 294.5 c 128,-1,46
 282 257 282 257 301.5 225 c 0,47,48
 347.203125 150 347.203125 150 433 150 c 256,49,50
 520.115942029 150 520.115942029 150 565 231.5 c 0,51,52
 600 295.052631579 600 295.052631579 600 351.026315789 c 128,-1,53
 600 407 600 407 592 446 c 128,-1,54
 584 485 584 485 565 519 c 128,-1,39
 546 553 546 553 513.5 576 c 128,-1,40
EndSplineSet
EndChar

StartChar: seven
Encoding: 26 55 26
Width: 727
GlyphClass: 2
Flags: W
LayerCount: 2
Back
Fore
SplineSet
57 1056 m 2,0,1
 57 1219 57 1219 140 1219 c 2,2,-1
 545 1219 l 2,3,4
 627.196078431 1219 627.196078431 1219 676.5 1165.5 c 0,5,6
 724 1113.95744681 724 1113.95744681 724 1027 c 0,7,8
 724 864.94 724 864.94 566 520.5 c 0,9,10
 541 466 541 466 517 415 c 0,11,12
 396.806763285 159.589371981 396.806763285 159.589371981 378.903381643 94.2946859903 c 128,-1,13
 361 29 361 29 357 1 c 1,14,-1
 158 1 l 1,15,16
 169.309707242 142.371340524 169.309707242 142.371340524 332 473 c 0,17,18
 365 541 365 541 396.5 605 c 0,19,20
 509 833.571428571 509 833.571428571 509 934.285714286 c 128,-1,21
 509 1035 509 1035 406 1035 c 2,22,-1
 57 1035 l 1,23,-1
 57 1056 l 2,0,1
EndSplineSet
EndChar

StartChar: eight
Encoding: 27 56 27
Width: 805
GlyphClass: 2
Flags: W
LayerCount: 2
Back
Fore
SplineSet
582 2.5 m 0,0,1
 511 -28 511 -28 431.5 -28 c 128,-1,2
 352 -28 352 -28 281.5 3 c 128,-1,3
 211 34 211 34 159 87 c 0,4,5
 14.3616144975 234.419892916 14.3616144975 234.419892916 70 437.5 c 0,6,7
 90.2098340119 511.265894143 90.2098340119 511.265894143 135.104917006 557.632947072 c 128,-1,8
 180 604 180 604 224 637 c 1,9,10
 144.922877511 700.647440052 144.922877511 700.647440052 119.461438756 749.323720026 c 0,11,12
 79 826.676470588 79 826.676470588 79 902.338235294 c 128,-1,13
 79 978 79 978 107 1038.5 c 128,-1,14
 135 1099 135 1099 183 1143.5 c 0,15,16
 287.08988764 1240 287.08988764 1240 430 1240 c 256,17,18
 576.571428571 1240 576.571428571 1240 680.5 1142.5 c 0,19,20
 785.979218137 1043.54526958 785.979218137 1043.54526958 784 905 c 0,21,22
 784 823.676470588 784 823.676470588 759.5 776.838235294 c 0,23,24
 719.707712249 700.764744005 719.707712249 700.764744005 638 635 c 1,25,26
 766.056179775 541.092134831 766.056179775 541.092134831 795 434 c 0,27,28
 827.62276141 313.295782785 827.62276141 313.295782785 785 207.5 c 0,29,30
 727.610464404 65.0509741453 727.610464404 65.0509741453 582 2.5 c 0,0,1
432.5 1078 m 0,31,32
 396 1078 396 1078 365.5 1065.5 c 128,-1,33
 335 1053 335 1053 311.5 1031 c 0,34,35
 263.101596517 985.690856313 263.101596517 985.690856313 255.050798258 931.345428157 c 128,-1,36
 247 877 247 877 258.5 837.5 c 128,-1,37
 270 798 270 798 294.5 767.5 c 0,38,39
 350.302949062 698.031022597 350.302949062 698.031022597 433 700 c 0,40,41
 514.322033898 700 514.322033898 700 566.5 765.5 c 0,42,43
 644.083879423 862.892529489 644.083879423 862.892529489 591.5 973.5 c 0,44,45
 541.819672131 1078 541.819672131 1078 432.5 1078 c 0,31,32
429.5 559 m 0,46,47
 387 558 387 558 352 542 c 128,-1,48
 317 526 317 526 291 498.5 c 0,49,50
 237.112793734 441.503916449 237.112793734 441.503916449 232.556396867 378.751958225 c 128,-1,51
 228 316 228 316 242.5 275.5 c 128,-1,52
 257 235 257 235 284 203.5 c 0,53,54
 344.428571429 133 344.428571429 133 434 133 c 0,55,56
 522.370967742 133 522.370967742 133 580.5 201 c 0,57,58
 636.069628364 266.00598035 636.069628364 266.00598035 634 355 c 1,59,60
 629.770415306 441.706486234 629.770415306 441.706486234 573.5 499 c 0,61,62
 512.649897331 560.956468172 512.649897331 560.956468172 429.5 559 c 0,46,47
EndSplineSet
EndChar

StartChar: nine
Encoding: 28 57 28
Width: 802
GlyphClass: 2
Flags: W
LayerCount: 2
Back
Fore
SplineSet
547.5 28.5 m 128,-1,1
 477 -4 477 -4 387 -4 c 128,-1,2
 297 -4 297 -4 239 22 c 128,-1,3
 181 48 181 48 142 94.5 c 0,4,5
 66.3358820317 184.714909885 66.3358820317 184.714909885 60 341 c 1,6,-1
 232 333 l 1,7,8
 242.245083207 263.845688351 242.245083207 263.845688351 262.622541604 234.922844175 c 0,9,10
 302.727272727 178 302.727272727 178 374.363636364 178 c 128,-1,11
 446 178 446 178 488 216 c 128,-1,12
 530 254 530 254 552 312.5 c 0,13,14
 587 405.568181818 587 405.568181818 587 576 c 1,15,16
 487.695495495 479.616216216 487.695495495 479.616216216 424 463 c 0,17,18
 401 457 401 457 377 457 c 0,19,20
 224.5 457 224.5 457 134.5 577 c 0,21,22
 53 685.666666667 53 685.666666667 53 846 c 0,23,24
 53 1019 53 1019 147 1136.5 c 0,25,26
 248.2 1263 248.2 1263 417 1263 c 0,27,28
 578.733944954 1263 578.733944954 1263 680.5 1135.5 c 0,29,30
 797 989.540229885 797 989.540229885 797 733 c 0,31,32
 797 518.846153846 797 518.846153846 781 417.923076923 c 128,-1,33
 765 317 765 317 738 244 c 128,-1,34
 711 171 711 171 664.5 116 c 128,-1,0
 618 61 618 61 547.5 28.5 c 128,-1,1
420 1090 m 256,35,36
 332.884057971 1090 332.884057971 1090 288 1008.5 c 0,37,38
 253 944.947368421 253 944.947368421 253 888.473684211 c 128,-1,39
 253 832 253 832 261 793.5 c 128,-1,40
 269 755 269 755 288 721 c 0,41,42
 332.705882353 641 332.705882353 641 420 641 c 0,43,44
 509.305555556 641 509.305555556 641 553.5 727 c 0,45,46
 587 792.189189189 587 792.189189189 587 850.094594595 c 128,-1,47
 587 908 587 908 579 945.5 c 128,-1,48
 571 983 571 983 551.5 1015 c 0,49,50
 505.796875 1090 505.796875 1090 420 1090 c 256,35,36
EndSplineSet
EndChar

StartChar: colon
Encoding: 29 58 29
Width: 329
GlyphClass: 2
Flags: W
LayerCount: 2
Back
Fore
SplineSet
173 498 m 256,0,1
 115 498 115 498 74 539 c 128,-1,2
 33 580 33 580 33 638 c 256,3,4
 33 696 33 696 74 737 c 128,-1,5
 115 778 115 778 173 778 c 256,6,7
 232 778 232 778 273 737 c 128,-1,8
 314 696 314 696 314 638 c 256,9,10
 314 580 314 580 273 539 c 128,-1,11
 232 498 232 498 173 498 c 256,0,1
173 48 m 256,12,13
 115 48 115 48 74 89 c 128,-1,14
 33 130 33 130 33 188 c 256,15,16
 33 246 33 246 74 287 c 128,-1,17
 115 328 115 328 173 328 c 256,18,19
 232 328 232 328 273 287 c 128,-1,20
 314 246 314 246 314 188 c 256,21,22
 314 130 314 130 273 89 c 128,-1,23
 232 48 232 48 173 48 c 256,12,13
EndSplineSet
EndChar

StartChar: semicolon
Encoding: 30 59 30
Width: 329
GlyphClass: 2
Flags: W
LayerCount: 2
Back
Fore
SplineSet
82 -275 m 1,0,-1
 9 -275 l 1,1,2
 102.411764706 -186.258823529 102.411764706 -186.258823529 124.705882353 -146.129411765 c 128,-1,3
 147 -106 147 -106 152 -77 c 1,4,5
 100.284671533 -65.0656934307 100.284671533 -65.0656934307 75.6423357664 -35.0328467153 c 0,6,7
 33 16.9375 33 16.9375 33 57.96875 c 128,-1,8
 33 99 33 99 45 126.5 c 128,-1,9
 57 154 57 154 77 174 c 0,10,11
 121 218 121 218 183 218 c 256,12,13
 244.4 218 244.4 218 289.5 174 c 0,14,15
 334 130.585365854 334 130.585365854 334 70.7926829268 c 0,16,17
 334 -41.5217391304 334 -41.5217391304 261.338108883 -136.298118849 c 128,-1,18
 188.676217765 -231.074498567 188.676217765 -231.074498567 82 -275 c 1,0,-1
173 298 m 256,19,20
 115 298 115 298 74 339 c 128,-1,21
 33 380 33 380 33 438 c 256,22,23
 33 496 33 496 74 537 c 128,-1,24
 115 578 115 578 173 578 c 256,25,26
 232 578 232 578 273 537 c 128,-1,27
 314 496 314 496 314 438 c 256,28,29
 314 380 314 380 273 339 c 128,-1,30
 232 298 232 298 173 298 c 256,19,20
EndSplineSet
EndChar

StartChar: less
Encoding: 31 60 31
Width: 989
GlyphClass: 2
Flags: W
LayerCount: 2
Back
Fore
SplineSet
989 -20 m 1,0,-1
 58 373 l 1,1,-1
 58 547 l 1,2,-1
 989 936 l 1,3,-1
 989 747 l 1,4,-1
 292 459 l 1,5,-1
 989 168 l 1,6,-1
 989 -20 l 1,0,-1
EndSplineSet
EndChar

StartChar: equal
Encoding: 32 61 32
Width: 1008
GlyphClass: 2
Flags: W
LayerCount: 2
Back
Fore
SplineSet
91 633 m 1,0,-1
 970 633 l 1,1,-1
 970 470 l 1,2,-1
 91 470 l 1,3,-1
 91 633 l 1,0,-1
91 323 m 1,4,-1
 970 323 l 1,5,-1
 970 160 l 1,6,-1
 91 160 l 1,7,-1
 91 323 l 1,4,-1
EndSplineSet
EndChar

StartChar: greater
Encoding: 33 62 33
Width: 989
GlyphClass: 2
Flags: W
LayerCount: 2
Back
Fore
SplineSet
61 168 m 1,0,-1
 758 459 l 1,1,-1
 61 747 l 1,2,-1
 61 936 l 1,3,-1
 992 547 l 1,4,-1
 992 373 l 1,5,-1
 61 -20 l 1,6,-1
 61 168 l 1,0,-1
EndSplineSet
EndChar

StartChar: question
Encoding: 34 63 34
Width: 745
GlyphClass: 2
Flags: W
LayerCount: 2
Back
Fore
SplineSet
389 959 m 0,0,1
 270.666666667 959 270.666666667 959 264 759 c 1,2,-1
 58 759 l 1,3,4
 60.1034482759 906.24137931 60.1034482759 906.24137931 151 1008.5 c 0,5,6
 247.444444444 1117 247.444444444 1117 399 1117 c 256,7,8
 551.415730337 1117 551.415730337 1117 649 1020.5 c 0,9,10
 743 927.544444444 743 927.544444444 743 789 c 0,11,12
 743 659.726027397 743 659.726027397 602.5 525 c 0,13,14
 514.626131953 440.737386805 514.626131953 440.737386805 487.313065977 394.368693402 c 128,-1,15
 460 348 460 348 459 307 c 1,16,-1
 256 307 l 1,17,18
 258.198910082 432.337874659 258.198910082 432.337874659 397 561.5 c 0,19,20
 483.067929925 641.590990347 483.067929925 641.590990347 509.533964962 691.295495173 c 128,-1,21
 536 741 536 741 536 780.5 c 128,-1,22
 536 820 536 820 528 850.5 c 128,-1,23
 520 881 520 881 503 905 c 0,24,25
 464.75 959 464.75 959 389 959 c 0,0,1
353 -21 m 256,26,27
 296.555555556 -21 296.555555556 -21 267.777777778 7 c 0,28,29
 218 55.4324324324 218 55.4324324324 218 109 c 256,30,31
 218 193.142857143 218 193.142857143 300.5 228.5 c 0,32,33
 325 239 325 239 353 239 c 256,34,35
 408.8 239 408.8 239 449.5 200.5 c 0,36,37
 489 163.135135135 489 163.135135135 489 109 c 256,38,39
 489 55.4324324324 489 55.4324324324 449.5 17 c 0,40,41
 410.444444444 -21 410.444444444 -21 353 -21 c 256,26,27
EndSplineSet
EndChar

StartChar: at
Encoding: 35 64 35
Width: 1186
GlyphClass: 2
Flags: W
LayerCount: 2
Back
Fore
SplineSet
1080 48 m 1,0,1
 905.393939394 -86 905.393939394 -86 683 -86 c 0,2,3
 420.908256881 -86 420.908256881 -86 231 86.5 c 0,4,5
 110.243986254 196.186712486 110.243986254 196.186712486 62 357 c 0,6,7
 38 437 38 437 38 548 c 128,-1,8
 38 659 38 659 83.5 767.5 c 128,-1,9
 129 876 129 876 210 952 c 0,10,11
 379.460526316 1111 379.460526316 1111 644 1111 c 0,12,13
 869.951219512 1111 869.951219512 1111 1023 985.5 c 0,14,15
 1187 851.02 1187 851.02 1187 630 c 0,16,17
 1187 474.6 1187 474.6 1075 337 c 0,18,19
 956.976744186 192 956.976744186 192 804 192 c 0,20,21
 736.428571429 192 736.428571429 192 690 257 c 1,22,23
 623.076923077 199 623.076923077 199 555.538461538 199 c 128,-1,24
 488 199 488 199 441 223 c 128,-1,25
 394 247 394 247 360 286 c 0,26,27
 288 368.588235294 288 368.588235294 288 480 c 0,28,29
 288 619.384615385 288 619.384615385 368 724 c 0,30,31
 455.941176471 839 455.941176471 839 580.823529412 839 c 128,-1,32
 705.705882353 839 705.705882353 839 786 774 c 1,33,-1
 793 802 l 1,34,-1
 965 802 l 1,35,36
 910 880 910 880 826.5 921 c 128,-1,37
 743 962 743 962 648 962 c 128,-1,38
 553 962 553 962 471.5 930.5 c 128,-1,39
 390 899 390 899 331 841.5 c 0,40,41
 206 719.677966102 206 719.677966102 206 526 c 0,42,43
 206 322.948905109 206 322.948905109 355.5 192 c 0,44,45
 497.066666667 68 497.066666667 68 714.046491228 68 c 128,-1,46
 931.026315789 68 931.026315789 68 1080 221 c 1,47,-1
 1080 48 l 1,0,1
893 427.5 m 128,-1,49
 892 424 892 424 892 407.5 c 128,-1,50
 892 391 892 391 904 391 c 0,51,52
 958.226415094 391 958.226415094 391 999.5 453.5 c 0,53,54
 1037 510.285714286 1037 510.285714286 1037 569.142857143 c 0,55,56
 1037 696 1037 696 967 798 c 1,57,-1
 895 435 l 2,58,48
 894 431 894 431 893 427.5 c 128,-1,49
730 473.5 m 128,-1,60
 743 498 743 498 743 526.5 c 128,-1,61
 743 555 743 555 734 577.5 c 128,-1,62
 725 600 725 600 709.5 616.5 c 0,63,64
 676.151515152 652 676.151515152 652 635.075757576 652 c 128,-1,65
 594 652 594 652 565 641.5 c 128,-1,66
 536 631 536 631 513.5 611.5 c 0,67,68
 463 567.733333333 463 567.733333333 463 506 c 0,69,70
 463 454.8 463 454.8 501.5 424 c 0,71,72
 536.5 396 536.5 396 577.25 396 c 128,-1,73
 618 396 618 396 646 405 c 128,-1,74
 674 414 674 414 695.5 431.5 c 128,-1,59
 717 449 717 449 730 473.5 c 128,-1,60
EndSplineSet
EndChar

StartChar: A
Encoding: 36 65 36
Width: 1068
GlyphClass: 2
Flags: W
LayerCount: 2
Back
Fore
SplineSet
819 0 m 1,0,-1
 710 359 l 1,1,-1
 353 359 l 1,2,-1
 243 0 l 1,3,-1
 31 0 l 1,4,-1
 426 1257 l 1,5,-1
 646 1257 l 1,6,-1
 1036 0 l 1,7,-1
 819 0 l 1,0,-1
533 953 m 1,8,-1
 405 551 l 1,9,-1
 653 551 l 1,10,-1
 533 953 l 1,8,-1
EndSplineSet
EndChar

StartChar: B
Encoding: 37 66 37
Width: 951
GlyphClass: 2
Flags: W
LayerCount: 2
Back
Fore
SplineSet
738 664 m 1,0,1
 899 564.139240506 899 564.139240506 899 373 c 0,2,3
 899 201.666666667 899 201.666666667 807 102 c 256,4,5
 712.846153846 8.52651282912e-14 712.846153846 8.52651282912e-14 561 0 c 2,6,-1
 57 0 l 1,7,-1
 57 1254 l 1,8,-1
 514 1254 l 2,9,10
 675 1254 675 1254 764 1165 c 0,11,12
 853 1074.06521739 853 1074.06521739 853 916.532608696 c 128,-1,13
 853 759 853 759 738 664 c 1,0,1
551.5 752.5 m 0,14,15
 657 791.015873016 657 791.015873016 657 913.5 c 0,16,17
 657 963 657 963 627.5 996.5 c 128,-1,18
 598 1030 598 1030 565.5 1043 c 128,-1,19
 533 1056 533 1056 480 1056 c 2,20,-1
 254 1056 l 1,21,-1
 254 741 l 1,22,-1
 480 741 l 2,23,24
 520 741 520 741 551.5 752.5 c 0,14,15
547 198 m 2,25,26
 704 198 704 198 704 381.913043478 c 0,27,28
 704 479.826086957 704 479.826086957 644.5 511.413043478 c 128,-1,29
 585 543 585 543 487 543 c 2,30,-1
 254 543 l 1,31,-1
 254 198 l 1,32,-1
 547 198 l 2,25,26
EndSplineSet
EndChar

StartChar: C
Encoding: 38 67 38
Width: 1055
GlyphClass: 2
Flags: W
LayerCount: 2
Back
Fore
SplineSet
887.5 108.5 m 128,-1,1
 772 -22 772 -22 561 -22 c 128,-1,2
 350 -22 350 -22 205 140 c 0,3,4
 61 299.36 61 299.36 61 623 c 0,5,6
 61 907.636363636 61 907.636363636 189 1088 c 0,7,8
 321.604166667 1278 321.604166667 1278 573 1278 c 0,9,10
 754 1278 754 1278 863.5 1169.5 c 128,-1,11
 973 1061 973 1061 1014 829 c 1,12,-1
 815 829 l 1,13,14
 774.480314961 1025.80989876 774.480314961 1025.80989876 651 1065.5 c 0,15,16
 609 1079 609 1079 544 1079 c 0,17,18
 405 1079 405 1079 332.5 950 c 128,-1,19
 260 821 260 821 260 625 c 0,20,21
 260 393.697674419 260 393.697674419 347.5 284.848837209 c 128,-1,22
 435 176 435 176 569 176 c 0,23,24
 729.811023622 176 729.811023622 176 795.5 353.5 c 0,25,26
 819 417 819 417 833 509 c 1,27,-1
 1035 509 l 1,28,0
 1003 239 1003 239 887.5 108.5 c 128,-1,1
EndSplineSet
EndChar

StartChar: D
Encoding: 39 68 39
Width: 1001
GlyphClass: 2
Flags: W
LayerCount: 2
Back
Fore
SplineSet
955 628 m 0,0,1
 955 270.615384615 955 270.615384615 807 134 c 0,2,3
 660.818181818 5.68434188608e-14 660.818181818 5.68434188608e-14 495 0 c 2,4,-1
 61 0 l 1,5,-1
 61 1254 l 1,6,-1
 495 1254 l 2,7,8
 730.85106383 1254 730.85106383 1254 845 1069 c 0,9,10
 955 892.214285714 955 892.214285714 955 628 c 0,0,1
473 1056 m 2,11,-1
 257 1056 l 1,12,-1
 257 198 l 1,13,-1
 473 198 l 2,14,15
 756 198 756 198 756 627 c 256,16,17
 756 958.641509434 756 958.641509434 594 1032 c 0,18,19
 541 1056 541 1056 473 1056 c 2,11,-1
EndSplineSet
EndChar

StartChar: E
Encoding: 40 69 40
Width: 898
GlyphClass: 2
Flags: W
LayerCount: 2
Back
Fore
SplineSet
59 0 m 1,0,-1
 59 1254 l 1,1,-1
 842 1254 l 1,2,-1
 842 1056 l 1,3,-1
 255 1056 l 1,4,-1
 255 741 l 1,5,-1
 821 741 l 1,6,-1
 821 543 l 1,7,-1
 255 543 l 1,8,-1
 255 198 l 1,9,-1
 868 198 l 1,10,-1
 868 0 l 1,11,-1
 59 0 l 1,0,-1
EndSplineSet
EndChar

StartChar: F
Encoding: 41 70 41
Width: 846
GlyphClass: 2
Flags: W
LayerCount: 2
Back
Fore
SplineSet
253 1056 m 1,0,-1
 253 741 l 1,1,-1
 748 741 l 1,2,-1
 748 543 l 1,3,-1
 253 543 l 1,4,-1
 253 0 l 1,5,-1
 59 0 l 1,6,-1
 59 1254 l 1,7,-1
 817 1254 l 1,8,-1
 817 1056 l 1,9,-1
 253 1056 l 1,0,-1
EndSplineSet
EndChar

StartChar: G
Encoding: 42 71 42
Width: 1132
GlyphClass: 2
Flags: W
LayerCount: 2
Back
Fore
SplineSet
940 10 m 1,0,-1
 914 130 l 1,1,2
 763 -21 763 -21 565 -21 c 0,3,4
 329.556701031 -21 329.556701031 -21 192.278350515 168.5 c 128,-1,5
 55 358 55 358 55 613 c 0,6,7
 55 906.875 55 906.875 196 1089 c 0,8,9
 340.463157895 1277 340.463157895 1277 595 1277 c 0,10,11
 793 1277 793 1277 914 1172.5 c 128,-1,12
 1035 1068 1035 1068 1076 838 c 1,13,-1
 875 838 l 1,14,15
 845.161857529 971.394048693 845.161857529 971.394048693 773.580928765 1024.69702435 c 128,-1,16
 702 1078 702 1078 605.5 1078 c 0,17,18
 428.7 1078 428.7 1078 342.35 954 c 128,-1,19
 256 830 256 830 256 629.5 c 128,-1,20
 256 429 256 429 346 300 c 0,21,22
 432.704918033 177 432.704918033 177 602 177 c 0,23,24
 731 177 731 177 816 265 c 0,25,26
 900 353 900 353 900 504 c 1,27,-1
 581 506 l 1,28,-1
 581 704 l 1,29,-1
 1085 704 l 1,30,-1
 1085 10 l 1,31,-1
 940 10 l 1,0,-1
EndSplineSet
EndChar

StartChar: H
Encoding: 43 72 43
Width: 977
GlyphClass: 2
Flags: W
LayerCount: 2
Back
Fore
SplineSet
730 0 m 1,0,-1
 730 543 l 1,1,-1
 256 543 l 1,2,-1
 256 0 l 1,3,-1
 59 0 l 1,4,-1
 59 1254 l 1,5,-1
 256 1254 l 1,6,-1
 256 741 l 1,7,-1
 730 741 l 1,8,-1
 730 1254 l 1,9,-1
 926 1254 l 1,10,-1
 926 0 l 1,11,-1
 730 0 l 1,0,-1
EndSplineSet
EndChar

StartChar: I
Encoding: 44 73 44
Width: 258
GlyphClass: 2
Flags: W
LayerCount: 2
Back
Fore
SplineSet
73 0 m 1,0,-1
 73 1254 l 1,1,-1
 201 1254 l 1,2,-1
 201 0 l 1,3,-1
 73 0 l 1,0,-1
EndSplineSet
EndChar

StartChar: J
Encoding: 45 74 45
Width: 737
GlyphClass: 2
Flags: W
LayerCount: 2
Back
Fore
SplineSet
691 341 m 2,0,1
 691 174.522727273 691 174.522727273 606 76 c 256,2,3
 521.450980392 -22 521.450980392 -22 376 -22 c 256,4,5
 232.086956522 -22 232.086956522 -22 146 68 c 1,6,7
 61 160.727272727 61 160.727272727 61 321 c 2,8,-1
 61 457 l 1,9,-1
 251 457 l 1,10,-1
 251 348 l 2,11,12
 251 252 251 252 283 214 c 128,-1,13
 315 176 315 176 359.5 176 c 128,-1,14
 404 176 404 176 426.5 186.5 c 128,-1,15
 449 197 449 197 465.5 222.5 c 0,16,17
 500 275.818181818 500 275.818181818 500 396 c 2,18,-1
 500 1254 l 1,19,-1
 691 1254 l 1,20,-1
 691 341 l 2,0,1
EndSplineSet
EndChar

StartChar: K
Encoding: 46 75 46
Width: 967
GlyphClass: 2
Flags: W
LayerCount: 2
Back
Fore
SplineSet
747 0 m 1,0,-1
 390 590 l 1,1,-1
 257 436 l 1,2,-1
 257 0 l 1,3,-1
 59 0 l 1,4,-1
 59 1254 l 1,5,-1
 257 1254 l 1,6,-1
 257 705 l 1,7,-1
 732 1254 l 1,8,-1
 988 1254 l 1,9,-1
 531 733 l 1,10,-1
 979 0 l 1,11,-1
 747 0 l 1,0,-1
EndSplineSet
EndChar

StartChar: L
Encoding: 47 76 47
Width: 803
GlyphClass: 2
Flags: W
LayerCount: 2
Back
Fore
SplineSet
59 0 m 1,0,-1
 59 1254 l 1,1,-1
 252 1254 l 1,2,-1
 252 198 l 1,3,-1
 759 198 l 1,4,-1
 759 0 l 1,5,-1
 59 0 l 1,0,-1
EndSplineSet
EndChar

StartChar: M
Encoding: 48 77 48
Width: 1187
GlyphClass: 2
Flags: W
LayerCount: 2
Back
Fore
SplineSet
937 0 m 1,0,-1
 937 808 l 1,1,-1
 696 0 l 1,2,-1
 504 0 l 1,3,-1
 262 809 l 1,4,-1
 262 0 l 1,5,-1
 60 0 l 1,6,-1
 69 1254 l 1,7,-1
 312 1254 l 1,8,-1
 601 296 l 1,9,-1
 885 1254 l 1,10,-1
 1138 1254 l 1,11,-1
 1138 0 l 1,12,-1
 937 0 l 1,0,-1
EndSplineSet
EndChar

StartChar: N
Encoding: 49 78 49
Width: 1008
GlyphClass: 2
Flags: W
LayerCount: 2
Back
Fore
SplineSet
750 0 m 1,0,-1
 259 878 l 1,1,-1
 259 0 l 1,2,-1
 61 0 l 1,3,-1
 61 1257 l 1,4,-1
 264 1257 l 1,5,-1
 762 374 l 1,6,-1
 762 1257 l 1,7,-1
 960 1257 l 1,8,-1
 960 0 l 1,9,-1
 750 0 l 1,0,-1
EndSplineSet
EndChar

StartChar: O
Encoding: 50 79 50
Width: 1193
GlyphClass: 2
Flags: W
LayerCount: 2
Back
Fore
SplineSet
999.5 159.546666667 m 128,-1,1
 851 -22 851 -22 603 -22 c 0,2,3
 351.425531915 -22 351.425531915 -22 205 164 c 0,4,5
 61 344.972972973 61 344.972972973 61 625 c 0,6,7
 61 902.611111111 61 902.611111111 203 1088 c 0,8,9
 350.221052632 1277 350.221052632 1277 605.610526316 1277 c 128,-1,10
 861 1277 861 1277 1006 1087 c 0,11,12
 1148 901.611111111 1148 901.611111111 1148 621.352222222 c 128,-1,0
 1148 341.093333333 1148 341.093333333 999.5 159.546666667 c 128,-1,1
947 625 m 256,13,14
 947 821 947 821 857 953 c 0,15,16
 771.682539683 1078 771.682539683 1078 607 1078 c 256,17,18
 444 1078 444 1078 354 954 c 0,19,20
 262 824 262 824 262 628.5 c 128,-1,21
 262 433 262 433 351 304 c 128,-1,22
 440 175 440 175 601 175 c 0,23,24
 764 175 764 175 854 299 c 0,25,26
 947 430.413043478 947 430.413043478 947 625 c 256,13,14
EndSplineSet
EndChar

StartChar: P
Encoding: 51 80 51
Width: 916
GlyphClass: 2
Flags: W
LayerCount: 2
Back
Fore
SplineSet
780.5 1156.5 m 128,-1,1
 868 1059 868 1059 868 883.727272727 c 128,-1,2
 868 708.454545455 868 708.454545455 783 608 c 0,3,4
 697.490566038 505 697.490566038 505 549 505 c 2,5,-1
 255 505 l 1,6,-1
 255 0 l 1,7,-1
 59 0 l 1,8,-1
 59 1254 l 1,9,-1
 519 1254 l 2,10,0
 693 1254 693 1254 780.5 1156.5 c 128,-1,1
672 899.095238095 m 0,11,12
 672 967.19047619 672 967.19047619 626 1011 c 0,13,14
 578.954545455 1056 578.954545455 1056 500 1056 c 2,15,-1
 255 1056 l 1,16,-1
 255 703 l 1,17,-1
 500 703 l 2,18,19
 577.80952381 703 577.80952381 703 624.904761905 745.909090909 c 128,-1,20
 672 788.818181818 672 788.818181818 672 899.095238095 c 0,11,12
EndSplineSet
EndChar

StartChar: Q
Encoding: 52 81 52
Width: 1181
GlyphClass: 2
Flags: W
LayerCount: 2
Back
Fore
SplineSet
1006 171 m 1,0,-1
 1144 45 l 1,1,-1
 1037 -99 l 1,2,-1
 875 48 l 1,3,4
 749 -24 749 -24 612 -24 c 0,5,6
 346.842105263 -24 346.842105263 -24 200 162 c 0,7,8
 57 344.722222222 57 344.722222222 57 624.861111111 c 128,-1,9
 57 905 57 905 202 1091 c 128,-1,10
 347 1277 347 1277 600.5 1277 c 128,-1,11
 854 1277 854 1277 1002 1089 c 0,12,13
 1147 904.273972603 1147 904.273972603 1147 632.636986301 c 128,-1,14
 1147 361 1147 361 1006 171 c 1,0,-1
857 306 m 1,15,16
 946 436.533333333 946 436.533333333 946 617 c 0,17,18
 946 821.555555556 946 821.555555556 855 953 c 0,19,20
 768.306451613 1078 768.306451613 1078 602 1078 c 0,21,22
 436.693548387 1078 436.693548387 1078 350 953 c 0,23,24
 258 820.111111111 258 820.111111111 258 625.555555556 c 128,-1,25
 258 431 258 431 346 299 c 0,26,27
 428.661290323 174 428.661290323 174 606 174 c 0,28,29
 662 174 662 174 717 197 c 1,30,-1
 623 278 l 1,31,-1
 729 422 l 1,32,-1
 857 306 l 1,15,16
EndSplineSet
EndChar

StartChar: R
Encoding: 53 82 53
Width: 993
GlyphClass: 2
Flags: W
LayerCount: 2
Back
Fore
SplineSet
905 327 m 0,0,1
 905 135 905 135 965 83 c 1,2,-1
 965 0 l 1,3,-1
 750 0 l 1,4,5
 711 106.826086957 711 106.826086957 711 345 c 0,6,7
 711 436 711 436 676 474.5 c 128,-1,8
 641 513 641 513 570 513 c 2,9,-1
 257 513 l 1,10,-1
 257 0 l 1,11,-1
 59 0 l 1,12,-1
 59 1254 l 1,13,-1
 574 1254 l 2,14,15
 745 1254 745 1254 834.5 1166 c 128,-1,16
 924 1078 924 1078 924 904 c 0,17,18
 924 788.88 924 788.88 884.5 726.44 c 128,-1,19
 845 664 845 664 787 621 c 1,20,21
 877 556 877 556 896.5 439 c 0,22,23
 905 388 905 388 905 327 c 0,0,1
549 1056 m 2,24,-1
 257 1056 l 1,25,-1
 257 711 l 1,26,-1
 549 711 l 2,27,28
 635 711 635 711 674.5 751.5 c 128,-1,29
 714 792 714 792 714 883 c 256,30,31
 714 974 714 974 674.5 1015 c 128,-1,32
 635 1056 635 1056 549 1056 c 2,24,-1
EndSplineSet
EndChar

StartChar: S
Encoding: 54 83 54
Width: 953
GlyphClass: 2
Flags: W
LayerCount: 2
Back
Fore
SplineSet
915 368 m 0,0,1
 915 170.955223881 915 170.955223881 785 72 c 0,2,3
 662.224489796 -22 662.224489796 -22 467 -22 c 0,4,5
 275.781818182 -22 275.781818182 -22 156 86 c 0,6,7
 34.6208053691 193.89261745 34.6208053691 193.89261745 27 453 c 1,8,-1
 220 453 l 1,9,10
 221.987325729 303.950570342 221.987325729 303.950570342 284 240 c 128,-1,11
 346.060606061 176 346.060606061 176 481 176 c 0,12,13
 667.253731343 176 667.253731343 176 705.5 278.5 c 0,14,15
 718 312 718 312 718 346 c 128,-1,16
 718 380 718 380 709 403.5 c 128,-1,17
 700 427 700 427 680 447.5 c 0,18,19
 638.493050475 490.044623263 638.493050475 490.044623263 548 517 c 2,20,-1
 289 594 l 1,21,22
 60 663.517857143 60 663.517857143 60 899 c 0,23,24
 60 1086.45901639 60 1086.45901639 179 1184 c 0,25,26
 291.375 1277 291.375 1277 469 1277 c 256,27,28
 646.551020408 1277 646.551020408 1277 759 1182 c 0,29,30
 818.892857143 1132.08928571 818.892857143 1132.08928571 840.946428571 1072.54464286 c 0,31,32
 876.993055556 975.21875 876.993055556 975.21875 881 849 c 1,33,-1
 691 849 l 1,34,35
 685.161681181 1029.98788338 685.161681181 1029.98788338 563 1065.5 c 0,36,37
 520 1078 520 1078 464 1078 c 0,38,39
 309.071428571 1078 309.071428571 1078 271 996 c 0,40,41
 258 968 258 968 258 922.5 c 0,42,43
 258 821.578313253 258 821.578313253 406 777 c 2,44,-1
 670 697 l 2,45,46
 915 622.082644628 915 622.082644628 915 368 c 0,0,1
EndSplineSet
EndChar

StartChar: T
Encoding: 55 84 55
Width: 933
GlyphClass: 2
Flags: W
LayerCount: 2
Back
Fore
SplineSet
571 1056 m 1,0,-1
 571 0 l 1,1,-1
 373 0 l 1,2,-1
 373 1056 l 1,3,-1
 30 1056 l 1,4,-1
 30 1254 l 1,5,-1
 915 1254 l 1,6,-1
 915 1056 l 1,7,-1
 571 1056 l 1,0,-1
EndSplineSet
EndChar

StartChar: U
Encoding: 56 85 56
Width: 973
GlyphClass: 2
Flags: W
LayerCount: 2
Back
Fore
SplineSet
924 398 m 2,0,1
 924 197.21875 924 197.21875 799.5 87.609375 c 128,-1,2
 675 -22 675 -22 488 -22 c 256,3,4
 301 -22 301 -22 181 83 c 0,5,6
 59 189.507936508 59 189.507936508 59 398 c 2,7,-1
 59 1254 l 1,8,-1
 256 1254 l 1,9,-1
 256 398 l 2,10,11
 256 285 256 285 312 230.5 c 128,-1,12
 368 176 368 176 491.5 176 c 128,-1,13
 615 176 615 176 671 230.5 c 128,-1,14
 727 285 727 285 727 398 c 2,15,-1
 727 1254 l 1,16,-1
 924 1254 l 1,17,-1
 924 398 l 2,0,1
EndSplineSet
EndChar

StartChar: V
Encoding: 57 86 57
Width: 998
GlyphClass: 2
Flags: W
LayerCount: 2
Back
Fore
SplineSet
606 0 m 1,0,-1
 414 0 l 1,1,-1
 16 1254 l 1,2,-1
 229 1254 l 1,3,-1
 512 327 l 1,4,-1
 780 1254 l 1,5,-1
 989 1254 l 1,6,-1
 606 0 l 1,0,-1
EndSplineSet
EndChar

StartChar: W
Encoding: 58 87 58
Width: 1447
GlyphClass: 2
Flags: W
LayerCount: 2
Back
Fore
SplineSet
1147 0 m 1,0,-1
 944 0 l 1,1,-1
 724 874 l 1,2,-1
 509 0 l 1,3,-1
 304 0 l 1,4,-1
 16 1254 l 1,5,-1
 237 1254 l 1,6,-1
 415 403 l 1,7,-1
 624 1254 l 1,8,-1
 823 1254 l 1,9,-1
 1039 402 l 1,10,-1
 1212 1254 l 1,11,-1
 1434 1254 l 1,12,-1
 1147 0 l 1,0,-1
EndSplineSet
EndChar

StartChar: X
Encoding: 59 88 59
Width: 1016
GlyphClass: 2
Flags: W
LayerCount: 2
Back
Fore
SplineSet
778 0 m 1,0,-1
 511 464 l 1,1,-1
 240 0 l 1,2,-1
 2 0 l 1,3,-1
 394 644 l 1,4,-1
 25 1254 l 1,5,-1
 264 1254 l 1,6,-1
 515 819 l 1,7,-1
 767 1254 l 1,8,-1
 1003 1254 l 1,9,-1
 630 644 l 1,10,-1
 1019 0 l 1,11,-1
 778 0 l 1,0,-1
EndSplineSet
EndChar

StartChar: Y
Encoding: 60 89 60
Width: 1052
GlyphClass: 2
Flags: W
LayerCount: 2
Back
Fore
SplineSet
629 491 m 1,0,-1
 629 0 l 1,1,-1
 430 0 l 1,2,-1
 430 491 l 1,3,-1
 2 1254 l 1,4,-1
 243 1254 l 1,5,-1
 532 712 l 1,6,-1
 813 1254 l 1,7,-1
 1046 1254 l 1,8,-1
 629 491 l 1,0,-1
EndSplineSet
EndChar

StartChar: Z
Encoding: 61 90 61
Width: 928
GlyphClass: 2
Flags: W
LayerCount: 2
Back
Fore
SplineSet
25 0 m 1,0,-1
 25 177 l 1,1,-1
 623 1056 l 1,2,-1
 65 1056 l 1,3,-1
 65 1254 l 1,4,-1
 879 1254 l 1,5,-1
 879 1073 l 1,6,-1
 284 198 l 1,7,-1
 883 198 l 1,8,-1
 883 0 l 1,9,-1
 25 0 l 1,0,-1
EndSplineSet
EndChar

StartChar: bracketleft
Encoding: 62 91 62
Width: 478
GlyphClass: 2
Flags: W
LayerCount: 2
Back
Fore
SplineSet
65 -342 m 1,0,-1
 65 1238 l 1,1,-1
 502 1238 l 1,2,-1
 502 1065 l 1,3,-1
 277 1065 l 1,4,-1
 277 -166 l 1,5,-1
 502 -166 l 1,6,-1
 502 -342 l 1,7,-1
 65 -342 l 1,0,-1
EndSplineSet
EndChar

StartChar: backslash
Encoding: 63 92 63
Width: 741
GlyphClass: 2
Flags: W
LayerCount: 2
Back
Fore
SplineSet
43 1230 m 1,0,-1
 241 1230 l 1,1,-1
 757 -204 l 1,2,-1
 564 -204 l 1,3,-1
 43 1230 l 1,0,-1
EndSplineSet
EndChar

StartChar: bracketright
Encoding: 64 93 64
Width: 464
GlyphClass: 2
Flags: W
LayerCount: 2
Back
Fore
SplineSet
28 -342 m 1,0,-1
 28 -166 l 1,1,-1
 253 -166 l 1,2,-1
 253 1065 l 1,3,-1
 28 1065 l 1,4,-1
 28 1238 l 1,5,-1
 465 1238 l 1,6,-1
 465 -342 l 1,7,-1
 28 -342 l 1,0,-1
EndSplineSet
EndChar

StartChar: asciicircum
Encoding: 65 94 65
Width: 798
GlyphClass: 2
Flags: W
LayerCount: 2
Back
Fore
SplineSet
623 600 m 1,0,-1
 445 946 l 1,1,-1
 266 600 l 1,2,-1
 56 600 l 1,3,-1
 421 1239 l 1,4,-1
 473 1239 l 1,5,-1
 832 600 l 1,6,-1
 623 600 l 1,0,-1
EndSplineSet
EndChar

StartChar: underscore
Encoding: 66 95 66
Width: 833
GlyphClass: 2
Flags: W
LayerCount: 2
Back
Fore
SplineSet
81 243 m 1,0,-1
 810 243 l 1,1,-1
 810 80 l 1,2,-1
 81 80 l 1,3,-1
 81 243 l 1,0,-1
EndSplineSet
EndChar

StartChar: grave
Encoding: 67 96 67
Width: 458
GlyphClass: 2
Flags: W
LayerCount: 2
Back
Fore
SplineSet
241 1238 m 1,0,-1
 464 942 l 1,1,-1
 332 942 l 1,2,-1
 36 1238 l 1,3,-1
 241 1238 l 1,0,-1
EndSplineSet
EndChar

StartChar: a
Encoding: 68 97 68
Width: 849
GlyphClass: 2
Flags: W
LayerCount: 2
Back
Fore
SplineSet
817 1 m 1,0,1
 735.615384615 -22 735.615384615 -22 702 -22 c 0,2,3
 598.739130435 -22 598.739130435 -22 560 77 c 1,4,5
 438.3125 -22 438.3125 -22 328 -22 c 0,6,7
 121.788461538 -22 121.788461538 -22 59.5 136 c 0,8,9
 39 188 39 188 39 252.5 c 0,10,11
 39 383.783783784 39 383.783783784 109 450 c 0,12,13
 176.897942041 514.018059639 176.897942041 514.018059639 333.948971021 540.509029819 c 128,-1,14
 491 567 491 567 508 573.5 c 128,-1,15
 525 580 525 580 528 583 c 128,-1,16
 531 586 531 586 534 593 c 0,17,18
 542 611.666666667 542 611.666666667 542 646 c 256,19,20
 542 692.4 542 692.4 521 709.2 c 0,21,22
 483.75 739 483.75 739 427.875 739 c 128,-1,23
 372 739 372 739 345 731 c 128,-1,24
 318 723 318 723 299 706 c 0,25,26
 263.251851852 674.014814815 263.251851852 674.014814815 253 592 c 1,27,-1
 72 592 l 1,28,29
 90.8636363636 924 90.8636363636 924 406 924 c 0,30,31
 637.795918367 924 637.795918367 924 702 781 c 0,32,33
 724 732 724 732 724 666 c 2,34,-1
 724 186 l 2,35,36
 724 166 724 166 731 159 c 128,-1,37
 738 152 738 152 758 152 c 2,38,-1
 817 152 l 1,39,-1
 817 1 l 1,0,1
542 411 m 1,40,41
 509 402 509 402 474 396 c 256,42,43
 393.775280899 382.247191011 393.775280899 382.247191011 355.387640449 372.623595506 c 128,-1,44
 317 363 317 363 293 351 c 128,-1,45
 269 339 269 339 254.5 325 c 0,46,47
 228 299.413793103 228 299.413793103 228 253.706896552 c 0,48,49
 228 158 228 158 346 158 c 0,50,51
 459.75 158 459.75 158 498 212 c 0,52,53
 542 271.84 542 271.84 542 309 c 2,54,-1
 542 411 l 1,40,41
EndSplineSet
EndChar

StartChar: b
Encoding: 69 98 69
Width: 840
GlyphClass: 2
Flags: W
LayerCount: 2
Back
Fore
SplineSet
243 860 m 1,0,1
 331.047619048 946 331.047619048 946 431.023809524 946 c 128,-1,2
 531 946 531 946 596 910.5 c 128,-1,3
 661 875 661 875 705 805 c 0,4,5
 790 669.772727273 790 669.772727273 790 472 c 0,6,7
 790 260.444444444 790 260.444444444 699 119.222222222 c 128,-1,8
 608 -22 608 -22 436 -22 c 0,9,10
 321 -22 321 -22 232 67 c 1,11,-1
 232 0 l 1,12,-1
 62 0 l 1,13,-1
 62 1254 l 1,14,-1
 243 1254 l 1,15,-1
 243 860 l 1,0,1
422.047619048 757 m 128,-1,17
 335 757 335 757 289 667.5 c 128,-1,18
 243 578 243 578 243 450 c 128,-1,19
 243 322 243 322 293 244.5 c 128,-1,20
 343 167 343 167 428 167 c 0,21,22
 512.146341463 167 512.146341463 167 558.073170732 250.5 c 128,-1,23
 604 334 604 334 604 458.5 c 128,-1,24
 604 583 604 583 556.547619048 670 c 128,-1,16
 509.095238095 757 509.095238095 757 422.047619048 757 c 128,-1,17
EndSplineSet
EndChar

StartChar: c
Encoding: 70 99 70
Width: 788
GlyphClass: 2
Flags: W
LayerCount: 2
Back
Fore
SplineSet
417 -22 m 0,0,1
 239 -22 239 -22 148 116.5 c 128,-1,2
 57 255 57 255 57 455.5 c 128,-1,3
 57 656 57 656 152 790 c 128,-1,4
 247 924 247 924 405.5 924 c 128,-1,5
 564 924 564 924 646 836 c 128,-1,6
 728 748 728 748 746 558 c 1,7,-1
 566 558 l 1,8,9
 552.206134969 660.468711656 552.206134969 660.468711656 525.103067485 691.234355828 c 0,10,11
 483.023809524 739 483.023809524 739 425.511904762 739 c 0,12,13
 324.5 739 324.5 739 286 662 c 0,14,15
 243 572 243 572 243 479 c 0,16,17
 243 328 243 328 289 238 c 0,18,19
 328.473684211 163 328.473684211 163 422 163 c 0,20,21
 513.519480519 163 513.519480519 163 552.5 266.5 c 0,22,23
 567 305 567 305 577 363 c 1,24,-1
 756 363 l 1,25,26
 738 173 738 173 651 75.5 c 128,-1,27
 564 -22 564 -22 417 -22 c 0,0,1
EndSplineSet
EndChar

StartChar: d
Encoding: 71 100 71
Width: 835
GlyphClass: 2
Flags: W
LayerCount: 2
Back
Fore
SplineSet
617 0 m 1,0,-1
 617 71 l 1,1,2
 524 -22 524 -22 404 -22 c 0,3,4
 230.8 -22 230.8 -22 142 126 c 0,5,6
 59 266.30952381 59 266.30952381 59 464 c 0,7,8
 59 663.772727273 59 663.772727273 144 799 c 1,9,10
 233.391891892 946 233.391891892 946 405 946 c 0,11,12
 520 946 520 946 604 867 c 1,13,-1
 604 1254 l 1,14,-1
 784 1254 l 1,15,-1
 784 0 l 1,16,-1
 617 0 l 1,0,-1
427.487804878 757 m 128,-1,18
 337 757 337 757 290.5 670 c 128,-1,19
 244 583 244 583 244 459.5 c 128,-1,20
 244 336 244 336 290.5 251.5 c 128,-1,21
 337 167 337 167 425.5 167 c 128,-1,22
 514 167 514 167 556 246 c 0,23,24
 604 339.913043478 604 339.913043478 604 462.456521739 c 128,-1,25
 604 585 604 585 560.987804878 671 c 128,-1,17
 517.975609756 757 517.975609756 757 427.487804878 757 c 128,-1,18
EndSplineSet
EndChar

StartChar: e
Encoding: 72 101 72
Width: 839
GlyphClass: 2
Flags: W
LayerCount: 2
Back
Fore
SplineSet
241 384 m 1,0,1
 250.50310559 292.770186335 250.50310559 292.770186335 281.751552795 244.885093168 c 128,-1,2
 313 197 313 197 346.5 180 c 128,-1,3
 380 163 380 163 419.5 163 c 128,-1,4
 459 163 459 163 484.5 171 c 128,-1,5
 510 179 510 179 531.5 198.5 c 0,6,7
 575.651525424 238.54440678 575.651525424 238.54440678 602 327 c 1,8,-1
 785 327 l 1,9,10
 748 143 748 143 658.5 60.5 c 128,-1,11
 569 -22 569 -22 425 -22 c 0,12,13
 239.628571429 -22 239.628571429 -22 145 116 c 0,14,15
 54 246.565217391 54 246.565217391 54 440.282608696 c 128,-1,16
 54 634 54 634 148 779 c 128,-1,17
 242 924 242 924 414.5 924 c 128,-1,18
 587 924 587 924 690 811 c 1,19,20
 789.116335434 696.634997576 789.116335434 696.634997576 793 384 c 1,21,-1
 241 384 l 1,0,1
596 554 m 1,22,23
 587 624 587 624 546.5 681.5 c 128,-1,24
 506 739 506 739 425.5 739 c 128,-1,25
 345 739 345 739 302.5 680.5 c 128,-1,26
 260 622 260 622 247 554 c 1,27,-1
 596 554 l 1,22,23
EndSplineSet
EndChar

StartChar: f
Encoding: 73 102 73
Width: 461
GlyphClass: 2
Flags: W
LayerCount: 2
Back
Fore
SplineSet
324 1254 m 0,0,1
 344.6 1254 344.6 1254 413 1245 c 1,2,-1
 413 1072 l 1,3,-1
 347 1072 l 2,4,5
 320 1072 320 1072 309.5 1060 c 128,-1,6
 299 1048 299 1048 299 1017 c 2,7,-1
 299 920 l 1,8,-1
 413 920 l 1,9,-1
 413 744 l 1,10,-1
 299 744 l 1,11,-1
 299 0 l 1,12,-1
 135 0 l 1,13,-1
 135 744 l 1,14,-1
 42 744 l 1,15,-1
 42 920 l 1,16,-1
 135 920 l 1,17,-1
 135 1028 l 2,18,19
 135 1137 135 1137 183 1195.5 c 128,-1,20
 231 1254 231 1254 324 1254 c 0,0,1
EndSplineSet
EndChar

StartChar: g
Encoding: 74 103 74
Width: 815
GlyphClass: 2
Flags: W
LayerCount: 2
Back
Fore
SplineSet
768 163 m 2,0,1
 768 -236.297297297 768 -236.297297297 582 -320.5 c 0,2,3
 508 -354 508 -354 422 -354 c 128,-1,4
 336 -354 336 -354 279.5 -336 c 128,-1,5
 223 -318 223 -318 181 -279.5 c 0,6,7
 96.6746203905 -202.201735358 96.6746203905 -202.201735358 77 -33 c 1,8,-1
 257 -33 l 1,9,10
 269.063583815 -105.38150289 269.063583815 -105.38150289 293.531791908 -127.690751445 c 0,11,12
 333.35483871 -164 333.35483871 -164 385.177419355 -164 c 128,-1,13
 437 -164 437 -164 463.5 -159.5 c 128,-1,14
 490 -155 490 -155 508 -146.5 c 0,15,16
 540.213256484 -131.288184438 540.213256484 -131.288184438 555.606628242 -94.144092219 c 128,-1,17
 571 -57 571 -57 579 31 c 1,18,19
 498 -44 498 -44 392 -44 c 0,20,21
 227 -44 227 -44 142 101 c 128,-1,22
 57 246 57 246 57 445 c 0,23,24
 57 647 57 647 149.5 785.5 c 128,-1,25
 242 924 242 924 400 924 c 0,26,27
 510 924 510 924 596 835 c 1,28,-1
 596 903 l 1,29,-1
 768 903 l 1,30,-1
 768 163 l 2,0,1
584 434 m 0,31,32
 584 735 584 735 416 735 c 0,33,34
 325.5 735 325.5 735 286 656 c 0,35,36
 240 562 240 562 240 440 c 256,37,38
 240 318 240 318 286 224 c 0,39,40
 325.5 145 325.5 145 415 145 c 256,41,42
 505 145 505 145 544.5 226.5 c 128,-1,43
 584 308 584 308 584 434 c 0,31,32
EndSplineSet
EndChar

StartChar: h
Encoding: 75 104 75
Width: 751
GlyphClass: 2
Flags: W
LayerCount: 2
Back
Fore
SplineSet
234 856 m 1,0,1
 326.045454545 946 326.045454545 946 439 946 c 0,2,3
 554.342857143 946 554.342857143 946 626 880 c 0,4,5
 701 812.692307692 701 812.692307692 701 683 c 2,6,-1
 701 0 l 1,7,-1
 524 0 l 1,8,-1
 524 628 l 2,9,10
 524 694 524 694 491.5 728 c 128,-1,11
 459 762 459 762 409.5 762 c 0,12,13
 320 762 320 762 277 690.5 c 128,-1,14
 234 619 234 619 234 507 c 2,15,-1
 234 0 l 1,16,-1
 57 0 l 1,17,-1
 57 1254 l 1,18,-1
 234 1254 l 1,19,-1
 234 856 l 1,0,1
EndSplineSet
EndChar

StartChar: i
Encoding: 76 105 76
Width: 219
GlyphClass: 2
Flags: W
LayerCount: 2
Back
Fore
SplineSet
55 1020 m 1,0,-1
 55 1254 l 1,1,-1
 169 1254 l 1,2,-1
 169 1020 l 1,3,-1
 55 1020 l 1,0,-1
56 0 m 1,4,-1
 56 922 l 1,5,-1
 169 922 l 1,6,-1
 169 0 l 1,7,-1
 56 0 l 1,4,-1
EndSplineSet
EndChar

StartChar: j
Encoding: 77 106 77
Width: 287
GlyphClass: 2
Flags: W
LayerCount: 2
Back
Fore
SplineSet
88 1016 m 1,0,-1
 88 1254 l 1,1,-1
 238 1254 l 1,2,-1
 238 1016 l 1,3,-1
 88 1016 l 1,0,-1
50 -354 m 0,4,5
 24.125 -354 24.125 -354 -23 -341 c 1,6,-1
 -23 -166 l 1,7,-1
 27 -166 l 2,8,9
 61 -166 61 -166 74.5 -149 c 128,-1,10
 88 -132 88 -132 88 -88 c 2,11,-1
 88 917 l 1,12,-1
 238 917 l 1,13,-1
 238 -140 l 2,14,15
 238 -249 238 -249 188 -301.5 c 128,-1,16
 138 -354 138 -354 50 -354 c 0,4,5
EndSplineSet
EndChar

StartChar: k
Encoding: 78 107 78
Width: 758
GlyphClass: 2
Flags: W
LayerCount: 2
Back
Fore
SplineSet
549 0 m 1,0,-1
 312 442 l 1,1,-1
 235 355 l 1,2,-1
 235 0 l 1,3,-1
 57 0 l 1,4,-1
 57 1254 l 1,5,-1
 235 1254 l 1,6,-1
 235 610 l 1,7,-1
 504 922 l 1,8,-1
 737 922 l 1,9,-1
 449 590 l 1,10,-1
 764 0 l 1,11,-1
 549 0 l 1,0,-1
EndSplineSet
EndChar

StartChar: l
Encoding: 79 108 79
Width: 217
GlyphClass: 2
Flags: W
LayerCount: 2
Back
Fore
SplineSet
59 0 m 1,0,-1
 59 1254 l 1,1,-1
 171 1254 l 1,2,-1
 171 0 l 1,3,-1
 59 0 l 1,0,-1
EndSplineSet
EndChar

StartChar: m
Encoding: 80 109 80
Width: 1178
GlyphClass: 2
Flags: W
LayerCount: 2
Back
Fore
SplineSet
876 924 m 0,0,1
 1128 924 1128 924 1128 660 c 2,2,-1
 1128 0 l 1,3,-1
 942 0 l 1,4,-1
 942 609 l 2,5,6
 942 685 942 685 915 714.5 c 128,-1,7
 888 744 888 744 829.5 744 c 128,-1,8
 771 744 771 744 728.5 689.5 c 128,-1,9
 686 635 686 635 686 556 c 2,10,-1
 686 0 l 1,11,-1
 500 0 l 1,12,-1
 500 609 l 2,13,14
 500 685 500 685 472.5 714.5 c 128,-1,15
 445 744 445 744 403 744 c 0,16,17
 330.642857143 744 330.642857143 744 287.821428571 689.5 c 128,-1,18
 245 635 245 635 245 556 c 2,19,-1
 245 0 l 1,20,-1
 59 0 l 1,21,-1
 59 904 l 1,22,-1
 235 904 l 1,23,-1
 235 836 l 1,24,25
 327.093023256 924 327.093023256 924 449.046511628 924 c 128,-1,26
 571 924 571 924 647 819 c 1,27,28
 747.882352941 924 747.882352941 924 876 924 c 0,0,1
EndSplineSet
EndChar

StartChar: n
Encoding: 81 110 81
Width: 751
GlyphClass: 2
Flags: W
LayerCount: 2
Back
Fore
SplineSet
226 821 m 1,0,1
 316.882352941 924 316.882352941 924 434.441176471 924 c 128,-1,2
 552 924 552 924 624 859 c 0,3,4
 700 790.794871795 700 790.794871795 700 664 c 2,5,-1
 700 0 l 1,6,-1
 523 0 l 1,7,-1
 523 612 l 2,8,9
 523 678 523 678 490.5 711 c 128,-1,10
 458 744 458 744 408.5 744 c 0,11,12
 321.25 744 321.25 744 280 678 c 0,13,14
 235 602.318181818 235 602.318181818 235 495 c 2,15,-1
 235 0 l 1,16,-1
 57 0 l 1,17,-1
 57 904 l 1,18,-1
 226 904 l 1,19,-1
 226 821 l 1,0,1
EndSplineSet
EndChar

StartChar: o
Encoding: 82 111 82
Width: 837
GlyphClass: 2
Flags: W
LayerCount: 2
Back
Fore
SplineSet
54 448.533333333 m 128,-1,1
 54 653 54 653 141 786 c 1,2,3
 235.628571429 924 235.628571429 924 420 924 c 256,4,5
 604.985915493 924 604.985915493 924 697 785 c 0,6,7
 784 655.466666667 784 655.466666667 784 448.766666667 c 128,-1,8
 784 242.066666667 784 242.066666667 693.043478261 110.033333333 c 128,-1,9
 602.086956522 -22 602.086956522 -22 419.695652174 -22 c 128,-1,10
 237.304347826 -22 237.304347826 -22 145.652173913 111.033333333 c 128,-1,0
 54 244.066666667 54 244.066666667 54 448.533333333 c 128,-1,1
419 739 m 256,11,12
 239 739 239 739 239 452 c 0,13,14
 239 225.272727273 239 225.272727273 343 178 c 0,15,16
 376 163 376 163 418 163 c 128,-1,17
 460 163 460 163 494 178 c 128,-1,18
 528 193 528 193 551.5 226.5 c 0,19,20
 600 295.638297872 600 295.638297872 600 447 c 0,21,22
 600 674.686567164 600 674.686567164 494.5 723.5 c 0,23,24
 461 739 461 739 419 739 c 256,11,12
EndSplineSet
EndChar

StartChar: p
Encoding: 83 112 83
Width: 827
GlyphClass: 2
Flags: W
LayerCount: 2
Back
Fore
SplineSet
229 830 m 1,0,1
 320.956521739 924 320.956521739 924 440 924 c 0,2,3
 614 924 614 924 697.5 780.5 c 128,-1,4
 781 637 781 637 781 440 c 256,5,6
 781 243 781 243 698 103 c 0,7,8
 611.189189189 -43 611.189189189 -43 445 -43 c 0,9,10
 332 -43 332 -43 240 35 c 1,11,-1
 240 -354 l 1,12,-1
 59 -354 l 1,13,-1
 59 903 l 1,14,-1
 229 903 l 1,15,-1
 229 830 l 1,0,1
417.25 735 m 128,-1,17
 327 735 327 735 287 655 c 0,18,19
 240 558.956521739 240 558.956521739 240 423 c 0,20,21
 240 291.153846154 240 291.153846154 295 215 c 0,22,23
 344.736842105 145 344.736842105 145 423.368421053 145 c 128,-1,24
 502 145 502 145 549 231.5 c 128,-1,25
 596 318 596 318 596 439.5 c 128,-1,26
 596 561 596 561 551.75 648 c 128,-1,16
 507.5 735 507.5 735 417.25 735 c 128,-1,17
EndSplineSet
EndChar

StartChar: q
Encoding: 84 113 84
Width: 829
GlyphClass: 2
Flags: W
LayerCount: 2
Back
Fore
SplineSet
600 -354 m 1,0,-1
 600 38 l 1,1,2
 513 -43 513 -43 412.5 -43 c 128,-1,3
 312 -43 312 -43 247.5 -8.5 c 128,-1,4
 183 26 183 26 139 96 c 0,5,6
 55 229.636363636 55 229.636363636 55 444 c 256,7,8
 55 657.734693878 55 657.734693878 153 790.867346939 c 128,-1,9
 251 924 251 924 413 924 c 0,10,11
 525 924 525 924 614 840 c 1,12,-1
 614 903 l 1,13,-1
 781 903 l 1,14,-1
 781 -354 l 1,15,-1
 600 -354 l 1,0,-1
550 658.44 m 128,-1,17
 500 735 500 735 418 735 c 0,18,19
 334.395348837 735 334.395348837 735 286.697674419 647.5 c 128,-1,20
 239 560 239 560 239 438 c 128,-1,21
 239 316 239 316 286 230.5 c 128,-1,22
 333 145 333 145 424 145 c 0,23,24
 514 145 514 145 553 223 c 0,25,26
 600 314.956521739 600 314.956521739 600 448.41826087 c 128,-1,16
 600 581.88 600 581.88 550 658.44 c 128,-1,17
EndSplineSet
EndChar

StartChar: r
Encoding: 85 114 85
Width: 489
GlyphClass: 2
Flags: W
LayerCount: 2
Back
Fore
SplineSet
375 924 m 0,0,1
 395.6 924 395.6 924 446 917 c 1,2,-1
 446 741 l 1,3,4
 314.186440678 735.86440678 314.186440678 735.86440678 271 668 c 0,5,6
 222 593.434782609 222 593.434782609 222 468 c 2,7,-1
 222 0 l 1,8,-1
 57 0 l 1,9,-1
 57 908 l 1,10,-1
 214 908 l 1,11,-1
 214 825 l 1,12,13
 287.723404255 924 287.723404255 924 375 924 c 0,0,1
EndSplineSet
EndChar

StartChar: s
Encoding: 86 115 86
Width: 751
GlyphClass: 2
Flags: W
LayerCount: 2
Back
Fore
SplineSet
381 -22 m 0,0,1
 58.25 -22 58.25 -22 47 323 c 1,2,-1
 228 323 l 1,3,4
 244.920353982 196.097345133 244.920353982 196.097345133 324.5 171.5 c 0,5,6
 352 163 352 163 390 163 c 128,-1,7
 428 163 428 163 453.5 169.5 c 128,-1,8
 479 176 479 176 494.5 188.5 c 0,9,10
 522 210.677419355 522 210.677419355 522 259 c 0,11,12
 522 319.352941176 522 319.352941176 411 352 c 2,13,-1
 251 399 l 1,14,15
 67 451.571428571 67 451.571428571 67 647 c 0,16,17
 67 855.388888889 67 855.388888889 260 909 c 0,18,19
 314 924 314 924 381 924 c 128,-1,20
 448 924 448 924 503 906.5 c 128,-1,21
 558 889 558 889 596 850.5 c 0,22,23
 674.110433387 771.361797753 674.110433387 771.361797753 678 608 c 1,24,-1
 494 608 l 1,25,26
 487.854103343 681.750759878 487.854103343 681.750759878 466.927051672 703.375379939 c 0,27,28
 432.451612903 739 432.451612903 739 382.725806452 739 c 128,-1,29
 333 739 333 739 311 733 c 128,-1,30
 289 727 289 727 275.5 715.5 c 0,31,32
 251 694.62962963 251 694.62962963 251 649 c 0,33,34
 251 596.853658537 251 596.853658537 383 555 c 2,35,-1
 514 514 l 2,36,37
 707 454.457446809 707 454.457446809 707 262 c 0,38,39
 707 118 707 118 621 48 c 128,-1,40
 535 -22 535 -22 381 -22 c 0,0,1
EndSplineSet
EndChar

StartChar: t
Encoding: 87 116 87
Width: 459
GlyphClass: 2
Flags: W
LayerCount: 2
Back
Fore
SplineSet
409 -8 m 1,0,1
 323.25 -22 323.25 -22 291 -22 c 0,2,3
 218 -22 218 -22 175 18.5 c 128,-1,4
 132 59 132 59 132 142 c 2,5,-1
 132 745 l 1,6,-1
 37 745 l 1,7,-1
 37 920 l 1,8,-1
 132 920 l 1,9,-1
 132 1154 l 1,10,-1
 295 1154 l 1,11,-1
 295 920 l 1,12,-1
 409 920 l 1,13,-1
 409 745 l 1,14,-1
 295 745 l 1,15,-1
 295 202 l 2,16,17
 295 176 295 176 302 168.5 c 128,-1,18
 309 161 309 161 321.5 161 c 2,19,-1
 340.5 161 l 2,20,21
 361.5 161 361.5 161 409 166 c 1,22,-1
 409 -8 l 1,0,1
EndSplineSet
EndChar

StartChar: u
Encoding: 88 117 88
Width: 752
GlyphClass: 2
Flags: W
LayerCount: 2
Back
Fore
SplineSet
537 75 m 1,0,1
 442.020833333 -22 442.020833333 -22 326.010416667 -22 c 128,-1,2
 210 -22 210 -22 135 41 c 0,3,4
 57 107.585365854 57 107.585365854 57 233 c 2,5,-1
 57 902 l 1,6,-1
 234 902 l 1,7,-1
 234 285 l 2,8,9
 234 222 234 222 267.5 188 c 128,-1,10
 301 154 301 154 368.5 154 c 128,-1,11
 436 154 436 154 481 225.5 c 128,-1,12
 526 297 526 297 526 402 c 2,13,-1
 526 902 l 1,14,-1
 703 902 l 1,15,-1
 703 -1 l 1,16,-1
 537 -1 l 1,17,-1
 537 75 l 1,0,1
EndSplineSet
EndChar

StartChar: v
Encoding: 89 118 89
Width: 784
GlyphClass: 2
Flags: W
LayerCount: 2
Back
Fore
SplineSet
476 0 m 1,0,-1
 302 0 l 1,1,-1
 22 902 l 1,2,-1
 220 902 l 1,3,-1
 396 300 l 1,4,-1
 582 902 l 1,5,-1
 780 902 l 1,6,-1
 476 0 l 1,0,-1
EndSplineSet
EndChar

StartChar: w
Encoding: 90 119 90
Width: 1124
GlyphClass: 2
Flags: W
LayerCount: 2
Back
Fore
SplineSet
875 0 m 1,0,-1
 686 0 l 1,1,-1
 559 545 l 1,2,-1
 437 0 l 1,3,-1
 249 0 l 1,4,-1
 13 902 l 1,5,-1
 213 902 l 1,6,-1
 342 363 l 1,7,-1
 462 902 l 1,8,-1
 662 902 l 1,9,-1
 787 363 l 1,10,-1
 911 902 l 1,11,-1
 1116 902 l 1,12,-1
 875 0 l 1,0,-1
EndSplineSet
EndChar

StartChar: x
Encoding: 91 120 91
Width: 756
GlyphClass: 2
Flags: W
LayerCount: 2
Back
Fore
SplineSet
543 0 m 1,0,-1
 376 292 l 1,1,-1
 207 0 l 1,2,-1
 0 0 l 1,3,-1
 279 460 l 1,4,-1
 16 902 l 1,5,-1
 220 902 l 1,6,-1
 380 629 l 1,7,-1
 541 902 l 1,8,-1
 743 902 l 1,9,-1
 478 466 l 1,10,-1
 749 0 l 1,11,-1
 543 0 l 1,0,-1
EndSplineSet
EndChar

StartChar: y
Encoding: 92 121 92
Width: 758
GlyphClass: 2
Flags: W
LayerCount: 2
Back
Fore
SplineSet
77 -140 m 1,0,1
 152 -155 152 -155 173 -155 c 0,2,3
 218.361111111 -155 218.361111111 -155 237 -94 c 2,4,-1
 278 42 l 1,5,-1
 19 902 l 1,6,-1
 210 902 l 1,7,-1
 376 338 l 1,8,-1
 556 902 l 1,9,-1
 750 902 l 1,10,-1
 408 -155 l 2,11,12
 343.806451613 -354 343.806451613 -354 188 -354 c 0,13,14
 141.75 -354 141.75 -354 77 -319 c 1,15,-1
 77 -140 l 1,0,1
EndSplineSet
EndChar

StartChar: z
Encoding: 93 122 93
Width: 751
GlyphClass: 2
Flags: W
LayerCount: 2
Back
Fore
SplineSet
52 0 m 1,0,-1
 52 163 l 1,1,-1
 455 722 l 1,2,-1
 82 722 l 1,3,-1
 82 902 l 1,4,-1
 690 902 l 1,5,-1
 690 743 l 1,6,-1
 284 180 l 1,7,-1
 710 180 l 1,8,-1
 710 0 l 1,9,-1
 52 0 l 1,0,-1
EndSplineSet
EndChar

StartChar: braceleft
Encoding: 94 123 94
Width: 411
GlyphClass: 2
Flags: W
LayerCount: 2
Back
Fore
SplineSet
330 -115 m 2,0,1
 330 -207.1875 330 -207.1875 415 -340 c 1,2,-1
 403 -340 l 2,3,4
 209.916666667 -340 209.916666667 -340 152.5 -234 c 0,5,6
 133 -198 133 -198 133 -150 c 2,7,-1
 133 249 l 2,8,9
 133 347.827586207 133 347.827586207 100.5 400.5 c 0,10,11
 86 424 86 424 61 446 c 1,12,13
 109.632955536 492.831734961 109.632955536 492.831734961 119.816477768 535.91586748 c 0,14,15
 133 591.692307692 133 591.692307692 133 667 c 2,16,-1
 133 1082 l 2,17,18
 133 1156.98591549 133 1156.98591549 206.5 1201.5 c 0,19,20
 281.586964222 1246.97520368 281.586964222 1246.97520368 408 1245 c 1,21,-1
 414 1245 l 1,22,23
 402 1229 402 1229 387.5 1210.5 c 128,-1,24
 373 1192 373 1192 360.5 1170 c 0,25,26
 330 1116.32 330 1116.32 330 1063 c 2,27,-1
 330 562 l 2,28,29
 330 509.214285714 330 509.214285714 318.5 493.607142857 c 128,-1,30
 307 478 307 478 298.5 470 c 128,-1,31
 290 462 290 462 281 446 c 1,32,33
 290 431 290 431 298.5 424 c 128,-1,34
 307 417 307 417 314 409 c 0,35,36
 330 390.714285714 330 390.714285714 330 342 c 2,37,-1
 330 -115 l 2,0,1
EndSplineSet
EndChar

StartChar: bar
Encoding: 95 124 95
Width: 290
GlyphClass: 2
Flags: W
LayerCount: 2
Back
Fore
SplineSet
271 1238 m 1,0,-1
 263 4 l 1,1,-1
 80 4 l 1,2,-1
 86 1238 l 1,3,-1
 271 1238 l 1,0,-1
EndSplineSet
EndChar

StartChar: braceright
Encoding: 96 125 96
Width: 411
GlyphClass: 2
Flags: W
LayerCount: 2
Back
Fore
SplineSet
45 -340 m 1,0,1
 130 -207.1875 130 -207.1875 130 -115 c 2,2,-1
 130 342 l 2,3,4
 130 390.714285714 130 390.714285714 141.5 403.857142857 c 128,-1,5
 153 417 153 417 161.5 424 c 128,-1,6
 170 431 170 431 179 446 c 1,7,8
 170 462 170 462 161.5 470 c 128,-1,9
 153 478 153 478 146 487.5 c 0,10,11
 130 509.214285714 130 509.214285714 130 562 c 2,12,-1
 130 1063 l 2,13,14
 130 1137.13793103 130 1137.13793103 72.5 1210.5 c 0,15,16
 58 1229 58 1229 46 1245 c 1,17,-1
 52 1245 l 1,18,19
 246.613901573 1248.04084221 246.613901573 1248.04084221 308 1149.5 c 0,20,21
 327 1119 327 1119 327 1082 c 2,22,-1
 327 667 l 2,23,24
 327 552.689655172 327 552.689655172 349.5 512.344827586 c 128,-1,25
 372 472 372 472 399 446 c 1,26,27
 352.98089172 405.503184713 352.98089172 405.503184713 341.99044586 366.251592357 c 0,28,29
 327 312.714285714 327 312.714285714 327 249 c 2,30,-1
 327 -150 l 2,31,32
 327 -291.212121212 327 -291.212121212 166.5 -328.5 c 0,33,34
 117 -340 117 -340 57 -340 c 2,35,-1
 45 -340 l 1,0,1
EndSplineSet
EndChar

StartChar: asciitilde
Encoding: 97 126 97
Width: 1077
GlyphClass: 2
Flags: W
LayerCount: 2
Back
Fore
SplineSet
614.625 388.5 m 128,-1,1
 505 418 505 418 446.5 431 c 128,-1,2
 388 444 388 444 327 444 c 0,3,4
 302.8 444 302.8 444 274 390 c 0,5,6
 266 375 266 375 256 361 c 1,7,-1
 39 361 l 1,8,9
 86.4759284732 482.327372765 86.4759284732 482.327372765 121.737964237 524.163686382 c 0,10,11
 193.242857143 609 193.242857143 609 301 609 c 0,12,13
 389.882352941 609 389.882352941 609 501.941176471 578.5 c 128,-1,14
 614 548 614 548 674 534.5 c 128,-1,15
 734 521 734 521 797 521 c 0,16,17
 816 521 816 521 829 541 c 128,-1,18
 842 561 842 561 850 576.5 c 128,-1,19
 858 592 858 592 868 607 c 1,20,-1
 1099 607 l 1,21,22
 1043.56232687 482.925207756 1043.56232687 482.925207756 1007.28116343 441.962603878 c 0,23,24
 933.8 359 933.8 359 829.025 359 c 128,-1,0
 724.25 359 724.25 359 614.625 388.5 c 128,-1,1
EndSplineSet
EndChar

StartChar: uni0D02
Encoding: 98 3330 99
Width: 581
Flags: W
LayerCount: 2
Back
Fore
SplineSet
445.5 7.5 m 0,0,1
 396 -20 396 -20 322.5 -20 c 128,-1,2
 249 -20 249 -20 198.5 8 c 128,-1,3
 148 36 148 36 117 82.5 c 0,4,5
 59 169.5 59 169.5 59 312 c 256,6,7
 59 537.72 59 537.72 197 615 c 0,8,9
 247 643 247 643 320 643 c 256,10,11
 455.8 643 455.8 643 524 538.5 c 0,12,13
 582 449.629032258 582 449.629032258 582 307 c 0,14,15
 582 83.3333333333 582 83.3333333333 445.5 7.5 c 0,0,1
234 303 m 256,16,17
 234 139 234 139 319 139 c 256,18,19
 405 139 405 139 405 307 c 256,20,21
 405 417.6875 405 417.6875 362 458 c 0,22,23
 346 473 346 473 321 473 c 128,-1,24
 296 473 296 473 279.5 457.5 c 128,-1,25
 263 442 263 442 252.5 418 c 0,26,27
 234 375.714285714 234 375.714285714 234 303 c 256,16,17
EndSplineSet
EndChar

StartChar: uni0D03
Encoding: 99 3331 100
Width: 384
Flags: W
LayerCount: 2
Back
Fore
SplineSet
60 663 m 256,0,1
 60 859 60 859 215 859 c 256,2,3
 374 859 374 859 374 664 c 256,4,5
 374 530.14516129 374 530.14516129 292 486.5 c 0,6,7
 261 470 261 470 215 470 c 0,8,9
 60 470 60 470 60 663 c 256,0,1
60 193 m 256,10,11
 60 389 60 389 215 389 c 256,12,13
 374 389 374 389 374 193 c 256,14,15
 374 60.1451612903 374 60.1451612903 292 16.5 c 0,16,17
 261 0 261 0 215 0 c 0,18,19
 60 0 60 0 60 193 c 256,10,11
216 753 m 256,20,21
 171 753 171 753 171 664.5 c 128,-1,22
 171 576 171 576 218 576 c 256,23,24
 266 576 266 576 266 664 c 256,25,26
 266 719.75 266 719.75 248.5 736.375 c 128,-1,27
 231 753 231 753 216 753 c 256,20,21
216 283 m 256,28,29
 171 283 171 283 171 194.5 c 128,-1,30
 171 106 171 106 218 106 c 256,31,32
 266 106 266 106 266 194 c 256,33,34
 266 249.75 266 249.75 248.5 266.375 c 128,-1,35
 231 283 231 283 216 283 c 256,28,29
EndSplineSet
EndChar

StartChar: uni0D05
Encoding: 100 3333 101
Width: 1736
Flags: W
LayerCount: 2
Back
Fore
SplineSet
1065 829 m 1,0,1
 1178.625 930 1178.625 930 1333 930 c 0,2,3
 1530.34848485 930 1530.34848485 930 1638 785 c 0,4,5
 1734 655.693877551 1734 655.693877551 1734 452 c 0,6,7
 1734 94.1463414634 1734 94.1463414634 1580 4 c 0,8,9
 1539 -20 1539 -20 1475.5 -20 c 128,-1,10
 1412 -20 1412 -20 1361 11 c 128,-1,11
 1310 42 1310 42 1276.5 91 c 0,12,13
 1211 186.805970149 1211 186.805970149 1211 322 c 0,14,15
 1211 550.222222222 1211 550.222222222 1326 632 c 0,16,17
 1371 664 1371 664 1418 664 c 0,18,19
 1498 664 1498 664 1528 634 c 1,20,21
 1490.1875 744 1490.1875 744 1331 744 c 0,22,23
 1189.68656716 744 1189.68656716 744 1145.5 648.5 c 0,24,25
 1130 615 1130 615 1130 569 c 2,26,-1
 1130 0 l 1,27,-1
 946 0 l 1,28,-1
 946 612 l 1,29,30
 951.406099518 722.825040128 951.406099518 722.825040128 849.5 750 c 0,31,32
 827 756 827 756 796 756 c 1,33,34
 876 673.837837838 876 673.837837838 876 570.23599209 c 128,-1,35
 876 466.634146341 876 466.634146341 803 415 c 1,36,37
 894 367.68 894 367.68 894 246 c 0,38,39
 894 132.984615385 894 132.984615385 825.5 55 c 0,40,41
 755.22972973 -25 755.22972973 -25 656.614864865 -25 c 128,-1,42
 558 -25 558 -25 500 16.5 c 128,-1,43
 442 58 442 58 407.5 122.5 c 0,44,45
 345 239.347826087 345 239.347826087 345 413 c 0,46,47
 345 549.857142857 345 549.857142857 420 694.5 c 0,48,49
 441 735 441 735 464 759 c 1,50,-1
 450 760 l 2,51,52
 443 760 443 760 421.5 760 c 128,-1,53
 400 760 400 760 372 744.5 c 128,-1,54
 344 729 344 729 322 703 c 128,-1,55
 300 677 300 677 284.5 644 c 128,-1,56
 269 611 269 611 259 575.5 c 0,57,58
 240 508.05 240 508.05 240 443 c 0,59,60
 240 176.696969697 240 176.696969697 359 0 c 1,61,-1
 155 0 l 1,62,63
 56 225.97826087 56 225.97826087 56 443 c 0,64,65
 56 726.444444444 56 726.444444444 207.5 855.5 c 0,66,67
 293.782608696 929 293.782608696 929 406.235054348 929 c 128,-1,68
 518.6875 929 518.6875 929 634 888 c 1,69,70
 803.042264444 970.642884839 803.042264444 970.642884839 971 897.5 c 0,71,72
 1031.83699871 871.006468305 1031.83699871 871.006468305 1065 829 c 1,0,1
1541 321 m 256,73,74
 1541 413.032258065 1541 413.032258065 1498.5 466.5 c 0,75,76
 1483 486 1483 486 1460.5 486 c 128,-1,77
 1438 486 1438 486 1424 466.5 c 128,-1,78
 1410 447 1410 447 1402 420 c 0,79,80
 1388 372.75 1388 372.75 1388 321 c 256,81,82
 1388 225.642857143 1388 225.642857143 1424 175.5 c 0,83,84
 1438 156 1438 156 1460.5 156 c 128,-1,85
 1483 156 1483 156 1498.5 175.5 c 128,-1,86
 1514 195 1514 195 1523.5 221.5 c 0,87,88
 1541 270.315789474 1541 270.315789474 1541 321 c 256,73,74
656 492 m 2,89,90
 712 492 712 492 712 571 c 0,91,92
 712 662.151515152 712 662.151515152 648 699 c 1,93,94
 519 616.071428571 519 616.071428571 519 413 c 0,95,96
 519 333.857142857 519 333.857142857 539 272.428571429 c 128,-1,97
 559 211 559 211 583.5 179.5 c 128,-1,98
 608 148 608 148 634.5 148 c 128,-1,99
 661 148 661 148 674.5 158 c 128,-1,100
 688 168 688 168 698.5 183.5 c 0,101,102
 721 216.714285714 721 216.714285714 721 251 c 0,103,104
 721 331 721 331 657 331 c 2,105,-1
 614 331 l 1,106,-1
 614 492 l 1,107,-1
 656 492 l 2,89,90
EndSplineSet
EndChar

StartChar: uni0D06
Encoding: 101 3334 102
Width: 2030
Flags: W
LayerCount: 2
Back
Fore
SplineSet
1065 829 m 1,0,1
 1181.60377358 932 1181.60377358 932 1334 932 c 0,2,3
 1459.61428571 932 1459.61428571 932 1563.5 860 c 0,4,5
 1672.489956 784.462406734 1672.489956 784.462406734 1715 655 c 1,6,7
 1864.6764319 622.37821356 1864.6764319 622.37821356 1947.5 489 c 0,8,9
 2024 365.805194805 2024 365.805194805 2024 196 c 0,10,11
 2024 -33 2024 -33 1896 -199 c 0,12,13
 1752.57831325 -385 1752.57831325 -385 1519 -385 c 0,14,15
 1401.84 -385 1401.84 -385 1281 -332 c 1,16,-1
 1281 -121 l 1,17,18
 1393.16216216 -204 1393.16216216 -204 1495.08108108 -204 c 128,-1,19
 1597 -204 1597 -204 1659 -165.5 c 128,-1,20
 1721 -127 1721 -127 1761.5 -67 c 0,21,22
 1840 49.2962962963 1840 49.2962962963 1840 212 c 0,23,24
 1840 347.405405405 1840 347.405405405 1782.5 422 c 0,25,26
 1764 446 1764 446 1739 458 c 1,27,28
 1747.36842105 418.947368421 1747.36842105 418.947368421 1751 379 c 1,29,-1
 1751 349 l 2,30,31
 1751 98.0283018868 1751 98.0283018868 1605 8.5 c 0,32,33
 1552 -24 1552 -24 1480.5 -24 c 128,-1,34
 1409 -24 1409 -24 1358.5 5 c 128,-1,35
 1308 34 1308 34 1273.5 80.5 c 0,36,37
 1203 175.52173913 1203 175.52173913 1203 303 c 0,38,39
 1203 440.64556962 1203 440.64556962 1286.5 540 c 0,40,41
 1368.84030621 637.97454157 1368.84030621 637.97454157 1507 660 c 1,42,43
 1452.27272727 746 1452.27272727 746 1334 746 c 0,44,45
 1251.13333333 746 1251.13333333 746 1193.5 700.5 c 0,46,47
 1130 650.368421053 1130 650.368421053 1130 569 c 2,48,-1
 1130 0 l 1,49,-1
 946 0 l 1,50,-1
 946 621 l 2,51,52
 946 702.305084746 946 702.305084746 879.5 739.5 c 0,53,54
 850 756 850 756 799 756 c 2,55,-1
 796 756 l 1,56,57
 876 673.837837838 876 673.837837838 876 570.23599209 c 128,-1,58
 876 466.634146341 876 466.634146341 803 415 c 1,59,60
 894 367.68 894 367.68 894 246 c 0,61,62
 894 132.984615385 894 132.984615385 825.5 55 c 0,63,64
 755.22972973 -25 755.22972973 -25 656.614864865 -25 c 128,-1,65
 558 -25 558 -25 500 16.5 c 128,-1,66
 442 58 442 58 407.5 122.5 c 0,67,68
 345 239.347826087 345 239.347826087 345 413 c 0,69,70
 345 549.857142857 345 549.857142857 420 694.5 c 0,71,72
 441 735 441 735 464 759 c 1,73,-1
 450 760 l 2,74,75
 443 760 443 760 421.5 760 c 128,-1,76
 400 760 400 760 372 744.5 c 128,-1,77
 344 729 344 729 322 703 c 128,-1,78
 300 677 300 677 284.5 644 c 128,-1,79
 269 611 269 611 259 575.5 c 0,80,81
 240 508.05 240 508.05 240 443 c 0,82,83
 240 176.696969697 240 176.696969697 359 0 c 1,84,-1
 155 0 l 1,85,86
 56 225.97826087 56 225.97826087 56 443 c 0,87,88
 56 726.444444444 56 726.444444444 207.5 855.5 c 0,89,90
 293.782608696 929 293.782608696 929 406.235054348 929 c 128,-1,91
 518.6875 929 518.6875 929 634 888 c 1,92,93
 722.15 931 722.15 931 807 931 c 0,94,95
 813 931 813 931 819 931 c 128,-1,96
 825 931 825 931 847 929.5 c 128,-1,97
 869 928 869 928 904.5 919.5 c 128,-1,98
 940 911 940 911 971 897.5 c 0,99,100
 1031.83699871 871.006468305 1031.83699871 871.006468305 1065 829 c 1,0,1
1476 163 m 0,101,102
 1572 163 1572 163 1572 401 c 2,103,-1
 1572 406 l 2,104,105
 1572 432 1572 432 1560 492 c 1,106,107
 1486.02839296 482.26689381 1486.02839296 482.26689381 1439.5 426 c 0,108,109
 1394 370.976744186 1394 370.976744186 1394 296 c 0,110,111
 1394 217.193548387 1394 217.193548387 1438.5 177 c 0,112,113
 1454 163 1454 163 1476 163 c 0,101,102
648 699 m 1,114,115
 519 616.071428571 519 616.071428571 519 413 c 0,116,117
 519 333.857142857 519 333.857142857 539 272.428571429 c 128,-1,118
 559 211 559 211 583.5 179.5 c 128,-1,119
 608 148 608 148 634.5 148 c 128,-1,120
 661 148 661 148 674.5 158 c 128,-1,121
 688 168 688 168 698.5 183.5 c 0,122,123
 721 216.714285714 721 216.714285714 721 251 c 0,124,125
 721 331 721 331 657 331 c 2,126,-1
 614 331 l 1,127,-1
 614 492 l 1,128,-1
 656 492 l 2,129,130
 712 492 712 492 712 571 c 0,131,132
 712 662.151515152 712 662.151515152 648 699 c 1,114,115
EndSplineSet
EndChar

StartChar: uni0D07
Encoding: 102 3335 103
Width: 1300
Flags: W
LayerCount: 2
Back
Fore
SplineSet
239 575 m 1,0,1
 278.117647059 610 278.117647059 610 332.058823529 610 c 128,-1,2
 386 610 386 610 428 585.5 c 128,-1,3
 470 561 470 561 497 522 c 0,4,5
 551 444 551 444 551 334 c 0,6,7
 551 225.375 551 225.375 484 150 c 0,8,9
 414.666666667 72 414.666666667 72 320.833333333 72 c 128,-1,10
 227 72 227 72 176.5 107.5 c 128,-1,11
 126 143 126 143 98 199 c 0,12,13
 50 295 50 295 50 424.5 c 128,-1,14
 50 554 50 554 71 639.5 c 128,-1,15
 92 725 92 725 139 789.5 c 0,16,17
 240.651162791 929 240.651162791 929 443 929 c 0,18,19
 585.176470588 929 585.176470588 929 673.5 857.5 c 0,20,21
 705 832 705 832 724 795 c 1,22,23
 752.175675676 856.986486486 752.175675676 856.986486486 821.5 895.5 c 0,24,25
 883.6 930 883.6 930 953.8 930 c 128,-1,26
 1024 930 1024 930 1075 907.5 c 128,-1,27
 1126 885 1126 885 1165 847 c 128,-1,28
 1204 809 1204 809 1231.5 758.5 c 128,-1,29
 1259 708 1259 708 1276 652.5 c 0,30,31
 1309 544.764705882 1309 544.764705882 1309 457.382352941 c 128,-1,32
 1309 370 1309 370 1300 307 c 128,-1,33
 1291 244 1291 244 1272 182 c 128,-1,34
 1253 120 1253 120 1223.5 63.5 c 128,-1,35
 1194 7 1194 7 1152 -36.5 c 0,36,37
 1060.75862069 -131 1060.75862069 -131 931 -131 c 2,38,-1
 280 -131 l 2,39,40
 263 -131 263 -131 251.5 -145 c 128,-1,41
 240 -159 240 -159 240 -175.5 c 128,-1,42
 240 -192 240 -192 251.5 -204.5 c 128,-1,43
 263 -217 263 -217 280 -217 c 2,44,-1
 1298 -217 l 1,45,-1
 1298 -380 l 1,46,-1
 250 -380 l 2,47,48
 169.254545455 -380 169.254545455 -380 113 -320.5 c 0,49,50
 57 -261.269230769 57 -261.269230769 57 -181 c 256,51,52
 57 -98.2307692308 57 -98.2307692308 112 -39 c 0,53,54
 168.642857143 22 168.642857143 22 250 22 c 2,55,-1
 899 22 l 2,56,57
 977.75 22 977.75 22 1034 103 c 0,58,59
 1098.72547974 196.204690832 1098.72547974 196.204690832 1116.5 370 c 0,60,61
 1121 414 1121 414 1121 449.5 c 128,-1,62
 1121 485 1121 485 1115 539 c 128,-1,63
 1109 593 1109 593 1091 643 c 0,64,65
 1047.8 763 1047.8 763 959 763 c 0,66,67
 893.636363636 763 893.636363636 763 855 700.5 c 0,68,69
 821 645.5 821 645.5 821 578 c 2,70,-1
 821 93 l 1,71,-1
 637 94 l 1,72,-1
 637 537 l 2,73,74
 637 763 637 763 441 763 c 0,75,76
 313.173913043 763 313.173913043 763 261 650.5 c 0,77,78
 245 616 245 616 239 575 c 1,0,1
380 334 m 256,79,80
 380 397.615384615 380 397.615384615 343 427.5 c 0,81,82
 330 438 330 438 311 438 c 256,83,84
 277.516129032 438 277.516129032 438 257.5 401.5 c 0,85,86
 242 373.235294118 242 373.235294118 242 334 c 256,87,88
 242 271.384615385 242 271.384615385 279 241.5 c 0,89,90
 292 231 292 231 311 231 c 256,91,92
 360.444444444 231 360.444444444 231 376 301 c 0,93,94
 380 319 380 319 380 334 c 256,79,80
EndSplineSet
EndChar

StartChar: uni0D08
Encoding: 103 3336 104
Width: 2150
Flags: W
LayerCount: 2
Back
Fore
SplineSet
1470.5 850 m 128,-1,1
 1517 877 1517 877 1591.91428571 877 c 128,-1,2
 1666.82857143 877 1666.82857143 877 1707 803 c 1,3,4
 1736.83712785 856.043782837 1736.83712785 856.043782837 1804.5 876.5 c 0,5,6
 1826 883 1826 883 1848 883 c 0,7,8
 1991.8 883 1991.8 883 2074 746 c 0,9,10
 2144 629.333333333 2144 629.333333333 2144 501.166666667 c 128,-1,11
 2144 373 2144 373 2112.5 283 c 128,-1,12
 2081 193 2081 193 2021.5 127 c 0,13,14
 1893.48484848 -15 1893.48484848 -15 1698.4539627 -15 c 128,-1,15
 1503.42307692 -15 1503.42307692 -15 1430 68 c 1,16,-1
 1430 257 l 1,17,18
 1475 201 1475 201 1540 167.5 c 128,-1,19
 1605 134 1605 134 1679 134 c 128,-1,20
 1753 134 1753 134 1808.5 163.5 c 128,-1,21
 1864 193 1864 193 1900.5 242.5 c 0,22,23
 1972 339.465753425 1972 339.465753425 1972 487 c 0,24,25
 1972 610 1972 610 1920 675 c 0,26,27
 1900 700 1900 700 1876 700 c 128,-1,28
 1852 700 1852 700 1836.5 691.5 c 128,-1,29
 1821 683 1821 683 1809.5 669 c 0,30,31
 1785 639.173913043 1785 639.173913043 1785 601 c 2,32,-1
 1785 460 l 1,33,-1
 1635 460 l 1,34,-1
 1635 620 l 2,35,36
 1635 668.666666667 1635 668.666666667 1601.5 691 c 0,37,38
 1591 698 1591 698 1574 698 c 128,-1,39
 1557 698 1557 698 1540.5 686.5 c 128,-1,40
 1524 675 1524 675 1513.5 657.5 c 0,41,42
 1492 621.666666667 1492 621.666666667 1492 574.833333333 c 128,-1,43
 1492 528 1492 528 1509 479 c 128,-1,44
 1526 430 1526 430 1543 378 c 1,45,-1
 1375 378 l 1,46,47
 1365 426 1365 426 1354.5 470 c 128,-1,48
 1344 514 1344 514 1344 568 c 128,-1,49
 1344 622 1344 622 1356 678.5 c 128,-1,50
 1368 735 1368 735 1396 779 c 128,-1,0
 1424 823 1424 823 1470.5 850 c 128,-1,1
239 575 m 1,51,52
 278.117647059 610 278.117647059 610 332.058823529 610 c 128,-1,53
 386 610 386 610 428 585.5 c 128,-1,54
 470 561 470 561 497 522 c 0,55,56
 551 444 551 444 551 334 c 0,57,58
 551 225.375 551 225.375 484 150 c 0,59,60
 414.666666667 72 414.666666667 72 320.833333333 72 c 128,-1,61
 227 72 227 72 176.5 107.5 c 128,-1,62
 126 143 126 143 98 199 c 0,63,64
 50 295 50 295 50 424.5 c 128,-1,65
 50 554 50 554 71 639.5 c 128,-1,66
 92 725 92 725 139 789.5 c 0,67,68
 240.651162791 929 240.651162791 929 443 929 c 0,69,70
 585.176470588 929 585.176470588 929 673.5 857.5 c 0,71,72
 705 832 705 832 724 795 c 1,73,74
 752.175675676 856.986486486 752.175675676 856.986486486 821.5 895.5 c 0,75,76
 883.6 930 883.6 930 953.8 930 c 128,-1,77
 1024 930 1024 930 1075 907.5 c 128,-1,78
 1126 885 1126 885 1165 847 c 128,-1,79
 1204 809 1204 809 1231.5 758.5 c 128,-1,80
 1259 708 1259 708 1276 652.5 c 0,81,82
 1309 544.764705882 1309 544.764705882 1309 457.382352941 c 128,-1,83
 1309 370 1309 370 1300 307 c 128,-1,84
 1291 244 1291 244 1272 182 c 128,-1,85
 1253 120 1253 120 1223.5 63.5 c 128,-1,86
 1194 7 1194 7 1152 -36.5 c 0,87,88
 1060.75862069 -131 1060.75862069 -131 931 -131 c 2,89,-1
 280 -131 l 2,90,91
 263 -131 263 -131 251.5 -145 c 128,-1,92
 240 -159 240 -159 240 -175.5 c 128,-1,93
 240 -192 240 -192 251.5 -204.5 c 128,-1,94
 263 -217 263 -217 280 -217 c 2,95,-1
 1298 -217 l 1,96,-1
 1298 -380 l 1,97,-1
 250 -380 l 2,98,99
 169.254545455 -380 169.254545455 -380 113 -320.5 c 0,100,101
 57 -261.269230769 57 -261.269230769 57 -181 c 256,102,103
 57 -98.2307692308 57 -98.2307692308 112 -39 c 0,104,105
 168.642857143 22 168.642857143 22 250 22 c 2,106,-1
 899 22 l 2,107,108
 977.75 22 977.75 22 1034 103 c 0,109,110
 1098.72547974 196.204690832 1098.72547974 196.204690832 1116.5 370 c 0,111,112
 1121 414 1121 414 1121 449.5 c 128,-1,113
 1121 485 1121 485 1115 539 c 128,-1,114
 1109 593 1109 593 1091 643 c 0,115,116
 1047.8 763 1047.8 763 959 763 c 0,117,118
 893.636363636 763 893.636363636 763 855 700.5 c 0,119,120
 821 645.5 821 645.5 821 578 c 2,121,-1
 821 93 l 1,122,-1
 637 94 l 1,123,-1
 637 537 l 2,124,125
 637 763 637 763 441 763 c 0,126,127
 313.173913043 763 313.173913043 763 261 650.5 c 0,128,129
 245 616 245 616 239 575 c 1,51,52
380 334 m 256,130,131
 380 397.615384615 380 397.615384615 343 427.5 c 0,132,133
 330 438 330 438 311 438 c 256,134,135
 277.516129032 438 277.516129032 438 257.5 401.5 c 0,136,137
 242 373.235294118 242 373.235294118 242 334 c 256,138,139
 242 271.384615385 242 271.384615385 279 241.5 c 0,140,141
 292 231 292 231 311 231 c 256,142,143
 360.444444444 231 360.444444444 231 376 301 c 0,144,145
 380 319 380 319 380 334 c 256,130,131
EndSplineSet
EndChar

StartChar: uni0D09
Encoding: 104 3337 105
Width: 979
Flags: W
LayerCount: 2
Back
Fore
SplineSet
239 585 m 1,0,1
 278.117647059 620 278.117647059 620 332.058823529 620 c 128,-1,2
 386 620 386 620 427.5 595.5 c 128,-1,3
 469 571 469 571 496.5 532 c 0,4,5
 551 454.709090909 551 454.709090909 551 344 c 0,6,7
 551 236.333333333 551 236.333333333 484.5 154 c 0,8,9
 414.230769231 67 414.230769231 67 308 67 c 0,10,11
 50 67 50 67 50 467 c 0,12,13
 50 673.226086957 50 673.226086957 168.5 801 c 0,14,15
 290.919354839 933 290.919354839 933 496 933 c 0,16,17
 723.615384615 933 723.615384615 933 853.5 779.5 c 0,18,19
 975 635.909090909 975 635.909090909 975 406 c 0,20,21
 975 213.258064516 975 213.258064516 883 53 c 0,22,23
 818.095952706 -60.0586630286 818.095952706 -60.0586630286 711.5 -107 c 0,24,25
 657 -131 657 -131 590 -131 c 2,26,-1
 280 -131 l 2,27,28
 263 -131 263 -131 251.5 -145 c 128,-1,29
 240 -159 240 -159 240 -175.5 c 128,-1,30
 240 -192 240 -192 251.5 -204.5 c 128,-1,31
 263 -217 263 -217 280 -217 c 2,32,-1
 958 -217 l 1,33,-1
 958 -380 l 1,34,-1
 250 -380 l 2,35,36
 170.01754386 -380 170.01754386 -380 113 -317.5 c 0,37,38
 57 -256.115384615 57 -256.115384615 57 -176 c 0,39,40
 57 -93.9803921569 57 -93.9803921569 111.5 -32 c 0,41,42
 167.775862069 32 167.775862069 32 250 32 c 2,43,-1
 568 32 l 2,44,45
 641.230769231 32 641.230769231 32 697 104.5 c 0,46,47
 763.445966514 190.879756469 763.445966514 190.879756469 784.5 344 c 0,48,49
 790 384 790 384 790 434 c 128,-1,50
 790 484 790 484 773.5 546 c 128,-1,51
 757 608 757 608 721.5 655 c 0,52,53
 644.457446809 757 644.457446809 757 499 757 c 0,54,55
 341.590909091 757 341.590909091 757 270.5 665 c 0,56,57
 245 632 245 632 239 585 c 1,0,1
311 448 m 256,58,59
 277.516129032 448 277.516129032 448 257.5 411.5 c 0,60,61
 242 383.235294118 242 383.235294118 242 356.117647059 c 128,-1,62
 242 329 242 329 245.5 311 c 128,-1,63
 249 293 249 293 257.5 277.5 c 0,64,65
 277.516129032 241 277.516129032 241 311 241 c 256,66,67
 344.483870968 241 344.483870968 241 364.5 277.5 c 0,68,69
 380 305.764705882 380 305.764705882 380 332.882352941 c 0,70,71
 380 383.235294118 380 383.235294118 362.241935484 415.617647059 c 128,-1,72
 344.483870968 448 344.483870968 448 311 448 c 256,58,59
EndSplineSet
EndChar

StartChar: uni0D0A
Encoding: 105 3338 106
Width: 1824
Flags: W
LayerCount: 2
Back
Fore
SplineSet
1150.5 850 m 128,-1,1
 1197 877 1197 877 1271.91428571 877 c 128,-1,2
 1346.82857143 877 1346.82857143 877 1387 803 c 1,3,4
 1416.83712785 856.043782837 1416.83712785 856.043782837 1484.5 876.5 c 0,5,6
 1506 883 1506 883 1528 883 c 0,7,8
 1671.8 883 1671.8 883 1754 746 c 0,9,10
 1824 629.333333333 1824 629.333333333 1824 501.166666667 c 128,-1,11
 1824 373 1824 373 1792.5 283 c 128,-1,12
 1761 193 1761 193 1701.5 127 c 0,13,14
 1573.48484848 -15 1573.48484848 -15 1378.4539627 -15 c 128,-1,15
 1183.42307692 -15 1183.42307692 -15 1110 68 c 1,16,-1
 1110 257 l 1,17,18
 1155 201 1155 201 1220 167.5 c 128,-1,19
 1285 134 1285 134 1359 134 c 128,-1,20
 1433 134 1433 134 1488.5 163.5 c 128,-1,21
 1544 193 1544 193 1580.5 242.5 c 0,22,23
 1652 339.465753425 1652 339.465753425 1652 487 c 0,24,25
 1652 610 1652 610 1600 675 c 0,26,27
 1580 700 1580 700 1556 700 c 128,-1,28
 1532 700 1532 700 1516.5 691.5 c 128,-1,29
 1501 683 1501 683 1489.5 669 c 0,30,31
 1465 639.173913043 1465 639.173913043 1465 601 c 2,32,-1
 1465 460 l 1,33,-1
 1315 460 l 1,34,-1
 1315 620 l 2,35,36
 1315 668.666666667 1315 668.666666667 1281.5 691 c 0,37,38
 1271 698 1271 698 1254 698 c 128,-1,39
 1237 698 1237 698 1220.5 686.5 c 128,-1,40
 1204 675 1204 675 1193.5 657.5 c 0,41,42
 1172 621.666666667 1172 621.666666667 1172 574.833333333 c 128,-1,43
 1172 528 1172 528 1189 479 c 128,-1,44
 1206 430 1206 430 1223 378 c 1,45,-1
 1055 378 l 1,46,47
 1045 426 1045 426 1034.5 470 c 128,-1,48
 1024 514 1024 514 1024 568 c 128,-1,49
 1024 622 1024 622 1036 678.5 c 128,-1,50
 1048 735 1048 735 1076 779 c 128,-1,0
 1104 823 1104 823 1150.5 850 c 128,-1,1
239 585 m 1,51,52
 278.117647059 620 278.117647059 620 332.058823529 620 c 128,-1,53
 386 620 386 620 427.5 595.5 c 128,-1,54
 469 571 469 571 496.5 532 c 0,55,56
 551 454.709090909 551 454.709090909 551 344 c 0,57,58
 551 236.333333333 551 236.333333333 484.5 154 c 0,59,60
 414.230769231 67 414.230769231 67 308 67 c 0,61,62
 50 67 50 67 50 467 c 0,63,64
 50 673.226086957 50 673.226086957 168.5 801 c 0,65,66
 290.919354839 933 290.919354839 933 496 933 c 0,67,68
 723.615384615 933 723.615384615 933 853.5 779.5 c 0,69,70
 975 635.909090909 975 635.909090909 975 406 c 0,71,72
 975 213.258064516 975 213.258064516 883 53 c 0,73,74
 818.095952706 -60.0586630286 818.095952706 -60.0586630286 711.5 -107 c 0,75,76
 657 -131 657 -131 590 -131 c 2,77,-1
 280 -131 l 2,78,79
 263 -131 263 -131 251.5 -145 c 128,-1,80
 240 -159 240 -159 240 -175.5 c 128,-1,81
 240 -192 240 -192 251.5 -204.5 c 128,-1,82
 263 -217 263 -217 280 -217 c 2,83,-1
 958 -217 l 1,84,-1
 958 -380 l 1,85,-1
 250 -380 l 2,86,87
 170.01754386 -380 170.01754386 -380 113 -317.5 c 0,88,89
 57 -256.115384615 57 -256.115384615 57 -176 c 0,90,91
 57 -93.9803921569 57 -93.9803921569 111.5 -32 c 0,92,93
 167.775862069 32 167.775862069 32 250 32 c 2,94,-1
 568 32 l 2,95,96
 641.230769231 32 641.230769231 32 697 104.5 c 0,97,98
 763.445966514 190.879756469 763.445966514 190.879756469 784.5 344 c 0,99,100
 790 384 790 384 790 434 c 128,-1,101
 790 484 790 484 773.5 546 c 128,-1,102
 757 608 757 608 721.5 655 c 0,103,104
 644.457446809 757 644.457446809 757 499 757 c 0,105,106
 341.590909091 757 341.590909091 757 270.5 665 c 0,107,108
 245 632 245 632 239 585 c 1,51,52
311 448 m 256,109,110
 277.516129032 448 277.516129032 448 257.5 411.5 c 0,111,112
 242 383.235294118 242 383.235294118 242 356.117647059 c 128,-1,113
 242 329 242 329 245.5 311 c 128,-1,114
 249 293 249 293 257.5 277.5 c 0,115,116
 277.516129032 241 277.516129032 241 311 241 c 256,117,118
 344.483870968 241 344.483870968 241 364.5 277.5 c 0,119,120
 380 305.764705882 380 305.764705882 380 332.882352941 c 0,121,122
 380 383.235294118 380 383.235294118 362.241935484 415.617647059 c 128,-1,123
 344.483870968 448 344.483870968 448 311 448 c 256,109,110
EndSplineSet
EndChar

StartChar: uni0D0B
Encoding: 106 3339 107
Width: 930
Flags: W
LayerCount: 2
Back
Fore
SplineSet
299 543 m 1,0,1
 379.0625 482 379.0625 482 496 482 c 0,2,3
 611.84375 482 611.84375 482 690 543 c 1,4,5
 612.956120092 541.073903002 612.956120092 541.073903002 562.5 600.5 c 0,6,7
 516 655.266666667 516 655.266666667 516 714.633333333 c 128,-1,8
 516 774 516 774 529.5 811 c 128,-1,9
 543 848 543 848 568.5 874.5 c 0,10,11
 622.867924528 931 622.867924528 931 694.433962264 931 c 128,-1,12
 766 931 766 931 807.5 908.5 c 128,-1,13
 849 886 849 886 876.5 849.5 c 0,14,15
 931 777.163636364 931 777.163636364 931 671 c 0,16,17
 931 566.45 931 566.45 873 492.5 c 0,18,19
 853 467 853 467 826 449 c 1,20,21
 901 404 901 404 901 293 c 0,22,23
 901 146.4 901 146.4 765 66.5 c 0,24,25
 648.404255319 -2 648.404255319 -2 497 -2 c 0,26,27
 340.458333333 -2 340.458333333 -2 224.5 67 c 0,28,29
 85 150.008264463 85 150.008264463 85 294 c 0,30,31
 85 402.8 85 402.8 162 449 c 1,32,33
 56 519.666666667 56 519.666666667 56 666 c 0,34,35
 56 773.888888889 56 773.888888889 109 847.5 c 0,36,37
 169.12 931 169.12 931 274 931 c 0,38,39
 410.888888889 931 410.888888889 931 456 815 c 0,40,41
 470 779 470 779 470 740 c 128,-1,42
 470 701 470 701 458 666 c 128,-1,43
 446 631 446 631 424 603.5 c 0,44,45
 375.6 543 375.6 543 299 543 c 1,0,1
713 792 m 256,46,47
 678.434782609 792 678.434782609 792 665.5 749.5 c 0,48,49
 662 738 662 738 662 726 c 256,50,51
 662 681.736842105 662 681.736842105 691.5 660 c 0,52,53
 701 653 701 653 714 653 c 256,54,55
 750.153846154 653 750.153846154 653 761 700 c 0,56,57
 764 713 764 713 764 725 c 256,58,59
 764 767.368421053 764 767.368421053 734.5 786 c 0,60,61
 725 792 725 792 713 792 c 256,46,47
278 792 m 256,62,63
 243.434782609 792 243.434782609 792 230.5 749.5 c 0,64,65
 227 738 227 738 227 726 c 256,66,67
 227 681.736842105 227 681.736842105 256.5 660 c 0,68,69
 266 653 266 653 279 653 c 256,70,71
 315.153846154 653 315.153846154 653 326 700 c 0,72,73
 329 713 329 713 329 725 c 256,74,75
 329 767.368421053 329 767.368421053 299.5 786 c 0,76,77
 290 792 290 792 278 792 c 256,62,63
334 368 m 1,78,79
 279 335.916666667 279 335.916666667 279 287.458333333 c 128,-1,80
 279 239 279 239 300.5 214.5 c 128,-1,81
 322 190 322 190 353.5 175.5 c 0,82,83
 411.068965517 149 411.068965517 149 490 149 c 256,84,85
 625.346938776 149 625.346938776 149 685.5 214.5 c 0,86,87
 708 239 708 239 708 271.5 c 0,88,89
 708 336.64 708 336.64 652 368 c 1,90,91
 572.545454545 345 572.545454545 345 494.045454545 345 c 128,-1,92
 415.545454545 345 415.545454545 345 334 368 c 1,78,79
EndSplineSet
EndChar

StartChar: l1
Encoding: 107 3340 108
Width: 1476
GlyphClass: 2
Flags: W
LayerCount: 2
Back
Fore
SplineSet
765 784 m 1,0,1
 871.818181818 925 871.818181818 925 1083 925 c 0,2,3
 1287 925 1287 925 1388.5 765.5 c 0,4,5
 1474 631.142857143 1474 631.142857143 1474 417 c 0,6,7
 1474 257.285714286 1474 257.285714286 1417 136.5 c 0,8,9
 1344.56179775 -17 1344.56179775 -17 1200 -17 c 0,10,11
 1080.04 -17 1080.04 -17 1010.5 97 c 0,12,13
 951 194.540983607 951 194.540983607 951 322 c 0,14,15
 951 544.337078652 951 544.337078652 1066.5 623.5 c 0,16,17
 1111 654 1111 654 1158 654 c 0,18,19
 1236.23529412 654 1236.23529412 654 1268 624 c 1,20,21
 1250.63157895 676.105263158 1250.63157895 676.105263158 1198 709 c 0,22,23
 1150 739 1150 739 1093 739 c 128,-1,24
 1036 739 1036 739 993 717.5 c 128,-1,25
 950 696 950 696 920 659.5 c 0,26,27
 858 584.066666667 858 584.066666667 858 478 c 2,28,-1
 858 0 l 1,29,-1
 673 0 l 1,30,-1
 673 478 l 2,31,32
 673 584.066666667 673 584.066666667 611 659.5 c 0,33,34
 545.657534247 739 545.657534247 739 440 739 c 0,35,36
 347.720930233 739 347.720930233 739 290.5 672.5 c 0,37,38
 272 651 272 651 262 624 c 1,39,40
 293.764705882 654 293.764705882 654 356.382352941 654 c 128,-1,41
 419 654 419 654 463.5 623.5 c 128,-1,42
 508 593 508 593 534 545 c 0,43,44
 580 460.076923077 580 460.076923077 580 322 c 0,45,46
 580 194.540983607 580 194.540983607 520.5 97 c 0,47,48
 450.96 -17 450.96 -17 331 -17 c 0,49,50
 233.382352941 -17 233.382352941 -17 165 58 c 0,51,52
 56 177.548387097 56 177.548387097 56 417 c 0,53,54
 56 760.146666667 56 760.146666667 262 881 c 0,55,56
 337 925 337 925 447 925 c 0,57,58
 658.181818182 925 658.181818182 925 765 784 c 1,0,1
1277 311 m 256,59,60
 1277 397.387096774 1277 397.387096774 1233.5 446.5 c 0,61,62
 1218 464 1218 464 1195.5 464 c 128,-1,63
 1173 464 1173 464 1159 446 c 128,-1,64
 1145 428 1145 428 1137 403.5 c 0,65,66
 1123 360.625 1123 360.625 1123 311 c 256,67,68
 1123 222.285714286 1123 222.285714286 1159 176 c 0,69,70
 1173 158 1173 158 1195.5 158 c 128,-1,71
 1218 158 1218 158 1233.5 175.5 c 128,-1,72
 1249 193 1249 193 1259 217.5 c 0,73,74
 1277 261.6 1277 261.6 1277 311 c 256,59,60
408 311 m 256,75,76
 408 398.428571429 408 398.428571429 371 446 c 0,77,78
 357 464 357 464 334.5 464 c 128,-1,79
 312 464 312 464 297 446.5 c 128,-1,80
 282 429 282 429 272 404.5 c 0,81,82
 254 360.4 254 360.4 254 311 c 256,83,84
 254 225.666666667 254 225.666666667 297 175.5 c 0,85,86
 312 158 312 158 334.5 158 c 128,-1,87
 357 158 357 158 371 176 c 128,-1,88
 385 194 385 194 393.5 218.5 c 0,89,90
 408 260.294117647 408 260.294117647 408 311 c 256,75,76
EndSplineSet
EndChar

StartChar: uni0D0E
Encoding: 108 3342 109
Width: 1484
Flags: W
LayerCount: 2
Back
Fore
SplineSet
589 375.5 m 128,-1,1
 607 318 607 318 607 274.666666667 c 128,-1,2
 607 231.333333333 607 231.333333333 596 169 c 1,3,-1
 683 169 l 1,4,-1
 683 347 l 2,5,6
 683 640 683 640 790 787.5 c 128,-1,7
 897 935 897 935 1089 935 c 0,8,9
 1310.10493827 935 1310.10493827 935 1403.5 757 c 0,10,11
 1477 616.917647059 1477 616.917647059 1477 353 c 0,12,13
 1477 56.1333333333 1477 56.1333333333 1391 -242 c 1,14,-1
 1199 -242 l 1,15,16
 1258.02594194 -69.4626312539 1258.02594194 -69.4626312539 1286 186.5 c 0,17,18
 1296 278 1296 278 1296 362 c 128,-1,19
 1296 446 1296 446 1285.5 518 c 128,-1,20
 1275 590 1275 590 1250 644 c 0,21,22
 1195.37037037 762 1195.37037037 762 1086.18518519 762 c 128,-1,23
 977 762 977 762 917.5 655 c 128,-1,24
 858 548 858 548 858 340 c 2,25,-1
 858 169 l 1,26,-1
 980 169 l 1,27,-1
 980 509 l 1,28,-1
 1164 509 l 1,29,-1
 1164 5 l 1,30,-1
 1162 5 l 1,31,32
 1162 -131.88 1162 -131.88 1128 -194.44 c 128,-1,33
 1094 -257 1094 -257 1050.5 -286 c 128,-1,34
 1007 -315 1007 -315 937 -315 c 0,35,36
 683 -315 683 -315 683 5 c 1,37,-1
 384 5 l 1,38,39
 392 42 392 42 400.5 72 c 128,-1,40
 409 102 409 102 415.5 130.5 c 0,41,42
 430 194.076923077 430 194.076923077 430 236.538461538 c 128,-1,43
 430 279 430 279 425 301 c 128,-1,44
 420 323 420 323 409 341 c 0,45,46
 383.944444444 382 383.944444444 382 346.972222222 382 c 128,-1,47
 310 382 310 382 290.5 369 c 128,-1,48
 271 356 271 356 259 336 c 0,49,50
 236 297.666666667 236 297.666666667 236 253.333333333 c 128,-1,51
 236 209 236 209 240 180 c 128,-1,52
 244 151 244 151 250.5 124 c 128,-1,53
 257 97 257 97 266.5 68.5 c 128,-1,54
 276 40 276 40 287 5 c 1,55,-1
 103 5 l 1,56,57
 94 41 94 41 86 69 c 128,-1,58
 78 97 78 97 72 124.5 c 0,59,60
 59 184.083333333 59 184.083333333 59 246.041666667 c 128,-1,61
 59 308 59 308 77 367.5 c 128,-1,62
 95 427 95 427 129.5 473.5 c 0,63,64
 206.290322581 577 206.290322581 577 335 577 c 0,65,66
 460.6 577 460.6 577 536.5 478 c 0,67,0
 571 433 571 433 589 375.5 c 128,-1,1
932 -155 m 0,68,69
 993 -155 993 -155 993 -65 c 2,70,-1
 993 -54 l 1,71,-1
 992 5 l 1,72,-1
 858 5 l 1,73,-1
 858 -41 l 2,74,75
 858 -108.714285714 858 -108.714285714 898 -143 c 0,76,77
 912 -155 912 -155 932 -155 c 0,68,69
EndSplineSet
EndChar

StartChar: uni0D0F
Encoding: 109 3343 110
Width: 1563
Flags: W
LayerCount: 2
Back
Fore
SplineSet
993 -48.5 m 2,0,1
 993 -21 l 2,2,3
 993 -8 993 -8 992 5 c 1,4,-1
 858 5 l 1,5,-1
 858 -41 l 2,6,7
 858 -102.678571429 858 -102.678571429 899 -130.5 c 0,8,9
 913 -140 913 -140 931.5 -140 c 128,-1,10
 950 -140 950 -140 962 -131 c 128,-1,11
 974 -122 974 -122 981 -108.5 c 0,12,13
 993 -85.3571428571 993 -85.3571428571 993 -48.5 c 2,0,1
1455 208 m 1,14,15
 1553 135.789473684 1553 135.789473684 1553 -21 c 0,16,17
 1553 -140.71875 1553 -140.71875 1486 -214 c 0,18,19
 1418.34285714 -288 1418.34285714 -288 1314 -288 c 2,20,-1
 1213 -288 l 1,21,-1
 1213 -122 l 1,22,-1
 1265 -122 l 2,23,24
 1313.73333333 -122 1313.73333333 -122 1340.36666667 -98.5 c 0,25,26
 1387 -57.3529411765 1387 -57.3529411765 1387 -3.67647058824 c 128,-1,27
 1387 50 1387 50 1351.5 79.5 c 128,-1,28
 1316 109 1316 109 1265 109 c 2,29,-1
 1213 109 l 1,30,-1
 1213 281 l 1,31,-1
 1235 281 l 2,32,33
 1344.64197531 281 1344.64197531 281 1373.5 418.5 c 0,34,35
 1382 459 1382 459 1382 508.5 c 128,-1,36
 1382 558 1382 558 1362.5 604.5 c 128,-1,37
 1343 651 1343 651 1309 685 c 0,38,39
 1236 758 1236 758 1132 758 c 0,40,41
 957.954545455 758 957.954545455 758 897.5 606 c 0,42,43
 864.359336393 522.67490293 864.359336393 522.67490293 861.179668196 450.337451465 c 128,-1,44
 858 378 858 378 858 340 c 2,45,-1
 858 169 l 1,46,-1
 980 169 l 1,47,-1
 980 509 l 1,48,-1
 1164 509 l 1,49,-1
 1164 5 l 1,50,-1
 1162 5 l 1,51,-1
 1162 1 l 2,52,53
 1162 -213.306818182 1162 -213.306818182 1049 -286.5 c 0,54,55
 1005 -315 1005 -315 934.5 -315 c 128,-1,56
 864 -315 864 -315 815 -289.5 c 128,-1,57
 766 -264 766 -264 737 -221 c 0,58,59
 683 -140.931034483 683 -140.931034483 683 0 c 2,60,-1
 683 5 l 1,61,-1
 384 5 l 1,62,63
 398 68 398 68 414 130.5 c 128,-1,64
 430 193 430 193 430 236 c 128,-1,65
 430 279 430 279 424.5 301 c 128,-1,66
 419 323 419 323 408 341 c 0,67,68
 382.944444444 382 382.944444444 382 346.472222222 382 c 128,-1,69
 310 382 310 382 291 369.5 c 128,-1,70
 272 357 272 357 260 337 c 0,71,72
 236 297 236 297 236 240 c 0,73,74
 236 166.052631579 236 166.052631579 287 5 c 1,75,-1
 103 5 l 1,76,77
 59 160.294117647 59 160.294117647 59 234.147058824 c 128,-1,78
 59 308 59 308 77 367 c 128,-1,79
 95 426 95 426 130 472.5 c 0,80,81
 208.655913978 577 208.655913978 577 335 577 c 0,82,83
 459.359550562 577 459.359550562 577 536.5 477.5 c 0,84,85
 607 386.565217391 607 386.565217391 607 258 c 0,86,87
 607 217.4 607 217.4 596 169 c 1,88,-1
 683 169 l 1,89,-1
 683 347 l 2,90,91
 683 931 683 931 1129 931 c 256,92,93
 1323.41818182 931 1323.41818182 931 1439.5 818 c 0,94,95
 1558 702.646017699 1558 702.646017699 1558 509 c 0,96,97
 1558 398.739130435 1558 398.739130435 1542.5 348.869565217 c 0,98,99
 1514.2558672 257.997137951 1514.2558672 257.997137951 1455 208 c 1,14,15
EndSplineSet
EndChar

StartChar: uni0D10
Encoding: 110 3344 111
Width: 2320
Flags: W
LayerCount: 2
Back
Fore
SplineSet
1430 375.5 m 128,-1,1
 1448 318 1448 318 1448 277.5 c 128,-1,2
 1448 237 1448 237 1436 169 c 1,3,-1
 1523 169 l 1,4,-1
 1523 347 l 2,5,6
 1523 640 1523 640 1630 787.5 c 128,-1,7
 1737 935 1737 935 1929 935 c 0,8,9
 2150.10493827 935 2150.10493827 935 2243.5 757 c 0,10,11
 2317 616.917647059 2317 616.917647059 2317 353 c 0,12,13
 2317 56.1333333333 2317 56.1333333333 2231 -242 c 1,14,-1
 2039 -242 l 1,15,16
 2098.02594194 -69.4626312539 2098.02594194 -69.4626312539 2126 186.5 c 0,17,18
 2136 278 2136 278 2136 362 c 128,-1,19
 2136 446 2136 446 2125.5 518 c 128,-1,20
 2115 590 2115 590 2090 644 c 0,21,22
 2035.37037037 762 2035.37037037 762 1926.18518519 762 c 128,-1,23
 1817 762 1817 762 1757.5 655 c 128,-1,24
 1698 548 1698 548 1698 340 c 2,25,-1
 1698 169 l 1,26,-1
 1820 169 l 1,27,-1
 1820 509 l 1,28,-1
 2004 509 l 1,29,-1
 2004 5 l 1,30,-1
 2002 5 l 1,31,32
 2002 -131.88 2002 -131.88 1968 -194.44 c 128,-1,33
 1934 -257 1934 -257 1890.5 -286 c 128,-1,34
 1847 -315 1847 -315 1777 -315 c 0,35,36
 1523 -315 1523 -315 1523 5 c 1,37,-1
 1224 5 l 1,38,39
 1232 42 1232 42 1240.5 72 c 128,-1,40
 1249 102 1249 102 1255.5 130.5 c 0,41,42
 1270 194.076923077 1270 194.076923077 1270 236.538461538 c 128,-1,43
 1270 279 1270 279 1265 301 c 128,-1,44
 1260 323 1260 323 1249 341 c 0,45,46
 1223.94444444 382 1223.94444444 382 1186.97222222 382 c 128,-1,47
 1150 382 1150 382 1130.5 369 c 128,-1,48
 1111 356 1111 356 1099 336 c 0,49,50
 1076 297.666666667 1076 297.666666667 1076 253.333333333 c 128,-1,51
 1076 209 1076 209 1080 180 c 128,-1,52
 1084 151 1084 151 1090.5 124 c 128,-1,53
 1097 97 1097 97 1106.5 68.5 c 128,-1,54
 1116 40 1116 40 1127 5 c 1,55,-1
 943 5 l 1,56,57
 934 41 934 41 926 69 c 128,-1,58
 918 97 918 97 912 124.5 c 0,59,60
 899 184.083333333 899 184.083333333 899 246.041666667 c 128,-1,61
 899 308 899 308 917 367.5 c 128,-1,62
 935 427 935 427 969.5 473.5 c 0,63,64
 1046.29032258 577 1046.29032258 577 1175 577 c 0,65,66
 1300 577 1300 577 1377 478 c 0,67,0
 1412 433 1412 433 1430 375.5 c 128,-1,1
261 593 m 1,68,69
 290.25 619 290.25 619 352.625 619 c 128,-1,70
 415 619 415 619 459 594 c 128,-1,71
 503 569 503 569 530 527.5 c 0,72,73
 580 450.648148148 580 450.648148148 580 322 c 0,74,75
 580 194.540983607 580 194.540983607 520.5 97 c 0,76,77
 450.96 -17 450.96 -17 331 -17 c 0,78,79
 130.907216495 -17 130.907216495 -17 75 229.5 c 0,80,81
 56 313.272727273 56 313.272727273 56 412.636363636 c 128,-1,82
 56 512 56 512 76 603 c 128,-1,83
 96 694 96 694 141.5 765.5 c 0,84,85
 243 925 243 925 447 925 c 0,86,87
 657.884615385 925 657.884615385 925 764.5 785 c 0,88,89
 859 660.909090909 859 660.909090909 859 463.298295455 c 128,-1,90
 859 265.6875 859 265.6875 781 0 c 1,91,-1
 591 0 l 1,92,93
 675 234.315789474 675 234.315789474 675 443 c 0,94,95
 675 637.337078652 675 637.337078652 545.5 713 c 0,96,97
 501 739 501 739 456.5 739 c 128,-1,98
 412 739 412 739 383 726.5 c 128,-1,99
 354 714 354 714 329 693.5 c 0,100,101
 273.157608696 647.70923913 273.157608696 647.70923913 261 593 c 1,68,69
1772 -155 m 0,102,103
 1833 -155 1833 -155 1833 -65 c 2,104,-1
 1833 -54 l 1,105,-1
 1832 5 l 1,106,-1
 1698 5 l 1,107,-1
 1698 -41 l 2,108,109
 1698 -108.714285714 1698 -108.714285714 1738 -143 c 0,110,111
 1752 -155 1752 -155 1772 -155 c 0,102,103
407 294 m 256,112,113
 407 378.034482759 407 378.034482759 369.5 422 c 0,114,115
 355 439 355 439 332.5 439 c 128,-1,116
 310 439 310 439 294.5 422.5 c 128,-1,117
 279 406 279 406 269 383 c 0,118,119
 251 341.6 251 341.6 251 294 c 256,120,121
 251 211.806451613 251 211.806451613 294.5 165.5 c 0,122,123
 310 149 310 149 332.5 149 c 128,-1,124
 355 149 355 149 369.5 166 c 128,-1,125
 384 183 384 183 392 206 c 0,126,127
 407 249.125 407 249.125 407 294 c 256,112,113
EndSplineSet
EndChar

StartChar: uni0D12
Encoding: 111 3346 112
Width: 966
Flags: W
LayerCount: 2
Back
Fore
SplineSet
243 573 m 1,0,1
 284.086956522 608 284.086956522 608 348.543478261 608 c 128,-1,2
 413 608 413 608 456 585 c 128,-1,3
 499 562 499 562 526.5 523 c 0,4,5
 581 445.709090909 581 445.709090909 581 330 c 0,6,7
 581 96.1041666667 581 96.1041666667 451 13.5 c 0,8,9
 403 -17 403 -17 336 -17 c 128,-1,10
 269 -17 269 -17 224.5 3.5 c 128,-1,11
 180 24 180 24 149.5 58 c 128,-1,12
 119 92 119 92 101 136.5 c 128,-1,13
 83 181 83 181 73.5 229 c 0,14,15
 58 307.315789474 58 307.315789474 58 432.657894737 c 128,-1,16
 58 558 58 558 100 656 c 128,-1,17
 142 754 142 754 210.5 815 c 0,18,19
 340.762295082 931 340.762295082 931 539 931 c 0,20,21
 709.575 931 709.575 931 829.5 849 c 0,22,23
 959 760.452991453 959 760.452991453 959 619 c 0,24,25
 959 530.555555556 959 530.555555556 907 467 c 0,26,27
 889 445 889 445 864 429 c 1,28,29
 959 371.321428571 959 371.321428571 959 237 c 0,30,31
 959 129.389830508 959 129.389830508 900.5 58 c 0,32,33
 834.944444444 -22 834.944444444 -22 719 -22 c 0,34,35
 680 -22 680 -22 636 -12 c 1,36,-1
 627 159 l 1,37,38
 662.105263158 130 662.105263158 130 695.052631579 130 c 128,-1,39
 728 130 728 130 740.5 141 c 128,-1,40
 753 152 753 152 761 168.5 c 0,41,42
 777 201.5 777 201.5 777 232.75 c 128,-1,43
 777 264 777 264 767 284 c 128,-1,44
 757 304 757 304 741.5 316 c 0,45,46
 713.083333333 338 713.083333333 338 668 338 c 2,47,-1
 639 338 l 1,48,-1
 639 492 l 1,49,-1
 685 492 l 2,50,51
 722.545454545 492 722.545454545 492 743 529.5 c 0,52,53
 759 558.833333333 759 558.833333333 759 599.916666667 c 128,-1,54
 759 641 759 641 741 666.5 c 128,-1,55
 723 692 723 692 692.5 709 c 0,56,57
 629.705882353 744 629.705882353 744 558.352941176 744 c 128,-1,58
 487 744 487 744 444 736 c 128,-1,59
 401 728 401 728 362.5 708.5 c 0,60,61
 278.280476037 665.843357993 278.280476037 665.843357993 243 573 c 1,0,1
368.5 423.5 m 0,62,63
 353 441 353 441 328.5 441 c 128,-1,64
 304 441 304 441 287.5 424 c 128,-1,65
 271 407 271 407 260.5 383.5 c 0,66,67
 241 339.857142857 241 339.857142857 241 308.428571429 c 128,-1,68
 241 277 241 277 245.5 252 c 128,-1,69
 250 227 250 227 260.5 203.5 c 0,70,71
 286.191489362 146 286.191489362 146 329 146 c 0,72,73
 389.38 146 389.38 146 404.5 254 c 0,74,75
 408 279 408 279 408 294 c 256,76,77
 408 378.903225806 408 378.903225806 368.5 423.5 c 0,62,63
EndSplineSet
EndChar

StartChar: uni0D13
Encoding: 112 3347 113
Width: 1446
Flags: W
LayerCount: 2
Back
Fore
SplineSet
1253 463 m 0,0,1
 1253 735 1253 735 1123 735 c 0,2,3
 1085 735 1085 735 1048.5 711.5 c 128,-1,4
 1012 688 1012 688 991 646 c 1,5,-1
 986 850 l 1,6,7
 1012.52173913 905.695652174 1012.52173913 905.695652174 1112 921 c 0,8,9
 1138 925 1138 925 1177 925 c 128,-1,10
 1216 925 1216 925 1259.5 904 c 128,-1,11
 1303 883 1303 883 1334.5 848 c 128,-1,12
 1366 813 1366 813 1386.5 767 c 128,-1,13
 1407 721 1407 721 1419 670.5 c 0,14,15
 1441 577.916666667 1441 577.916666667 1441 500.458333333 c 128,-1,16
 1441 423 1441 423 1435.5 369 c 128,-1,17
 1430 315 1430 315 1417 261.5 c 128,-1,18
 1404 208 1404 208 1382.5 158 c 128,-1,19
 1361 108 1361 108 1328.5 70 c 0,20,21
 1257.51315789 -13 1257.51315789 -13 1143.05657895 -13 c 128,-1,22
 1028.6 -13 1028.6 -13 986 58 c 1,23,-1
 991 251 l 1,24,25
 1037.11111111 168 1037.11111111 168 1096.55555556 168 c 128,-1,26
 1156 168 1156 168 1185 199.5 c 128,-1,27
 1214 231 1214 231 1229 277 c 0,28,29
 1253 350.6 1253 350.6 1253 463 c 0,0,1
243 573 m 1,30,31
 284.086956522 608 284.086956522 608 348.543478261 608 c 128,-1,32
 413 608 413 608 456 585 c 128,-1,33
 499 562 499 562 526.5 523 c 0,34,35
 581 445.709090909 581 445.709090909 581 330 c 0,36,37
 581 96.1041666667 581 96.1041666667 451 13.5 c 0,38,39
 403 -17 403 -17 336 -17 c 128,-1,40
 269 -17 269 -17 224.5 3.5 c 128,-1,41
 180 24 180 24 149.5 58 c 128,-1,42
 119 92 119 92 101 136.5 c 128,-1,43
 83 181 83 181 73.5 229 c 0,44,45
 58 307.315789474 58 307.315789474 58 432.657894737 c 128,-1,46
 58 558 58 558 100 656 c 128,-1,47
 142 754 142 754 210.5 815 c 0,48,49
 340.762295082 931 340.762295082 931 539 931 c 0,50,51
 709.575 931 709.575 931 829.5 849 c 0,52,53
 959 760.452991453 959 760.452991453 959 619 c 0,54,55
 959 530.555555556 959 530.555555556 907 467 c 0,56,57
 889 445 889 445 864 429 c 1,58,59
 959 371.321428571 959 371.321428571 959 237 c 0,60,61
 959 129.389830508 959 129.389830508 900.5 58 c 0,62,63
 834.944444444 -22 834.944444444 -22 719 -22 c 0,64,65
 680 -22 680 -22 636 -12 c 1,66,-1
 627 159 l 1,67,68
 662.105263158 130 662.105263158 130 695.052631579 130 c 128,-1,69
 728 130 728 130 740.5 141 c 128,-1,70
 753 152 753 152 761 168.5 c 0,71,72
 777 201.5 777 201.5 777 232.75 c 128,-1,73
 777 264 777 264 767 284 c 128,-1,74
 757 304 757 304 741.5 316 c 0,75,76
 713.083333333 338 713.083333333 338 668 338 c 2,77,-1
 639 338 l 1,78,-1
 639 492 l 1,79,-1
 685 492 l 2,80,81
 722.545454545 492 722.545454545 492 743 529.5 c 0,82,83
 759 558.833333333 759 558.833333333 759 599.916666667 c 128,-1,84
 759 641 759 641 741 666.5 c 128,-1,85
 723 692 723 692 692.5 709 c 0,86,87
 629.705882353 744 629.705882353 744 558.352941176 744 c 128,-1,88
 487 744 487 744 444 736 c 128,-1,89
 401 728 401 728 362.5 708.5 c 0,90,91
 278.280476037 665.843357993 278.280476037 665.843357993 243 573 c 1,30,31
368.5 423.5 m 0,92,93
 353 441 353 441 328.5 441 c 128,-1,94
 304 441 304 441 287.5 424 c 128,-1,95
 271 407 271 407 260.5 383.5 c 0,96,97
 241 339.857142857 241 339.857142857 241 308.428571429 c 128,-1,98
 241 277 241 277 245.5 252 c 128,-1,99
 250 227 250 227 260.5 203.5 c 0,100,101
 286.191489362 146 286.191489362 146 329 146 c 0,102,103
 389.38 146 389.38 146 404.5 254 c 0,104,105
 408 279 408 279 408 294 c 256,106,107
 408 378.903225806 408 378.903225806 368.5 423.5 c 0,92,93
EndSplineSet
EndChar

StartChar: uni0D14
Encoding: 113 3348 114
Width: 1809
Flags: W
LayerCount: 2
Back
Fore
SplineSet
243 573 m 1,0,1
 284.086956522 608 284.086956522 608 348.543478261 608 c 128,-1,2
 413 608 413 608 456 585 c 128,-1,3
 499 562 499 562 526.5 523 c 0,4,5
 581 445.709090909 581 445.709090909 581 330 c 0,6,7
 581 96.1041666667 581 96.1041666667 451 13.5 c 0,8,9
 403 -17 403 -17 336 -17 c 128,-1,10
 269 -17 269 -17 224.5 3.5 c 128,-1,11
 180 24 180 24 149.5 58 c 128,-1,12
 119 92 119 92 101 136.5 c 128,-1,13
 83 181 83 181 73.5 229 c 0,14,15
 58 307.315789474 58 307.315789474 58 432.657894737 c 128,-1,16
 58 558 58 558 100 656 c 128,-1,17
 142 754 142 754 210.5 815 c 0,18,19
 340.762295082 931 340.762295082 931 539 931 c 0,20,21
 709.575 931 709.575 931 829.5 849 c 0,22,23
 959 760.452991453 959 760.452991453 959 619 c 0,24,25
 959 530.555555556 959 530.555555556 907 467 c 0,26,27
 889 445 889 445 864 429 c 1,28,29
 959 371.321428571 959 371.321428571 959 237 c 0,30,31
 959 129.389830508 959 129.389830508 900.5 58 c 0,32,33
 834.944444444 -22 834.944444444 -22 719 -22 c 0,34,35
 680 -22 680 -22 636 -12 c 1,36,-1
 627 159 l 1,37,38
 662.105263158 130 662.105263158 130 695.052631579 130 c 128,-1,39
 728 130 728 130 740.5 141 c 128,-1,40
 753 152 753 152 761 168.5 c 0,41,42
 777 201.5 777 201.5 777 232.75 c 128,-1,43
 777 264 777 264 767 284 c 128,-1,44
 757 304 757 304 741.5 316 c 0,45,46
 713.083333333 338 713.083333333 338 668 338 c 2,47,-1
 639 338 l 1,48,-1
 639 492 l 1,49,-1
 685 492 l 2,50,51
 722.545454545 492 722.545454545 492 743 529.5 c 0,52,53
 759 558.833333333 759 558.833333333 759 599.916666667 c 128,-1,54
 759 641 759 641 741 666.5 c 128,-1,55
 723 692 723 692 692.5 709 c 0,56,57
 629.705882353 744 629.705882353 744 558.352941176 744 c 128,-1,58
 487 744 487 744 444 736 c 128,-1,59
 401 728 401 728 362.5 708.5 c 0,60,61
 278.280476037 665.843357993 278.280476037 665.843357993 243 573 c 1,0,1
368.5 423.5 m 0,62,63
 353 441 353 441 328.5 441 c 128,-1,64
 304 441 304 441 287.5 424 c 128,-1,65
 271 407 271 407 260.5 383.5 c 0,66,67
 241 339.857142857 241 339.857142857 241 308.428571429 c 128,-1,68
 241 277 241 277 245.5 252 c 128,-1,69
 250 227 250 227 260.5 203.5 c 0,70,71
 286.191489362 146 286.191489362 146 329 146 c 0,72,73
 389.38 146 389.38 146 404.5 254 c 0,74,75
 408 279 408 279 408 294 c 256,76,77
 408 378.903225806 408 378.903225806 368.5 423.5 c 0,62,63
1130.5 850 m 128,-1,79
 1177 877 1177 877 1251.91428571 877 c 128,-1,80
 1326.82857143 877 1326.82857143 877 1367 803 c 1,81,82
 1396.83712785 856.043782837 1396.83712785 856.043782837 1464.5 876.5 c 0,83,84
 1486 883 1486 883 1508 883 c 0,85,86
 1651.8 883 1651.8 883 1734 746 c 0,87,88
 1804 629.333333333 1804 629.333333333 1804 501.166666667 c 128,-1,89
 1804 373 1804 373 1772.5 283 c 128,-1,90
 1741 193 1741 193 1681.5 127 c 0,91,92
 1553.48484848 -15 1553.48484848 -15 1358.4539627 -15 c 128,-1,93
 1163.42307692 -15 1163.42307692 -15 1090 68 c 1,94,-1
 1090 257 l 1,95,96
 1135 201 1135 201 1200 167.5 c 128,-1,97
 1265 134 1265 134 1339 134 c 128,-1,98
 1413 134 1413 134 1468.5 163.5 c 128,-1,99
 1524 193 1524 193 1560.5 242.5 c 0,100,101
 1632 339.465753425 1632 339.465753425 1632 487 c 0,102,103
 1632 610 1632 610 1580 675 c 0,104,105
 1560 700 1560 700 1536 700 c 128,-1,106
 1512 700 1512 700 1496.5 691.5 c 128,-1,107
 1481 683 1481 683 1469.5 669 c 0,108,109
 1445 639.173913043 1445 639.173913043 1445 601 c 2,110,-1
 1445 460 l 1,111,-1
 1295 460 l 1,112,-1
 1295 620 l 2,113,114
 1295 668.666666667 1295 668.666666667 1261.5 691 c 0,115,116
 1251 698 1251 698 1234 698 c 128,-1,117
 1217 698 1217 698 1200.5 686.5 c 128,-1,118
 1184 675 1184 675 1173.5 657.5 c 0,119,120
 1152 621.666666667 1152 621.666666667 1152 574.833333333 c 128,-1,121
 1152 528 1152 528 1169 479 c 128,-1,122
 1186 430 1186 430 1203 378 c 1,123,-1
 1035 378 l 1,124,125
 1025 426 1025 426 1014.5 470 c 128,-1,126
 1004 514 1004 514 1004 568 c 128,-1,127
 1004 622 1004 622 1016 678.5 c 128,-1,128
 1028 735 1028 735 1056 779 c 128,-1,78
 1084 823 1084 823 1130.5 850 c 128,-1,79
EndSplineSet
EndChar

StartChar: k1
Encoding: 114 3349 115
Width: 1293
GlyphClass: 2
Flags: W
LayerCount: 2
Back
Fore
SplineSet
355 563 m 1,0,1
 393.613333333 925 393.613333333 925 676 925 c 256,2,3
 898.557251908 925 898.557251908 925 964.5 703.5 c 0,4,5
 984 638 984 638 992 563 c 1,6,-1
 1025 563 l 2,7,8
 1145.7037037 563 1145.7037037 563 1220 474.5 c 0,9,10
 1290 391.117647059 1290 391.117647059 1290 267 c 0,11,12
 1290 147.09375 1290 147.09375 1224 61.5 c 0,13,14
 1154.21686747 -29 1154.21686747 -29 1035 -29 c 2,15,-1
 1018 -29 l 1,16,-1
 1018 150 l 1,17,-1
 1035 150 l 2,18,19
 1112 150 1112 150 1112 267 c 0,20,21
 1112 348.545454545 1112 348.545454545 1068.5 381.5 c 0,22,23
 1052 394 1052 394 1025 394 c 2,24,-1
 996 394 l 1,25,26
 981.373390558 101.467811159 981.373390558 101.467811159 828 12 c 0,27,28
 768 -23 768 -23 666.34375 -23 c 128,-1,29
 564.6875 -23 564.6875 -23 509 31 c 1,30,31
 437.75 -29 437.75 -29 360.375 -29 c 128,-1,32
 283 -29 283 -29 231 -5.5 c 128,-1,33
 179 18 179 18 141.5 58.5 c 0,34,35
 61 145.44 61 145.44 61 267 c 0,36,37
 61 392.871794872 61 392.871794872 144 478 c 128,-1,38
 226.875 563 226.875 563 355 563 c 1,0,1
813 563 m 1,39,40
 801.224952741 692.525519849 801.224952741 692.525519849 741.5 730 c 0,41,42
 716 746 716 746 675.5 746 c 128,-1,43
 635 746 635 746 609.5 730 c 128,-1,44
 584 714 584 714 568.5 688.5 c 0,45,46
 544.028235294 648.24 544.028235294 648.24 534 563 c 1,47,-1
 813 563 l 1,39,40
818 394 m 1,48,-1
 529 394 l 1,49,50
 534.739669421 287.816115702 534.739669421 287.816115702 552.869834711 244.908057851 c 0,51,52
 590.85915493 155 590.85915493 155 676 155 c 0,53,54
 796.666666667 155 796.666666667 155 812 316 c 0,55,56
 816 358 816 358 818 394 c 1,48,-1
300.5 159.5 m 128,-1,58
 320 150 320 150 335.25 150 c 128,-1,59
 350.5 150 350.5 150 367.75 153.5 c 0,60,61
 389.928571429 158 389.928571429 158 398 158 c 1,62,63
 357.92575406 253.176334107 357.92575406 253.176334107 351 394 c 1,64,-1
 345 394 l 2,65,66
 297.25 394 297.25 394 266.5 353 c 0,67,68
 239 316.333333333 239 316.333333333 239 280.166666667 c 128,-1,69
 239 244 239 244 246.5 222.5 c 128,-1,70
 254 201 254 201 267.5 185 c 128,-1,57
 281 169 281 169 300.5 159.5 c 128,-1,58
EndSplineSet
EndChar

StartChar: k2
Encoding: 115 3350 116
Width: 1146
GlyphClass: 2
Flags: W
LayerCount: 2
Back
Fore
SplineSet
848.5 644 m 128,-1,1
 874 560 874 560 874 446.5625 c 128,-1,2
 874 333.125 874 333.125 799 155 c 1,3,-1
 973 155 l 1,4,-1
 963 909 l 1,5,-1
 1142 909 l 1,6,-1
 1152 0 l 1,7,-1
 760 1 l 1,8,-1
 760 0 l 1,9,-1
 569 0 l 1,10,-1
 569 37 l 1,11,12
 652.409638554 176.016064257 652.409638554 176.016064257 681 355.5 c 0,13,14
 690 412 690 412 690 465.5 c 128,-1,15
 690 519 690 519 678 570.5 c 128,-1,16
 666 622 666 622 638.5 661.5 c 0,17,18
 578.278481013 748 578.278481013 748 461 748 c 0,19,20
 318.64556962 748 318.64556962 748 261 621.5 c 0,21,22
 243 582 243 582 236 534 c 1,23,24
 274.85 571 274.85 571 331.425 571 c 128,-1,25
 388 571 388 571 431 545.5 c 128,-1,26
 474 520 474 520 502.5 478.5 c 0,27,28
 559 396.228070175 559 396.228070175 559 282 c 0,29,30
 559 166.846153846 559 166.846153846 491.5 76.5 c 0,31,32
 417.908045977 -22 417.908045977 -22 308 -22 c 0,33,34
 53 -22 53 -22 53 411 c 0,35,36
 53 760.717948718 53 760.717948718 273 882 c 0,37,38
 351 925 351 925 458.5 925 c 128,-1,39
 566 925 566 925 643 889 c 128,-1,40
 720 853 720 853 771.5 790.5 c 128,-1,0
 823 728 823 728 848.5 644 c 128,-1,1
311 404 m 256,41,42
 253.181818182 404 253.181818182 404 237 315 c 0,43,44
 233 293 233 293 233 277 c 256,45,46
 233 202.266666667 233 202.266666667 274 164 c 0,47,48
 289 150 289 150 311 150 c 256,49,50
 368.818181818 150 368.818181818 150 385 239 c 0,51,52
 389 261 389 261 389 277 c 256,53,54
 389 353.6 389 353.6 348 390.5 c 0,55,56
 333 404 333 404 311 404 c 256,41,42
EndSplineSet
EndChar

StartChar: k3
Encoding: 116 3351 117
Width: 1035
GlyphClass: 2
Flags: W
LayerCount: 2
Back
Fore
SplineSet
710 746 m 0,0,1
 598 746 598 746 598 623 c 0,2,3
 598 550.347826087 598 550.347826087 619.5 481.173913043 c 128,-1,4
 641 412 641 412 651 373.5 c 128,-1,5
 661 335 661 335 661 280.5 c 128,-1,6
 661 226 661 226 646.5 171.5 c 128,-1,7
 632 117 632 117 600 74.5 c 0,8,9
 529.6 -19 529.6 -19 389 -19 c 0,10,11
 81.4953271028 -19 81.4953271028 -19 58.5 332.5 c 0,12,13
 55 386 55 386 55 432 c 128,-1,14
 55 478 55 478 61.5 538.5 c 128,-1,15
 68 599 68 599 81.5 665.5 c 0,16,17
 113.026239067 820.795918367 113.026239067 820.795918367 164 910 c 1,18,-1
 354 910 l 1,19,20
 290.18957346 824.91943128 290.18957346 824.91943128 253 588.5 c 0,21,22
 239 499.5 239 499.5 239 430.75 c 128,-1,23
 239 362 239 362 246 308.5 c 128,-1,24
 253 255 253 255 269.5 220.5 c 0,25,26
 301.304347826 154 301.304347826 154 379 154 c 0,27,28
 426.974358974 154 426.974358974 154 455.5 198.5 c 0,29,30
 481.308457711 238.76119403 481.308457711 238.76119403 477.154228856 281.880597015 c 128,-1,31
 473 325 473 325 462.5 364.5 c 128,-1,32
 452 404 452 404 441.5 445.5 c 0,33,34
 414 554.19047619 414 554.19047619 414 620.095238095 c 128,-1,35
 414 686 414 686 428.5 741.5 c 128,-1,36
 443 797 443 797 477.5 839 c 0,37,38
 552.25 930 552.25 930 710 930 c 0,39,40
 1001.94174757 930 1001.94174757 930 1028 594.5 c 0,41,42
 1032 543 1032 543 1032 504 c 128,-1,43
 1032 465 1032 465 1027.5 425 c 128,-1,44
 1023 385 1023 385 1015 338.5 c 128,-1,45
 1007 292 1007 292 995.5 243.5 c 128,-1,46
 984 195 984 195 971 149.5 c 0,47,48
 942.4 49.4 942.4 49.4 912 0 c 1,49,-1
 724 0 l 1,50,51
 790.542857143 117.428571429 790.542857143 117.428571429 831 345 c 0,52,53
 848 440.625 848 440.625 848 494 c 0,54,55
 848 746 848 746 710 746 c 0,0,1
EndSplineSet
EndChar

StartChar: k4
Encoding: 117 3352 118
Width: 1602
GlyphClass: 2
Flags: W
LayerCount: 2
Back
Fore
SplineSet
606 580 m 0,0,1
 606 526 606 526 596 456 c 1,2,-1
 673 456 l 1,3,4
 673 731.027027027 673 731.027027027 803 854 c 0,5,6
 883.342857143 930 883.342857143 930 992.171428571 930 c 128,-1,7
 1101 930 1101 930 1164.5 891.5 c 128,-1,8
 1228 853 1228 853 1267 791 c 0,9,10
 1339 676.538461538 1339 676.538461538 1339 494 c 1,11,12
 1338 444 1338 444 1338 398.5 c 2,13,-1
 1338 296 l 1,14,-1
 857 296 l 1,15,-1
 857 159 l 1,16,-1
 1417 159 l 1,17,-1
 1407 909 l 1,18,-1
 1591 909 l 1,19,-1
 1601 0 l 1,20,-1
 673 0 l 1,21,-1
 673 296 l 1,22,23
 668 294 668 294 637.5 293.5 c 0,24,25
 572.754385965 292.438596491 572.754385965 292.438596491 384 296 c 1,26,27
 401 371 401 371 415.5 439.5 c 128,-1,28
 430 508 430 508 430 552.5 c 128,-1,29
 430 597 430 597 425 620.5 c 128,-1,30
 420 644 420 644 409 664 c 0,31,32
 382.6 712 382.6 712 346.3 712 c 128,-1,33
 310 712 310 712 291 697 c 128,-1,34
 272 682 272 682 260 659.5 c 0,35,36
 237 616.375 237 616.375 237 538.005681818 c 128,-1,37
 237 459.636363636 237 459.636363636 287 296 c 1,38,-1
 103 296 l 1,39,40
 61 455.157894737 61 455.157894737 61 540.078947368 c 128,-1,41
 61 625 61 625 78.5 679.5 c 128,-1,42
 96 734 96 734 130.5 777 c 0,43,44
 207.523255814 873 207.523255814 873 335 873 c 0,45,46
 460.43373494 873 460.43373494 873 536.5 781.5 c 0,47,48
 606 697.898550725 606 697.898550725 606 580 c 0,0,1
1154 456 m 1,49,50
 1154 746 1154 746 1007 746 c 0,51,52
 857 746 857 746 857 456 c 1,53,-1
 1154 456 l 1,49,50
EndSplineSet
EndChar

StartChar: ng
Encoding: 118 3353 119
Width: 1321
GlyphClass: 2
Flags: W
LayerCount: 2
Back
Fore
SplineSet
308 -22 m 0,0,1
 50 -22 50 -22 50 412 c 0,2,3
 50 816.623931624 50 816.623931624 308.5 905 c 0,4,5
 367 925 367 925 424 925 c 128,-1,6
 481 925 481 925 526.5 918.5 c 128,-1,7
 572 912 572 912 615 896.5 c 0,8,9
 714.487084871 860.638376384 714.487084871 860.638376384 747 792 c 1,10,11
 772.780051151 863.815856777 772.780051151 863.815856777 855 901.5 c 0,12,13
 921.545454545 932 921.545454545 932 999.772727273 932 c 128,-1,14
 1078 932 1078 932 1137 911 c 128,-1,15
 1196 890 1196 890 1239 850.5 c 0,16,17
 1331 765.988372093 1331 765.988372093 1331 626 c 0,18,19
 1331 545.0625 1331 545.0625 1322.5 519.03125 c 0,20,21
 1304.25950197 463.169724771 1304.25950197 463.169724771 1237 426 c 1,22,23
 1318.19817471 391.949152542 1318.19817471 391.949152542 1328 307 c 0,24,25
 1331 281 1331 281 1331 240 c 128,-1,26
 1331 199 1331 199 1317.5 153 c 128,-1,27
 1304 107 1304 107 1277 72.5 c 0,28,29
 1218.69565217 -2 1218.69565217 -2 1111 -2 c 2,30,-1
 1023 -2 l 1,31,-1
 1023 181 l 1,32,33
 1110.51724138 181 1110.51724138 181 1135.5 212.5 c 0,34,35
 1147 227 1147 227 1147 252 c 256,36,37
 1147 315.25 1147 315.25 1070 320.5 c 0,38,39
 1048 322 1048 322 1025 322 c 1,40,-1
 1025 505 l 1,41,-1
 1046 505 l 2,42,43
 1093.78378378 505 1093.78378378 505 1122.5 547.5 c 0,44,45
 1147 583.76 1147 583.76 1147 625.38 c 128,-1,46
 1147 667 1147 667 1134.5 688 c 128,-1,47
 1122 709 1122 709 1101.5 721.5 c 0,48,49
 1064.6 744 1064.6 744 1008.3 744 c 128,-1,50
 952 744 952 744 920 727.5 c 128,-1,51
 888 711 888 711 870.5 683 c 0,52,53
 840 634.2 840 634.2 840 535 c 2,54,-1
 840 0 l 1,55,-1
 657 0 l 1,56,-1
 657 519 l 2,57,58
 657 622 657 622 604 683 c 128,-1,59
 551 744 551 744 441 744 c 0,60,61
 267.465116279 744 267.465116279 744 239 540 c 1,62,63
 279.375 578 279.375 578 334.1875 578 c 128,-1,64
 389 578 389 578 432.5 550.5 c 128,-1,65
 476 523 476 523 504.5 479.5 c 0,66,67
 561 393.263157895 561 393.263157895 561 278 c 128,-1,68
 561 162.769230769 561 162.769230769 493.5 74.5 c 0,69,70
 419.705882353 -22 419.705882353 -22 308 -22 c 0,0,1
383 240 m 0,71,72
 387 261 387 261 387 277.5 c 128,-1,73
 387 294 387 294 383 315.5 c 128,-1,74
 379 337 379 337 370 356.5 c 0,75,76
 349 402 349 402 311 402 c 256,77,78
 255.093023256 402 255.093023256 402 239 315.5 c 0,79,80
 235 294 235 294 235 277.5 c 128,-1,81
 235 261 235 261 239 240 c 128,-1,82
 243 219 243 219 252 199.5 c 0,83,84
 273 154 273 154 311 154 c 256,85,86
 366.619047619 154 366.619047619 154 383 240 c 0,71,72
EndSplineSet
EndChar

StartChar: ch1
Encoding: 119 3354 120
Width: 1152
GlyphClass: 2
Flags: W
LayerCount: 2
Back
Fore
SplineSet
756 159 m 1,0,-1
 970 159 l 1,1,-1
 960 909 l 1,2,-1
 1144 909 l 1,3,-1
 1154 0 l 1,4,-1
 50 0 l 1,5,-1
 60 149 l 1,6,-1
 494 159 l 2,7,8
 556.817610063 160.903563941 556.817610063 160.903563941 601.5 228.5 c 0,9,10
 643 291.282051282 643 291.282051282 643 357 c 0,11,12
 643 526 643 526 509.5 526 c 128,-1,13
 376 526 376 526 376 349 c 0,14,15
 376 274.6 376 274.6 412 226 c 1,16,-1
 228 226 l 1,17,18
 195 292 195 292 195 369 c 128,-1,19
 195 446 195 446 214.5 508 c 128,-1,20
 234 570 234 570 273 614 c 0,21,22
 355.431818182 707 355.431818182 707 508 707 c 0,23,24
 655.457831325 707 655.457831325 707 743 620.5 c 0,25,26
 831 533.547619048 831 533.547619048 831 394.350732601 c 128,-1,27
 831 255.153846154 831 255.153846154 756 159 c 1,0,-1
EndSplineSet
EndChar

StartChar: ch2
Encoding: 120 3355 121
Width: 1628
GlyphClass: 2
Flags: W
LayerCount: 2
Back
Fore
SplineSet
1253 925 m 0,0,1
 1632 925 1632 925 1632 454 c 0,2,3
 1632 164.948275862 1632 164.948275862 1552 61.5 c 0,4,5
 1488.97333333 -20 1488.97333333 -20 1371 -20 c 0,6,7
 1241.32323232 -20 1241.32323232 -20 1176 91.5 c 0,8,9
 1121 185.379310345 1121 185.379310345 1121 322 c 0,10,11
 1121 550.222222222 1121 550.222222222 1236 632 c 0,12,13
 1281 664 1281 664 1351 664 c 0,14,15
 1409.76470588 664 1409.76470588 664 1438 634 c 1,16,17
 1400.1875 744 1400.1875 744 1251 744 c 0,18,19
 1135.09756098 744 1135.09756098 744 1078.5 653 c 0,20,21
 1031 576.62745098 1031 576.62745098 1031 430.629514964 c 128,-1,22
 1031 284.631578947 1031 284.631578947 1135 0 c 1,23,-1
 50 0 l 1,24,-1
 60 149 l 1,25,-1
 464 159 l 2,26,27
 526.817610063 160.903563941 526.817610063 160.903563941 571.5 228.5 c 0,28,29
 613 291.282051282 613 291.282051282 613 341.141025641 c 128,-1,30
 613 391 613 391 606.5 421.5 c 128,-1,31
 600 452 600 452 584 475 c 0,32,33
 548.52173913 526 548.52173913 526 478 526 c 0,34,35
 346 526 346 526 346 349 c 0,36,37
 346 274.6 346 274.6 382 226 c 1,38,-1
 198 226 l 1,39,40
 165 292 165 292 165 369 c 128,-1,41
 165 446 165 446 184.5 507.5 c 128,-1,42
 204 569 204 569 243.5 613.5 c 0,43,44
 326.494382022 707 326.494382022 707 478 707 c 0,45,46
 625.457831325 707 625.457831325 707 713 620.5 c 0,47,48
 801 533.547619048 801 533.547619048 801 394.629072682 c 128,-1,49
 801 255.710526316 801 255.710526316 726 159 c 1,50,-1
 903 159 l 1,51,52
 848 347.571428571 848 347.571428571 848 452.785714286 c 128,-1,53
 848 558 848 558 872 643 c 128,-1,54
 896 728 896 728 945.5 790.5 c 0,55,56
 1052.024 925 1052.024 925 1253 925 c 0,0,1
1446 321 m 256,57,58
 1446 413.032258065 1446 413.032258065 1403.5 466.5 c 0,59,60
 1388 486 1388 486 1365.5 486 c 128,-1,61
 1343 486 1343 486 1329 466.5 c 128,-1,62
 1315 447 1315 447 1307 420 c 0,63,64
 1293 372.75 1293 372.75 1293 321 c 256,65,66
 1293 225.642857143 1293 225.642857143 1329 175.5 c 0,67,68
 1343 156 1343 156 1365.5 156 c 128,-1,69
 1388 156 1388 156 1403.5 175.5 c 128,-1,70
 1419 195 1419 195 1428.5 221.5 c 0,71,72
 1446 270.315789474 1446 270.315789474 1446 321 c 256,57,58
EndSplineSet
EndChar

StartChar: ch3
Encoding: 121 3356 122
Width: 1175
GlyphClass: 2
Flags: W
LayerCount: 2
Back
Fore
SplineSet
629 844 m 1,0,1
 702.625 937 702.625 937 837 937 c 0,2,3
 984.056179775 937 984.056179775 937 1069 842.5 c 0,4,5
 1151 751.275 1151 751.275 1151 606 c 0,6,7
 1151 493.555555556 1151 493.555555556 1101 413 c 0,8,9
 1083 384 1083 384 1057 363 c 1,10,11
 1099 339 1099 339 1118.5 294 c 128,-1,12
 1138 249 1138 249 1138 201 c 128,-1,13
 1138 153 1138 153 1120.5 114 c 128,-1,14
 1103 75 1103 75 1072.5 47 c 0,15,16
 1010.41071429 -10 1010.41071429 -10 911 -10 c 0,17,18
 775 -10 775 -10 716.5 83 c 0,19,20
 697 114 697 114 692 155 c 1,21,22
 656.729346486 67.751541307 656.729346486 67.751541307 561 21 c 0,23,24
 430.275882705 -42.842010772 430.275882705 -42.842010772 266 -7 c 0,25,26
 145.639696587 19.2604298357 145.639696587 19.2604298357 89 99.5 c 0,27,28
 59 142 59 142 59 192.5 c 128,-1,29
 59 243 59 243 73.5 274 c 128,-1,30
 88 305 88 305 113 326.5 c 0,31,32
 164.744186047 371 164.744186047 371 243 371 c 2,33,-1
 796 371 l 2,34,35
 879.538461538 371 879.538461538 371 927.5 443.5 c 0,36,37
 969 506.23255814 969 506.23255814 969 596 c 0,38,39
 969 770 969 770 841 770 c 0,40,41
 793 770 793 770 762 746.5 c 128,-1,42
 731 723 731 723 731 673 c 2,43,-1
 731 406 l 1,44,-1
 542 406 l 1,45,46
 542 441 542 441 543.5 473.5 c 0,47,48
 549.777070064 609.503184713 549.777070064 609.503184713 539 658 c 256,49,50
 526.102310231 716.03960396 526.102310231 716.03960396 497.551155116 739.01980198 c 0,51,52
 446.636363636 780 446.636363636 780 387.318181818 780 c 0,53,54
 267.25 780 267.25 780 226 720 c 1,55,56
 261 744 261 744 299.5 744 c 128,-1,57
 338 744 338 744 368 731.5 c 128,-1,58
 398 719 398 719 419 696.5 c 0,59,60
 462 650.428571429 462 650.428571429 462 591.214285714 c 128,-1,61
 462 532 462 532 447.5 497 c 128,-1,62
 433 462 433 462 406.5 439 c 0,63,64
 352.347826087 392 352.347826087 392 280.173913043 392 c 128,-1,65
 208 392 208 392 169 413.5 c 128,-1,66
 130 435 130 435 105 470.5 c 0,67,68
 57 538.66 57 538.66 57 628.33 c 128,-1,69
 57 718 57 718 82 773 c 128,-1,70
 107 828 107 828 151 864.5 c 0,71,72
 238.397260274 937 238.397260274 937 388.167380137 937 c 128,-1,73
 537.9375 937 537.9375 937 629 844 c 1,0,1
897 274 m 256,74,75
 850.75 274 850.75 274 831.5 225 c 0,76,77
 826 211 826 211 826 189 c 128,-1,78
 826 167 826 167 844 145 c 128,-1,79
 862 123 862 123 892.5 123 c 128,-1,80
 923 123 923 123 945 144.5 c 128,-1,81
 967 166 967 166 967 188.5 c 128,-1,82
 967 211 967 211 961.5 225 c 128,-1,83
 956 239 956 239 947 250 c 0,84,85
 927.363636364 274 927.363636364 274 897 274 c 256,74,75
310.5 626.5 m 128,-1,87
 296 646 296 646 271.5 646 c 128,-1,88
 247 646 247 646 232 626.5 c 128,-1,89
 217 607 217 607 217 583.5 c 128,-1,90
 217 560 217 560 232 539.5 c 128,-1,91
 247 519 247 519 271.5 519 c 128,-1,92
 296 519 296 519 310.5 539.5 c 128,-1,93
 325 560 325 560 325 583.5 c 128,-1,86
 325 607 325 607 310.5 626.5 c 128,-1,87
246 200 m 0,94,95
 246 131 246 131 400 131 c 0,96,97
 558.35483871 131 558.35483871 131 590 240 c 1,98,-1
 288 240 l 2,99,100
 271 240 271 240 258.5 228 c 128,-1,101
 246 216 246 216 246 200 c 0,94,95
EndSplineSet
EndChar

StartChar: ch4
Encoding: 122 3357 123
Width: 2079
GlyphClass: 2
Flags: W
LayerCount: 2
Back
Fore
SplineSet
2007 910 m 1,0,1
 2072 715 2072 715 2072 483 c 0,2,3
 2072 95.6310679612 2072 95.6310679612 1857.5 4 c 0,4,5
 1806 -18 1806 -18 1737 -18 c 0,6,7
 1617.85714286 -18 1617.85714286 -18 1530 87 c 1,8,9
 1446 -18 1446 -18 1307 -18 c 0,10,11
 1175.36363636 -18 1175.36363636 -18 1098 62.5 c 0,12,13
 1021 142.621621622 1021 142.621621622 1021 274 c 0,14,15
 1021 355 1021 355 1031.5 434 c 128,-1,16
 1042 513 1042 513 1042 594 c 256,17,18
 1042 675 1042 675 1004.5 716.5 c 128,-1,19
 967 758 967 758 882 758 c 0,20,21
 846 758 846 758 815 743 c 1,22,23
 953 614.857142857 953 614.857142857 953 405 c 0,24,25
 953 125.113043478 953 125.113043478 799.5 21 c 0,26,27
 742 -18 742 -18 669.5 -18 c 128,-1,28
 597 -18 597 -18 552 1 c 128,-1,29
 507 20 507 20 474 52 c 128,-1,30
 441 84 441 84 418 126.5 c 128,-1,31
 395 169 395 169 381 217 c 0,32,33
 355 306.142857143 355 306.142857143 355 413 c 0,34,35
 355 619 355 619 478 742 c 1,36,-1
 428 744 l 1,37,38
 328.422300607 745.810503625 328.422300607 745.810503625 278.5 639 c 0,39,40
 240 556.627906977 240 556.627906977 240 443 c 0,41,42
 240 176.696969697 240 176.696969697 359 0 c 1,43,-1
 155 0 l 1,44,45
 56 225.97826087 56 225.97826087 56 443 c 0,46,47
 56 641.307692308 56 641.307692308 143.5 774 c 0,48,49
 245.710144928 929 245.710144928 929 433 929 c 0,50,51
 551.862068966 929 551.862068966 929 641 874 c 1,52,53
 729.714285714 928 729.714285714 928 825.357142857 928 c 128,-1,54
 921 928 921 928 991 908.5 c 128,-1,55
 1061 889 1061 889 1114.5 849 c 0,56,57
 1231 761.897196262 1231 761.897196262 1231 602 c 0,58,59
 1231 519 1231 519 1220.5 438 c 128,-1,60
 1210 357 1210 357 1210 291 c 0,61,62
 1210 163 1210 163 1312 163 c 0,63,64
 1371 163 1371 163 1402 201 c 128,-1,65
 1433 239 1433 239 1433 295 c 2,66,-1
 1433 905 l 1,67,-1
 1613 905 l 1,68,-1
 1613 295 l 2,69,70
 1613 206.534883721 1613 206.534883721 1678.5 171.5 c 0,71,72
 1700 160 1700 160 1741.5 160 c 128,-1,73
 1783 160 1783 160 1815.5 190 c 128,-1,74
 1848 220 1848 220 1865 264 c 0,75,76
 1893 336.470588235 1893 336.470588235 1893 450 c 0,77,78
 1893 674.125 1893 674.125 1819 910 c 1,79,-1
 2007 910 l 1,0,1
767.5 336 m 0,80,81
 769 379 769 379 769 412 c 128,-1,82
 769 445 769 445 763.5 484.5 c 128,-1,83
 758 524 758 524 745 561 c 0,84,85
 715.75 644.25 715.75 644.25 652 678 c 1,86,87
 567.148479428 627.61940966 567.148479428 627.61940966 545 485.5 c 0,88,89
 539 447 539 447 539 416.5 c 128,-1,90
 539 386 539 386 543 343 c 128,-1,91
 547 300 547 300 559.5 258.5 c 0,92,93
 589.771084337 158 589.771084337 158 655 158 c 0,94,95
 761.290697674 158 761.290697674 158 767.5 336 c 0,80,81
EndSplineSet
EndChar

StartChar: nj
Encoding: 123 3358 124
Width: 1826
GlyphClass: 2
Flags: W
LayerCount: 2
Back
Fore
SplineSet
1221 874 m 1,0,1
 1312.03448276 929 1312.03448276 929 1426.01724138 929 c 128,-1,2
 1540 929 1540 929 1615.5 893 c 128,-1,3
 1691 857 1691 857 1738.5 794.5 c 0,4,5
 1829 675.421052632 1829 675.421052632 1829 471.043859649 c 128,-1,6
 1829 266.666666667 1829 266.666666667 1729 0 c 1,7,-1
 1522 0 l 1,8,9
 1645 243.722222222 1645 243.722222222 1645 464 c 0,10,11
 1645 746.292307692 1645 746.292307692 1431 743 c 1,12,-1
 1395 743 l 1,13,14
 1465 679 1465 679 1499 589 c 128,-1,15
 1533 499 1533 499 1533 416 c 128,-1,16
 1533 333 1533 333 1519.5 257 c 128,-1,17
 1506 181 1506 181 1472 118 c 0,18,19
 1394.82539683 -25 1394.82539683 -25 1235 -25 c 0,20,21
 1076.39534884 -25 1076.39534884 -25 997.5 122.5 c 0,22,23
 935 239.347826087 935 239.347826087 935 429.173913043 c 128,-1,24
 935 619 935 619 1058 742 c 1,25,26
 1032 744 1032 744 997.5 744 c 128,-1,27
 963 744 963 744 929.5 728.5 c 128,-1,28
 896 713 896 713 874.5 686.5 c 0,29,30
 831 632.88372093 831 632.88372093 831 545 c 2,31,-1
 831 0 l 1,32,-1
 647 0 l 1,33,-1
 647 553 l 2,34,35
 647 657 647 657 594 700.5 c 128,-1,36
 541 744 541 744 441 744 c 0,37,38
 267.465116279 744 267.465116279 744 239 540 c 1,39,40
 279.235294118 578 279.235294118 578 334.117647059 578 c 128,-1,41
 389 578 389 578 432.5 550.5 c 128,-1,42
 476 523 476 523 504.5 479.5 c 0,43,44
 561 393.263157895 561 393.263157895 561 278 c 128,-1,45
 561 162.769230769 561 162.769230769 493.5 74.5 c 0,46,47
 419.705882353 -22 419.705882353 -22 308 -22 c 0,48,49
 136.808510638 -22 136.808510638 -22 74 224 c 0,50,51
 51 314.083333333 51 314.083333333 51 388.541666667 c 128,-1,52
 51 463 51 463 61 525.5 c 128,-1,53
 71 588 71 588 92 646.5 c 128,-1,54
 113 705 113 705 145.5 755.5 c 128,-1,55
 178 806 178 806 223 844 c 0,56,57
 318.921052632 925 318.921052632 925 453 925 c 0,58,59
 591.333333333 925 591.333333333 925 682 857 c 0,60,61
 714 833 714 833 732 799 c 1,62,63
 821.142857143 929 821.142857143 929 1013 929 c 0,64,65
 1131.86206897 929 1131.86206897 929 1221 874 c 1,0,1
1347 336.5 m 0,66,67
 1349 379 1349 379 1349 411 c 128,-1,68
 1349 443 1349 443 1343 483 c 128,-1,69
 1337 523 1337 523 1323.5 560.5 c 0,70,71
 1292.40178571 646.883928571 1292.40178571 646.883928571 1232 678 c 1,72,73
 1150.09815951 631.588957055 1150.09815951 631.588957055 1125.5 484 c 0,74,75
 1119 445 1119 445 1119 415.5 c 128,-1,76
 1119 386 1119 386 1123.5 343 c 128,-1,77
 1128 300 1128 300 1140.5 259 c 0,78,79
 1171.29268293 158 1171.29268293 158 1235 158 c 0,80,81
 1338.6 158 1338.6 158 1347 336.5 c 0,66,67
349.5 389.5 m 0,82,83
 333 402 333 402 310.5 402 c 128,-1,84
 288 402 288 402 272 389.5 c 128,-1,85
 256 377 256 377 245.5 358.5 c 0,86,87
 225 322.380952381 225 322.380952381 225 278 c 256,88,89
 225 203.21875 225 203.21875 272 166.5 c 0,90,91
 288 154 288 154 310.5 154 c 128,-1,92
 333 154 333 154 349.5 166.5 c 128,-1,93
 366 179 366 179 376.5 197.5 c 0,94,95
 397 233.619047619 397 233.619047619 397 278 c 256,96,97
 397 353.515151515 397 353.515151515 349.5 389.5 c 0,82,83
EndSplineSet
EndChar

StartChar: t1
Encoding: 124 3359 125
Width: 774
GlyphClass: 2
Flags: W
LayerCount: 2
Back
Fore
SplineSet
747 835 m 1,0,-1
 747 597 l 1,1,2
 683.131054131 704.415954416 683.131054131 704.415954416 536 733.5 c 0,3,4
 493 742 493 742 457 742 c 128,-1,5
 421 742 421 742 387 736 c 128,-1,6
 353 730 353 730 324 715.5 c 0,7,8
 257 682 257 682 257 614 c 0,9,10
 257 558.653846154 257 558.653846154 297 532.5 c 0,11,12
 310 524 310 524 338.5 524 c 128,-1,13
 367 524 367 524 405.5 533.5 c 128,-1,14
 444 543 444 543 493.5 543 c 128,-1,15
 543 543 543 543 597.5 526 c 128,-1,16
 652 509 652 509 693.5 476 c 0,17,18
 785 403.240963855 785 403.240963855 785 282 c 0,19,20
 785 138.148148148 785 138.148148148 664 53 c 0,21,22
 556 -23 556 -23 387.0625 -23 c 128,-1,23
 218.125 -23 218.125 -23 85 67 c 1,24,-1
 85 309 l 1,25,26
 215.866666667 158 215.866666667 158 364 158 c 0,27,28
 499.487804878 158 499.487804878 158 561 206.5 c 0,29,30
 587 227 587 227 587 254 c 128,-1,31
 587 281 587 281 578 298 c 128,-1,32
 569 315 569 315 554.5 327.5 c 0,33,34
 523.76 354 523.76 354 485 354 c 1,35,-1
 291 339 l 1,36,37
 190.435897436 339 190.435897436 339 125 427 c 0,38,39
 66 506.344827586 66 506.344827586 66 599.672413793 c 128,-1,40
 66 693 66 693 97 752.5 c 128,-1,41
 128 812 128 812 180 851 c 0,42,43
 282.666666667 928 282.666666667 928 452.200680272 928 c 128,-1,44
 621.734693878 928 621.734693878 928 747 835 c 1,0,-1
EndSplineSet
EndChar

StartChar: t2
Encoding: 125 3360 126
Width: 782
GlyphClass: 2
Flags: W
LayerCount: 2
Back
Fore
SplineSet
420 -14 m 256,0,1
 224.186046512 -14 224.186046512 -14 132.5 128.5 c 0,2,3
 57 245.843373494 57 245.843373494 57 453 c 0,4,5
 57 780.471428571 57 780.471428571 244 890 c 0,6,7
 314 931 314 931 420 931 c 256,8,9
 614.169230769 931 614.169230769 931 705 787 c 0,10,11
 779 669.682926829 779 669.682926829 779 462 c 0,12,13
 779 133.431654676 779 133.431654676 595.5 26.5 c 0,14,15
 526 -14 526 -14 420 -14 c 256,0,1
561 638 m 0,16,17
 519.139534884 738 519.139534884 738 420 738 c 0,18,19
 246 738 246 738 246 448 c 0,20,21
 246 269.764705882 246 269.764705882 332 204 c 0,22,23
 366 178 366 178 420 178 c 256,24,25
 516.634146341 178 516.634146341 178 559.5 273 c 0,26,27
 591 342.810810811 591 342.810810811 591 419.405405405 c 0,28,29
 591 566.333333333 591 566.333333333 561 638 c 0,16,17
EndSplineSet
EndChar

StartChar: t3
Encoding: 126 3361 127
Width: 1543
GlyphClass: 2
Flags: W
LayerCount: 2
Back
Fore
SplineSet
1362 418 m 0,0,1
 1362 649 1362 649 1233 907 c 1,2,-1
 1422 907 l 1,3,4
 1507.80310881 772.575129534 1507.80310881 772.575129534 1533.5 567 c 0,5,6
 1541 507 1541 507 1541 434.5 c 128,-1,7
 1541 362 1541 362 1528 276.5 c 128,-1,8
 1515 191 1515 191 1478.5 124.5 c 0,9,10
 1398.09022556 -22 1398.09022556 -22 1218.31930633 -22 c 128,-1,11
 1038.5483871 -22 1038.5483871 -22 977 84 c 1,12,13
 912.517241379 -26 912.517241379 -26 759 -26 c 0,14,15
 618.929411765 -26 618.929411765 -26 542.5 65.5 c 0,16,17
 472 149.901408451 472 149.901408451 472 288 c 0,18,19
 472 339.142857143 472 339.142857143 485 411.571428571 c 0,20,21
 510 550.857142857 510 550.857142857 510 590.428571429 c 128,-1,22
 510 630 510 630 507 658.5 c 128,-1,23
 504 687 504 687 493 710.5 c 0,24,25
 468.425531915 763 468.425531915 763 411.212765957 763 c 128,-1,26
 354 763 354 763 321.5 738 c 128,-1,27
 289 713 289 713 268.5 675.5 c 0,28,29
 231 606.902439024 231 606.902439024 231 510 c 0,30,31
 231 166.612244898 231 166.612244898 393 -2 c 1,32,-1
 185 -2 l 1,33,34
 88.8223140496 121.657024793 88.8223140496 121.657024793 62.5 337.5 c 0,35,36
 55 399 55 399 55 469 c 128,-1,37
 55 539 55 539 70 624 c 128,-1,38
 85 709 85 709 124 778 c 0,39,40
 211.608695652 933 211.608695652 933 407 933 c 0,41,42
 537.431818182 933 537.431818182 933 619 836 c 0,43,44
 694 746.810810811 694 746.810810811 694 610 c 0,45,46
 694 553.285714286 694 553.285714286 681.5 483.642857143 c 0,47,48
 658 352.714285714 658 352.714285714 658 311.857142857 c 128,-1,49
 658 271 658 271 664 244.5 c 128,-1,50
 670 218 670 218 683.5 196.5 c 0,51,52
 713.953488372 148 713.953488372 148 757.476744186 148 c 128,-1,53
 801 148 801 148 823.5 163.5 c 128,-1,54
 846 179 846 179 860.5 203 c 0,55,56
 889 250.172413793 889 250.172413793 889 312 c 2,57,-1
 889 897 l 1,58,-1
 1070 897 l 1,59,-1
 1070 312 l 2,60,61
 1070 252.111111111 1070 252.111111111 1098 215.555555556 c 0,62,63
 1148.21276596 150 1148.21276596 150 1206.60638298 150 c 128,-1,64
 1265 150 1265 150 1296.5 176 c 128,-1,65
 1328 202 1328 202 1342.5 241.5 c 0,66,67
 1362 294.620689655 1362 294.620689655 1362 418 c 0,0,1
EndSplineSet
EndChar

StartChar: t4
Encoding: 127 3362 128
Width: 1635
GlyphClass: 2
Flags: W
LayerCount: 2
Back
Fore
SplineSet
1373 925 m 0,0,1
 1632 925 1632 925 1632 491 c 0,2,3
 1632 90.8739495798 1632 90.8739495798 1375.5 2.5 c 0,4,5
 1316 -18 1316 -18 1258 -18 c 128,-1,6
 1200 -18 1200 -18 1162.5 -8.5 c 128,-1,7
 1125 1 1125 1 1091.5 19.5 c 0,8,9
 1019.16843501 59.4442970822 1019.16843501 59.4442970822 982 124 c 1,10,11
 929.33808554 24.8716904277 929.33808554 24.8716904277 811 -8 c 0,12,13
 775 -18 775 -18 721.5 -18 c 128,-1,14
 668 -18 668 -18 616.5 5 c 128,-1,15
 565 28 565 28 532 68.5 c 0,16,17
 467 148.272727273 467 148.272727273 467 288 c 0,18,19
 467 339.142857143 467 339.142857143 480 411.571428571 c 0,20,21
 505 550.857142857 505 550.857142857 505 602 c 0,22,23
 505 763 505 763 392 763 c 0,24,25
 307.333333333 763 307.333333333 763 266.5 675.5 c 0,26,27
 236 610.142857143 236 610.142857143 236 510 c 0,28,29
 236 170.125 236 170.125 398 -2 c 1,30,-1
 190 -2 l 1,31,32
 60 174.944444444 60 174.944444444 60 455 c 0,33,34
 60 933 60 933 397 933 c 0,35,36
 528.494382022 933 528.494382022 933 611.5 834.5 c 0,37,38
 689 742.533333333 689 742.533333333 689 610 c 0,39,40
 689 553.285714286 689 553.285714286 676.5 483.642857143 c 0,41,42
 653 352.714285714 653 352.714285714 653 296 c 0,43,44
 653 158 653 158 749 158 c 0,45,46
 807.088888889 158 807.088888889 158 843 208.5 c 0,47,48
 874 252.09375 874 252.09375 874 312 c 2,49,-1
 874 897 l 1,50,-1
 1055 897 l 1,51,-1
 1055 442 l 2,52,53
 1055 303.714285714 1055 303.714285714 1117 224 c 0,54,55
 1172.22222222 153 1172.22222222 153 1253 153 c 0,56,57
 1360.93670886 153 1360.93670886 153 1415.5 269.5 c 0,58,59
 1434 309 1434 309 1442 362 c 1,60,61
 1402.19047619 324 1402.19047619 324 1348.0952381 324 c 128,-1,62
 1294 324 1294 324 1252 351 c 128,-1,63
 1210 378 1210 378 1183 421 c 0,64,65
 1131 503.814814815 1131 503.814814815 1131 625 c 256,66,67
 1131 743.5 1131 743.5 1193 828.5 c 0,68,69
 1263.38823529 925 1263.38823529 925 1373 925 c 0,0,1
1371 748 m 256,70,71
 1327.35897436 748 1327.35897436 748 1303 700.5 c 0,72,73
 1285 665.4 1285 665.4 1285 637.7 c 128,-1,74
 1285 610 1285 610 1289 588.5 c 128,-1,75
 1293 567 1293 567 1303 547.5 c 0,76,77
 1327.35897436 500 1327.35897436 500 1371 500 c 256,78,79
 1414.64102564 500 1414.64102564 500 1439 547.5 c 0,80,81
 1457 582.6 1457 582.6 1457 610.8 c 0,82,83
 1457 665.4 1457 665.4 1435.82051282 706.7 c 128,-1,84
 1414.64102564 748 1414.64102564 748 1371 748 c 256,70,71
EndSplineSet
EndChar

StartChar: nh
Encoding: 128 3363 129
Width: 1749
GlyphClass: 2
Flags: W
LayerCount: 2
Back
Fore
SplineSet
960 927 m 0,0,1
 1124.61290323 927 1124.61290323 927 1185 823 c 1,2,3
 1229 884 1229 884 1288 905.5 c 128,-1,4
 1347 927 1347 927 1414.5 927 c 128,-1,5
 1482 927 1482 927 1530 907.5 c 128,-1,6
 1578 888 1578 888 1614 855 c 128,-1,7
 1650 822 1650 822 1674.5 777.5 c 128,-1,8
 1699 733 1699 733 1714 682.5 c 0,9,10
 1742 588.233333333 1742 588.233333333 1742 508.616666667 c 128,-1,11
 1742 429 1742 429 1735 364.5 c 128,-1,12
 1728 300 1728 300 1715.5 232.5 c 0,13,14
 1686.45360825 75.6494845361 1686.45360825 75.6494845361 1652 1 c 1,15,-1
 1464 1 l 1,16,17
 1525.10775428 126.270896274 1525.10775428 126.270896274 1551 363 c 0,18,19
 1558 427 1558 427 1558 467.5 c 128,-1,20
 1558 508 1558 508 1552.5 555 c 128,-1,21
 1547 602 1547 602 1531 644.5 c 0,22,23
 1492.78823529 746 1492.78823529 746 1416.89411765 746 c 128,-1,24
 1341 746 1341 746 1307 715.5 c 128,-1,25
 1273 685 1273 685 1273 615 c 2,26,-1
 1273 1 l 1,27,-1
 1093 1 l 1,28,-1
 1093 615 l 2,29,30
 1093 674 1093 674 1063 710.5 c 128,-1,31
 1033 747 1033 747 971 747 c 128,-1,32
 909 747 909 747 875 711 c 128,-1,33
 841 675 841 675 841 615 c 2,34,-1
 841 1 l 1,35,-1
 657 1 l 1,36,-1
 657 531 l 2,37,38
 657 638 657 638 608.5 691 c 128,-1,39
 560 744 560 744 451 744 c 0,40,41
 277.465116279 744 277.465116279 744 249 540 c 1,42,43
 289.235294118 578 289.235294118 578 344.117647059 578 c 128,-1,44
 399 578 399 578 441 550 c 128,-1,45
 483 522 483 522 510 478.5 c 0,46,47
 561 396.333333333 561 396.333333333 561 278 c 0,48,49
 561 159.083333333 561 159.083333333 502 75.5 c 0,50,51
 433.882352941 -21 433.882352941 -21 323 -21 c 0,52,53
 261.5625 -21 261.5625 -21 212.28125 10.5 c 128,-1,54
 163 42 163 42 132.5 88.5 c 128,-1,55
 102 135 102 135 84 189 c 0,56,57
 52 285 52 285 52 377.5 c 128,-1,58
 52 470 52 470 62 532.5 c 128,-1,59
 72 595 72 595 93.5 652.5 c 128,-1,60
 115 710 115 710 147.5 760 c 128,-1,61
 180 810 180 810 224.5 847 c 0,62,63
 320.716216216 927 320.716216216 927 453 927 c 0,64,65
 547.8 927 547.8 927 595.4 909.5 c 0,66,67
 678.086515978 879.100545596 678.086515978 879.100545596 741 820 c 1,68,69
 794.03030303 881.515151515 794.03030303 881.515151515 827.515151515 898.257575758 c 0,70,71
 885 927 885 927 960 927 c 0,0,1
316 402 m 256,72,73
 275.189189189 402 275.189189189 402 250.5 358.5 c 0,74,75
 230 322.380952381 230 322.380952381 230 278 c 256,76,77
 230 203.21875 230 203.21875 277 166.5 c 0,78,79
 293 154 293 154 316 154 c 256,80,81
 356.810810811 154 356.810810811 154 381.5 197.5 c 0,82,83
 402 233.619047619 402 233.619047619 402 278 c 256,84,85
 402 352.78125 402 352.78125 355 389.5 c 0,86,87
 339 402 339 402 316 402 c 256,72,73
EndSplineSet
EndChar

StartChar: th1
Encoding: 129 3364 130
Width: 1251
GlyphClass: 2
Flags: W
LayerCount: 2
Back
Fore
SplineSet
641 874 m 1,0,1
 729.709677419 929 729.709677419 929 844.85483871 929 c 128,-1,2
 960 929 960 929 1035.5 893 c 128,-1,3
 1111 857 1111 857 1158.5 794.5 c 0,4,5
 1249 675.421052632 1249 675.421052632 1249 467.472431078 c 128,-1,6
 1249 259.523809524 1249 259.523809524 1149 0 c 1,7,-1
 942 0 l 1,8,9
 1065 246 1065 246 1065 464 c 0,10,11
 1065 664.597701149 1065 664.597701149 951.5 722 c 0,12,13
 908 744 908 744 841 743 c 1,14,-1
 815 743 l 1,15,16
 953 616.5 953 616.5 953 405 c 0,17,18
 953 74.8021978022 953 74.8021978022 759.5 -6 c 0,19,20
 714 -25 714 -25 655 -25 c 256,21,22
 447.721649485 -25 447.721649485 -25 380.5 216.5 c 0,23,24
 355 308.111111111 355 308.111111111 355 413 c 0,25,26
 355 619 355 619 478 742 c 1,27,28
 458 744 458 744 416.5 744 c 128,-1,29
 375 744 375 744 339 712.5 c 128,-1,30
 303 681 303 681 281 635.5 c 0,31,32
 240 550.704545455 240 550.704545455 240 443 c 0,33,34
 240 176.696969697 240 176.696969697 359 0 c 1,35,-1
 155 0 l 1,36,37
 56 228.8 56 228.8 56 443 c 0,38,39
 56 643.824175824 56 643.824175824 142.5 775 c 0,40,41
 244.050724638 929 244.050724638 929 433 929 c 0,42,43
 551.862068966 929 551.862068966 929 641 874 c 1,0,1
767 338 m 128,-1,45
 769 381 769 381 769 412.5 c 128,-1,46
 769 444 769 444 763 484 c 128,-1,47
 757 524 757 524 743 561.5 c 0,48,49
 711.25987526 646.518191268 711.25987526 646.518191268 652 678 c 1,50,51
 572.394312796 636.82464455 572.394312796 636.82464455 546 486 c 0,52,53
 539 446 539 446 539 421 c 128,-1,54
 539 396 539 396 540.5 371 c 128,-1,55
 542 346 542 346 546.5 317.5 c 128,-1,56
 551 289 551 289 559.5 260.5 c 128,-1,57
 568 232 568 232 580.5 209.5 c 0,58,59
 609.111111111 158 609.111111111 158 653.055555556 158 c 128,-1,60
 697 158 697 158 720.5 186.5 c 128,-1,61
 744 215 744 215 754.5 255 c 128,-1,44
 765 295 765 295 767 338 c 128,-1,45
EndSplineSet
EndChar

StartChar: th2
Encoding: 130 3365 131
Width: 969
GlyphClass: 2
Flags: W
LayerCount: 2
Back
Fore
SplineSet
664 932 m 0,0,1
 970 932 970 932 970 504 c 2,2,-1
 970 -1 l 1,3,-1
 58 0 l 1,4,-1
 66 908 l 1,5,-1
 251 908 l 1,6,-1
 241 159 l 1,7,-1
 356 158 l 1,8,-1
 356 504 l 2,9,10
 356 798.268907563 356 798.268907563 514.5 895.5 c 0,11,12
 574 932 574 932 664 932 c 0,0,1
664 757 m 0,13,14
 531 757 531 757 531 504 c 2,15,-1
 531 158 l 1,16,-1
 795 158 l 1,17,-1
 795 504 l 2,18,19
 795 610.833333333 795 610.833333333 781 656.916666667 c 0,20,21
 750.594936709 757 750.594936709 757 664 757 c 0,13,14
EndSplineSet
EndChar

StartChar: th3
Encoding: 131 3366 132
Width: 765
GlyphClass: 2
Flags: W
LayerCount: 2
Back
Fore
SplineSet
56 458 m 0,0,1
 56 934 56 934 424 934 c 0,2,3
 570.461538462 934 570.461538462 934 666 853 c 0,4,5
 765 769.065217391 765 769.065217391 765 640 c 0,6,7
 765 539 765 539 693 473 c 0,8,9
 669 451 669 451 637 436 c 1,10,11
 700 407 700 407 733 354.5 c 128,-1,12
 766 302 766 302 766 244.5 c 128,-1,13
 766 187 766 187 749.5 139.5 c 128,-1,14
 733 92 733 92 699.5 55.5 c 0,15,16
 625.616438356 -25 625.616438356 -25 489 -25 c 0,17,18
 415.571428571 -25 415.571428571 -25 331 7 c 1,19,-1
 331 181 l 1,20,21
 396.875 147 396.875 147 458.4375 147 c 128,-1,22
 520 147 520 147 543.5 174 c 128,-1,23
 567 201 567 201 567 231.5 c 128,-1,24
 567 262 567 262 558.5 282.5 c 128,-1,25
 550 303 550 303 535 318.5 c 0,26,27
 502.580645161 352 502.580645161 352 455 352 c 2,28,-1
 389 352 l 1,29,-1
 389 520 l 1,30,31
 482.157894737 520 482.157894737 520 507.578947368 530.5 c 0,32,33
 559 551.739130435 559 551.739130435 559 626 c 0,34,35
 559 678.2 559 678.2 515 714.5 c 0,36,37
 473.181818182 749 473.181818182 749 412.090909091 749 c 128,-1,38
 351 749 351 749 316.5 719 c 128,-1,39
 282 689 282 689 265 644.5 c 0,40,41
 240 579.058823529 240 579.058823529 240 459.029411765 c 128,-1,42
 240 339 240 339 249 226.5 c 128,-1,43
 258 114 258 114 260 0 c 1,44,-1
 76 0 l 1,45,46
 74 115 74 115 65 229 c 128,-1,47
 56 343 56 343 56 458 c 0,0,1
EndSplineSet
EndChar

StartChar: th4
Encoding: 132 3367 133
Width: 1192
GlyphClass: 2
Flags: W
LayerCount: 2
Back
Fore
SplineSet
825 164 m 0,0,1
 1003 164 1003 164 1003 437 c 0,2,3
 1003 626.510638298 1003 626.510638298 927.5 800 c 0,4,5
 904 854 904 854 877 910 c 1,6,-1
 1060 910 l 1,7,8
 1140.95145631 803.291262136 1140.95145631 803.291262136 1178 581 c 0,9,10
 1190 509 1190 509 1190 433.5 c 128,-1,11
 1190 358 1190 358 1170 277 c 128,-1,12
 1150 196 1150 196 1109 130 c 0,13,14
 1016.43939394 -19 1016.43939394 -19 859 -19 c 0,15,16
 749.666666667 -19 749.666666667 -19 677 35.5 c 0,17,18
 651 55 651 55 625 82 c 1,19,20
 571.399535424 26.3379790941 571.399535424 26.3379790941 533.199767712 9.66898954704 c 0,21,22
 404.299533022 -46.5783855904 404.299533022 -46.5783855904 286 0.5 c 0,23,24
 151.298039216 54.1058823529 151.298039216 54.1058823529 91.5 233.5 c 0,25,26
 58 334 58 334 58 429 c 128,-1,27
 58 524 58 524 70.5 592 c 128,-1,28
 83 660 83 660 102 720.5 c 0,29,30
 140.773019272 843.961456103 140.773019272 843.961456103 187 910 c 1,31,-1
 372 910 l 1,32,33
 272.692732682 708.075223119 272.692732682 708.075223119 253.5 580.5 c 0,34,35
 245 524 245 524 245 466.5 c 128,-1,36
 245 409 245 409 251.5 357 c 128,-1,37
 258 305 258 305 277 262 c 0,38,39
 320.302325581 164 320.302325581 164 416 164 c 0,40,41
 545 164 545 164 545 305 c 2,42,-1
 545 900 l 1,43,-1
 721 900 l 1,44,-1
 721 306 l 2,45,46
 721 226.230769231 721 226.230769231 741 201.615384615 c 0,47,48
 771.5625 164 771.5625 164 825 164 c 0,0,1
EndSplineSet
EndChar

StartChar: n1
Encoding: 133 3368 134
Width: 1170
GlyphClass: 2
Flags: W
LayerCount: 2
Back
Fore
SplineSet
615 828 m 1,0,1
 696.245283019 909.245283019 696.245283019 909.245283019 785 924.5 c 0,2,3
 817 930 817 930 865 930 c 128,-1,4
 913 930 913 930 959 910.5 c 128,-1,5
 1005 891 1005 891 1040.5 858 c 128,-1,6
 1076 825 1076 825 1100.5 780.5 c 128,-1,7
 1125 736 1125 736 1141 685 c 0,8,9
 1172 586.1875 1172 586.1875 1172 494.09375 c 128,-1,10
 1172 402 1172 402 1163 329.5 c 128,-1,11
 1154 257 1154 257 1139 193.5 c 0,12,13
 1107.44074844 59.8991683992 1107.44074844 59.8991683992 1062 0 c 1,14,-1
 874 0 l 1,15,16
 988 223.928571429 988 223.928571429 988 474 c 0,17,18
 988 593.823529412 988 593.823529412 966.5 644.411764706 c 128,-1,19
 945 695 945 695 911.5 720.5 c 128,-1,20
 878 746 878 746 836 746 c 128,-1,21
 794 746 794 746 774 739.5 c 128,-1,22
 754 733 754 733 740.5 717.5 c 0,23,24
 713 685.925925926 713 685.925925926 713 605 c 2,25,-1
 713 10 l 1,26,-1
 533 10 l 1,27,-1
 533 605 l 2,28,29
 533 746 533 746 400 746 c 0,30,31
 261.201923077 746 261.201923077 746 244.5 553 c 0,32,33
 240 501 240 501 240 443.5 c 128,-1,34
 240 386 240 386 246.5 329.5 c 128,-1,35
 253 273 253 273 267 220.5 c 0,36,37
 291.213592233 129.699029126 291.213592233 129.699029126 355 0 c 1,38,-1
 165 0 l 1,39,40
 93.7647058824 101.764705882 93.7647058824 101.764705882 65 317.5 c 0,41,42
 56 385 56 385 56 447 c 128,-1,43
 56 509 56 509 62.5 566.5 c 128,-1,44
 69 624 69 624 84.5 677 c 128,-1,45
 100 730 100 730 124.5 776 c 128,-1,46
 149 822 149 822 185 856.5 c 0,47,48
 261.695652174 930 261.695652174 930 395.847826087 930 c 128,-1,49
 530 930 530 930 615 828 c 1,0,1
EndSplineSet
EndChar

StartChar: p1
Encoding: 134 3370 135
Width: 952
GlyphClass: 2
Flags: W
LayerCount: 2
Back
Fore
SplineSet
607 307 m 0,0,1
 607 246 607 246 596 169 c 1,2,-1
 765 169 l 1,3,-1
 765 909 l 1,4,-1
 949 909 l 1,5,-1
 949 5 l 1,6,-1
 384 5 l 1,7,8
 430 207.941176471 430 207.941176471 430 308 c 0,9,10
 430 394.571428571 430 394.571428571 380.5 437 c 0,11,12
 363 452 363 452 336.5 452 c 128,-1,13
 310 452 310 452 290.5 435.5 c 128,-1,14
 271 419 271 419 259 395.5 c 0,15,16
 236 350.458333333 236 350.458333333 236 297 c 0,17,18
 236 171.909090909 236 171.909090909 287 5 c 1,19,-1
 103 5 l 1,20,21
 59 171.736842105 59 171.736842105 59 264.868421053 c 128,-1,22
 59 358 59 358 76.5 417.5 c 128,-1,23
 94 477 94 477 128.5 523.5 c 0,24,25
 205.290322581 627 205.290322581 627 335 627 c 0,26,27
 461.6 627 461.6 627 537.5 528 c 0,28,29
 607 437.347826087 607 437.347826087 607 307 c 0,0,1
EndSplineSet
EndChar

StartChar: p2
Encoding: 135 3371 136
Width: 1291
GlyphClass: 2
Flags: W
LayerCount: 2
Back
Fore
SplineSet
607 279.666666667 m 0,0,1
 607 221.333333333 607 221.333333333 596 159 c 1,2,-1
 681 162 l 1,3,-1
 681 508 l 2,4,5
 681 795.448275862 681 795.448275862 843 896 c 0,6,7
 901 932 901 932 987 932 c 128,-1,8
 1073 932 1073 932 1131 896.5 c 128,-1,9
 1189 861 1189 861 1224 801.5 c 0,10,11
 1289 691 1289 691 1289 508 c 2,12,-1
 1289 9 l 1,13,-1
 384 5 l 1,14,15
 392 42 392 42 400.5 75 c 128,-1,16
 409 108 409 108 415.5 140.5 c 0,17,18
 430 213 430 213 430 255.5 c 128,-1,19
 430 298 430 298 425 323 c 128,-1,20
 420 348 420 348 409 370 c 0,21,22
 383 422 383 422 346.5 422 c 128,-1,23
 310 422 310 422 290 405.5 c 128,-1,24
 270 389 270 389 257 365.5 c 0,25,26
 231 318.5 231 318.5 231 273.75 c 128,-1,27
 231 229 231 229 235.5 197 c 128,-1,28
 240 165 240 165 248 134 c 128,-1,29
 256 103 256 103 266 72 c 128,-1,30
 276 41 276 41 287 5 c 1,31,-1
 103 5 l 1,32,33
 94 41 94 41 86 72.5 c 128,-1,34
 78 104 78 104 72 134.5 c 0,35,36
 59 200.583333333 59 200.583333333 59 264.291666667 c 128,-1,37
 59 328 59 328 75.5 387.5 c 128,-1,38
 92 447 92 447 126 493.5 c 0,39,40
 201.677419355 597 201.677419355 597 330 597 c 0,41,42
 458 597 458 597 535 498 c 0,43,44
 607 405.428571429 607 405.428571429 607 279.666666667 c 0,0,1
1102 511 m 2,45,46
 1102 667.913043478 1102 667.913043478 1047 726.5 c 0,47,48
 1024 751 1024 751 988 751 c 128,-1,49
 952 751 952 751 929.5 726.5 c 128,-1,50
 907 702 907 702 893.5 666 c 0,51,52
 870 603.333333333 870 603.333333333 870 511 c 2,53,-1
 870 162 l 1,54,-1
 1102 162 l 1,55,-1
 1102 511 l 2,45,46
EndSplineSet
EndChar

StartChar: p3
Encoding: 136 3372 137
Width: 1613
GlyphClass: 2
Flags: W
LayerCount: 2
Back
Fore
SplineSet
1250 159 m 1,0,-1
 1437 159 l 1,1,-1
 1427 909 l 1,2,-1
 1611 909 l 1,3,-1
 1621 0 l 1,4,-1
 988 0 l 1,5,-1
 988 33 l 1,6,7
 1088.59736308 130.802991886 1088.59736308 130.802991886 1127 378.5 c 0,8,9
 1137 443 1137 443 1137 490 c 128,-1,10
 1137 537 1137 537 1128.5 582 c 128,-1,11
 1120 627 1120 627 1099.5 664 c 0,12,13
 1053.51351351 747 1053.51351351 747 955 747 c 0,14,15
 838.071428571 747 838.071428571 747 829.5 627 c 0,16,17
 827 592 827 592 827 554 c 2,18,-1
 827 0 l 1,19,-1
 645 0 l 1,20,-1
 645 535 l 2,21,22
 645 630 645 630 596 687 c 128,-1,23
 547 744 547 744 451 744 c 0,24,25
 315.84 744 315.84 744 261.5 620.5 c 0,26,27
 245 583 245 583 239 540 c 1,28,29
 279.235294118 578 279.235294118 578 334.117647059 578 c 128,-1,30
 389 578 389 578 432.5 550.5 c 128,-1,31
 476 523 476 523 504.5 479.5 c 0,32,33
 561 393.263157895 561 393.263157895 561 278 c 128,-1,34
 561 162.769230769 561 162.769230769 493.5 74.5 c 0,35,36
 419.705882353 -22 419.705882353 -22 308 -22 c 0,37,38
 133.936842105 -22 133.936842105 -22 74.5 223.5 c 0,39,40
 53 312.304347826 53 312.304347826 53 405.152173913 c 128,-1,41
 53 498 53 498 75.5 591 c 128,-1,42
 98 684 98 684 146 758.5 c 0,43,44
 253.275167785 925 253.275167785 925 453 925 c 0,45,46
 588.085106383 925 588.085106383 925 680 857.5 c 0,47,48
 712 834 712 834 735 800 c 1,49,50
 805.520446097 928.951672862 805.520446097 928.951672862 953 931 c 0,51,52
 1141.09750102 932.862351495 1141.09750102 932.862351495 1234.5 801 c 0,53,54
 1314 688.764705882 1314 688.764705882 1314 501.882352941 c 128,-1,55
 1314 315 1314 315 1250 159 c 1,0,-1
311 406 m 256,56,57
 266.902439024 406 266.902439024 406 243.5 355.5 c 0,58,59
 227 319.894736842 227 319.894736842 227 278 c 256,60,61
 227 203.636363636 227 203.636363636 269.5 165 c 0,62,63
 286 150 286 150 311 150 c 256,64,65
 355.097560976 150 355.097560976 150 378.5 200.5 c 0,66,67
 395 236.105263158 395 236.105263158 395 278 c 256,68,69
 395 352.363636364 395 352.363636364 352.5 391 c 0,70,71
 336 406 336 406 311 406 c 256,56,57
EndSplineSet
EndChar

StartChar: p4
Encoding: 137 3373 138
Width: 737
GlyphClass: 2
Flags: W
LayerCount: 2
Back
Fore
SplineSet
507 393 m 1,0,-1
 565 396 l 1,1,2
 647.210526316 396 647.210526316 396 694 332.5 c 0,3,4
 736 275.5 736 275.5 736 206.75 c 128,-1,5
 736 138 736 138 718 97.5 c 128,-1,6
 700 57 700 57 667 30 c 0,7,8
 602.222222222 -23 602.222222222 -23 489 -23 c 0,9,10
 424.6 -23 424.6 -23 352 -1 c 1,11,-1
 352 168 l 1,12,13
 395.125 138 395.125 138 458 138 c 0,14,15
 524.545454545 138 524.545454545 138 545 163 c 0,16,17
 554 174 554 174 554 192.5 c 128,-1,18
 554 211 554 211 549.5 220.5 c 128,-1,19
 545 230 545 230 537 234.5 c 0,20,21
 525.444444444 241 525.444444444 241 498 241 c 2,22,23
 460 240 l 1,24,25
 394.333333333 240 394.333333333 240 350 306.5 c 0,26,27
 312 363.5 312 363.5 312 416.25 c 128,-1,28
 312 469 312 469 323.5 505.5 c 128,-1,29
 335 542 335 542 356.5 571.5 c 0,30,31
 405.694915254 639 405.694915254 639 481 639 c 1,32,-1
 525 635 l 1,33,34
 543 635 543 635 554.5 646.5 c 128,-1,35
 566 658 566 658 566 679.5 c 128,-1,36
 566 701 566 701 553 717.5 c 128,-1,37
 540 734 540 734 520.5 744 c 0,38,39
 485.4 762 485.4 762 430.7 762 c 128,-1,40
 376 762 376 762 338.5 740.5 c 128,-1,41
 301 719 301 719 279 683.5 c 0,42,43
 236.564173592 615.024007387 236.564173592 615.024007387 240.282086796 513.012003693 c 128,-1,44
 244 411 244 411 246 342 c 128,-1,45
 248 273 248 273 249 229 c 128,-1,46
 250 185 250 185 251.5 142.5 c 128,-1,47
 253 100 253 100 254 61.5 c 128,-1,48
 255 23 255 23 256 -7 c 1,49,-1
 71 -7 l 1,50,51
 70 24 70 24 69 64.5 c 128,-1,52
 68 105 68 105 66.5 150 c 128,-1,53
 65 195 65 195 64 241.5 c 128,-1,54
 63 288 63 288 61 361.5 c 128,-1,55
 59 435 59 435 56.5 530 c 128,-1,56
 54 625 54 625 78 695.5 c 128,-1,57
 102 766 102 766 151 818.5 c 0,58,59
 257.866666667 933 257.866666667 933 435 933 c 0,60,61
 562.272727273 933 562.272727273 933 644.5 866 c 0,62,63
 732 794.703703704 732 794.703703704 732 673 c 0,64,65
 732 540.379310345 732 540.379310345 651 491.5 c 0,66,67
 622 474 622 474 580 474 c 1,68,-1
 515 481 l 1,69,70
 484 481 484 481 484 437 c 128,-1,71
 484 393 484 393 507 393 c 1,0,-1
EndSplineSet
EndChar

StartChar: m1
Encoding: 138 3374 139
Width: 821
GlyphClass: 2
Flags: W
LayerCount: 2
Back
Fore
SplineSet
818 8 m 1,0,-1
 56 8 l 1,1,-1
 56 444 l 2,2,3
 56 785.289655172 56 785.289655172 251.5 894.5 c 0,4,5
 324 935 324 935 431.5 935 c 128,-1,6
 539 935 539 935 612 897.5 c 128,-1,7
 685 860 685 860 730.5 795.5 c 0,8,9
 818 671.461538462 818 671.461538462 818 464 c 2,10,-1
 818 8 l 1,0,-1
489 165 m 1,11,-1
 638 165 l 1,12,-1
 638 464 l 2,13,14
 638 595.272727273 638 595.272727273 608 649.136363636 c 128,-1,15
 578 703 578 703 539.5 726 c 128,-1,16
 501 749 501 749 429 749 c 0,17,18
 284.307692308 749 284.307692308 749 249 587 c 1,19,20
 281.8125 612 281.8125 612 340.90625 612 c 128,-1,21
 400 612 400 612 438.5 590.5 c 128,-1,22
 477 569 477 569 501.5 534.5 c 0,23,24
 549 467.612244898 549 467.612244898 549 356.650950035 c 128,-1,25
 549 245.689655172 549 245.689655172 489 165 c 1,11,-1
383 353 m 0,26,27
 383 458 383 458 295 458 c 0,28,29
 260.666666667 458 260.666666667 458 235 416 c 1,30,-1
 235 165 l 1,31,-1
 296 165 l 1,32,33
 355.815013405 218.168900804 355.815013405 218.168900804 376.5 302.5 c 0,34,35
 383 329 383 329 383 353 c 0,26,27
EndSplineSet
EndChar

StartChar: y1
Encoding: 139 3375 140
Width: 1251
GlyphClass: 2
Flags: W
LayerCount: 2
Back
Fore
SplineSet
1077 441 m 0,0,1
 1077 642 1077 642 946 904 c 1,2,-1
 1147 904 l 1,3,4
 1227.11428571 690.361904762 1227.11428571 690.361904762 1241.55714286 595.680952381 c 128,-1,5
 1256 501 1256 501 1256 423 c 128,-1,6
 1256 345 1256 345 1236.5 260.5 c 128,-1,7
 1217 176 1217 176 1172 112.5 c 0,8,9
 1075.26771654 -24 1075.26771654 -24 872 -24 c 0,10,11
 724.333333333 -24 724.333333333 -24 662 42 c 1,12,13
 579.902439024 -24 579.902439024 -24 464.951219512 -24 c 128,-1,14
 350 -24 350 -24 274.5 20 c 128,-1,15
 199 64 199 64 150 135 c 0,16,17
 54 274.102040816 54 274.102040816 54 478 c 0,18,19
 54 819.023255814 54 819.023255814 224 906 c 0,20,21
 267 928 267 928 326 928 c 0,22,23
 426.095238095 928 426.095238095 928 491 834 c 1,24,25
 567.511627907 928 567.511627907 928 685 928 c 0,26,27
 856.133333333 928 856.133333333 928 928 697 c 0,28,29
 955 610.214285714 955 610.214285714 955 542.607142857 c 128,-1,30
 955 475 955 475 945.5 423.5 c 128,-1,31
 936 372 936 372 917.5 322 c 0,32,33
 876.218616567 210.428693424 876.218616567 210.428693424 808 146 c 1,34,-1
 841 138 l 2,35,36
 1000.42217307 99.0301354714 1000.42217307 99.0301354714 1056 288.5 c 0,37,38
 1077 360.090909091 1077 360.090909091 1077 441 c 0,0,1
670 216 m 1,39,40
 773 340.205882353 773 340.205882353 773 534 c 0,41,42
 773 667.15 773 667.15 727 723.5 c 0,43,44
 707 748 707 748 672 748 c 128,-1,45
 637 748 637 748 615 720 c 128,-1,46
 593 692 593 692 581 653 c 0,47,48
 562 591.25 562 591.25 562 529.125 c 128,-1,49
 562 467 562 467 564 429.5 c 128,-1,50
 566 392 566 392 576.5 355.5 c 0,51,52
 600.022451729 273.731477324 600.022451729 273.731477324 670 216 c 1,39,40
528 139 m 1,53,54
 385 283.932432432 385 283.932432432 385 492 c 1,55,-1
 392 600 l 1,56,57
 392 675.68 392 675.68 361.5 713.5 c 0,58,59
 349 729 349 729 329 729 c 256,60,61
 262.555555556 729 262.555555556 729 239 570 c 0,62,63
 232 522.75 232 522.75 232 486.875 c 128,-1,64
 232 451 232 451 238 409.5 c 128,-1,65
 244 368 244 368 257 325.5 c 128,-1,66
 270 283 270 283 291 243.5 c 128,-1,67
 312 204 312 204 341 175.5 c 0,68,69
 412.80349345 104.934497817 412.80349345 104.934497817 503 135 c 0,70,71
 510 137 510 137 528 139 c 1,53,54
EndSplineSet
EndChar

StartChar: r3
Encoding: 140 3376 141
Width: 863
GlyphClass: 2
Flags: W
LayerCount: 2
Back
Fore
SplineSet
135 0 m 1,0,1
 56 269.09375 56 269.09375 56 443 c 0,2,3
 56 781.210191083 56 781.210191083 278.5 887.5 c 0,4,5
 357 925 357 925 467.5 925 c 128,-1,6
 578 925 578 925 653 881 c 128,-1,7
 728 837 728 837 773.5 765.5 c 0,8,9
 859 631.142857143 859 631.142857143 859 417 c 0,10,11
 859 257.285714286 859 257.285714286 802 136.5 c 0,12,13
 729.561797753 -17 729.561797753 -17 585 -17 c 0,14,15
 465.04 -17 465.04 -17 395.5 97 c 0,16,17
 336 194.540983607 336 194.540983607 336 322 c 0,18,19
 336 544.337078652 336 544.337078652 451.5 623.5 c 0,20,21
 496 654 496 654 543 654 c 0,22,23
 621.235294118 654 621.235294118 654 653 624 c 1,24,25
 635.631578947 676.105263158 635.631578947 676.105263158 583 709 c 0,26,27
 535 739 535 739 474.5 739 c 128,-1,28
 414 739 414 739 369.5 713 c 128,-1,29
 325 687 325 687 296.5 645 c 0,30,31
 240 561.736842105 240 561.736842105 240 443 c 0,32,33
 240 237.105263158 240 237.105263158 325 0 c 1,34,-1
 135 0 l 1,0,1
662 311 m 256,35,36
 662 397.387096774 662 397.387096774 618.5 446.5 c 0,37,38
 603 464 603 464 580.5 464 c 128,-1,39
 558 464 558 464 544 446 c 128,-1,40
 530 428 530 428 522 403.5 c 0,41,42
 508 360.625 508 360.625 508 311 c 256,43,44
 508 222.285714286 508 222.285714286 544 176 c 0,45,46
 558 158 558 158 580.5 158 c 128,-1,47
 603 158 603 158 618.5 175.5 c 128,-1,48
 634 193 634 193 644 217.5 c 0,49,50
 662 261.6 662 261.6 662 311 c 256,35,36
EndSplineSet
EndChar

StartChar: rh
Encoding: 141 3377 142
Width: 759
GlyphClass: 2
Flags: W
LayerCount: 2
Back
Fore
SplineSet
761 464 m 0,0,1
 761 279.782608696 761 279.782608696 706 0 c 1,2,-1
 526 0 l 1,3,4
 584 297.565217391 584 297.565217391 584 464 c 0,5,6
 584 646.313432836 584 646.313432836 503.5 716 c 0,7,8
 470 745 470 745 412.5 745 c 128,-1,9
 355 745 355 745 319.5 713.5 c 128,-1,10
 284 682 284 682 265 635.5 c 0,11,12
 234 559.631578947 234 559.631578947 234 444 c 0,13,14
 234 222 234 222 294 0 c 1,15,-1
 112 0 l 1,16,17
 58 232.615384615 58 232.615384615 58 444 c 0,18,19
 58 741.076923077 58 741.076923077 177 855.5 c 0,20,21
 261.76 937 261.76 937 411 937 c 0,22,23
 726.472727273 937 726.472727273 937 756.5 570 c 0,24,25
 761 515 761 515 761 464 c 0,0,1
EndSplineSet
EndChar

StartChar: l3
Encoding: 142 3378 143
Width: 985
GlyphClass: 2
Flags: W
LayerCount: 2
Back
Fore
SplineSet
984 0 m 1,0,-1
 56 0 l 1,1,-1
 56 473 l 2,2,3
 56 739.486486486 56 739.486486486 190 859 c 0,4,5
 269.606060606 930 269.606060606 930 390 930 c 0,6,7
 621.495145631 930 621.495145631 930 693 684.5 c 0,8,9
 721 588.366666667 721 588.366666667 721 468 c 2,10,-1
 721 296 l 1,11,-1
 240 296 l 1,12,-1
 240 159 l 1,13,-1
 800 159 l 1,14,-1
 790 909 l 1,15,-1
 974 909 l 1,16,-1
 984 0 l 1,0,-1
538 494 m 1,17,18
 538 658.068965517 538 658.068965517 467 720.5 c 0,19,20
 438 746 438 746 389 746 c 128,-1,21
 340 746 340 746 311 714.5 c 128,-1,22
 282 683 282 683 266 638 c 0,23,24
 240 564.875 240 564.875 240 459 c 1,25,-1
 537 459 l 1,26,-1
 538 494 l 1,17,18
EndSplineSet
EndChar

StartChar: lh
Encoding: 143 3379 144
Width: 967
GlyphClass: 2
Flags: W
LayerCount: 2
Back
Fore
SplineSet
972 577 m 0,0,1
 972 441.333333333 972 441.333333333 856 364 c 1,2,3
 971 304.64516129 971 304.64516129 971 137 c 0,4,5
 971 16.2 971 16.2 891.5 -58 c 0,6,7
 812.214285714 -132 812.214285714 -132 687 -132 c 2,8,-1
 290 -132 l 2,9,10
 273 -132 273 -132 262.5 -143 c 128,-1,11
 252 -154 252 -154 252 -169 c 256,12,13
 252 -184 252 -184 263.5 -198.5 c 128,-1,14
 275 -213 275 -213 290 -213 c 2,15,-1
 949 -213 l 1,16,-1
 949 -380 l 1,17,-1
 260 -380 l 2,18,19
 180.929824561 -380 180.929824561 -380 123 -316.5 c 0,20,21
 68 -256.211538462 68 -256.211538462 68 -174 c 0,22,23
 68 -92.1960784314 68 -92.1960784314 121.5 -34.5 c 0,24,25
 176.672727273 25 176.672727273 25 260 25 c 2,26,-1
 657 25 l 2,27,28
 713 25 713 25 747 55.5 c 128,-1,29
 781 86 781 86 781 142 c 128,-1,30
 781 198 781 198 753 232.5 c 128,-1,31
 725 267 725 267 670 267 c 2,32,-1
 641 267 l 1,33,-1
 641 456 l 1,34,-1
 651 455 l 1,35,-1
 669 455 l 2,36,37
 768 455 768 455 768 587 c 0,38,39
 768 672.298507463 768 672.298507463 693.5 719 c 0,40,41
 626.5 761 626.5 761 552.75 761 c 128,-1,42
 479 761 479 761 431 749.5 c 128,-1,43
 383 738 383 738 343.5 716 c 0,44,45
 256.431207511 667.505988993 256.431207511 667.505988993 243 585 c 1,46,47
 281 617 281 617 333.5 617 c 128,-1,48
 386 617 386 617 428.5 592.5 c 128,-1,49
 471 568 471 568 498.5 528 c 0,50,51
 553 448.727272727 553 448.727272727 553 361.863636364 c 128,-1,52
 553 275 553 275 532 225 c 128,-1,53
 511 175 511 175 477 141 c 0,54,55
 407 71 407 71 309 71 c 0,56,57
 140.572463768 71 140.572463768 71 79.5 267 c 0,58,59
 58 336 58 336 58 430.5 c 128,-1,60
 58 525 58 525 78 614 c 128,-1,61
 98 703 98 703 150 774 c 0,62,63
 266.450704225 933 266.450704225 933 520 933 c 0,64,65
 717.644444444 933 717.644444444 933 841 842 c 0,66,67
 972 745.360655738 972 745.360655738 972 577 c 0,0,1
311 445 m 256,68,69
 257.282051282 445 257.282051282 445 242 370.5 c 0,70,71
 238 351 238 351 238 334 c 256,72,73
 238 264.642857143 238 264.642857143 277 234 c 0,74,75
 291 223 291 223 311 223 c 256,76,77
 364.717948718 223 364.717948718 223 380 297.5 c 0,78,79
 384 317 384 317 384 334 c 256,80,81
 384 403.357142857 384 403.357142857 345 434 c 0,82,83
 331 445 331 445 311 445 c 256,68,69
EndSplineSet
EndChar

StartChar: zh
Encoding: 144 3380 145
Width: 855
GlyphClass: 2
Flags: W
LayerCount: 2
Back
Fore
SplineSet
409 434 m 1,0,1
 326 517 326 517 326 640 c 0,2,3
 326 779.242857143 326 779.242857143 402 858.5 c 0,4,5
 471.520547945 931 471.520547945 931 580 931 c 0,6,7
 710.779220779 931 710.779220779 931 786.5 846.5 c 0,8,9
 856 768.942028986 856 768.942028986 856 650 c 0,10,11
 856 544.28125 856 544.28125 836.5 496.140625 c 0,12,13
 798.774334793 403.00538902 798.774334793 403.00538902 699 325 c 1,14,15
 749 271.153846154 749 271.153846154 749 205.076923077 c 128,-1,16
 749 139 749 139 727 98 c 128,-1,17
 705 57 705 57 668.5 30.5 c 0,18,19
 597.566037736 -21 597.566037736 -21 466.283018868 -21 c 128,-1,20
 335 -21 335 -21 253 40.5 c 128,-1,21
 171 102 171 102 171 215 c 1,22,-1
 360 215 l 1,23,24
 360 158.025 360 158.025 431 138.5 c 0,25,26
 451 133 451 133 470 133 c 128,-1,27
 489 133 489 133 505 137.5 c 128,-1,28
 521 142 521 142 534 151 c 0,29,30
 562 170.384615385 562 170.384615385 562 197.692307692 c 0,31,32
 562 238.2 562 238.2 533 273 c 1,33,34
 489 262 489 262 430 262 c 2,35,-1
 429 262 l 2,36,37
 252.042735043 262 252.042735043 262 148 391.5 c 0,38,39
 54 508.5 54 508.5 54 679 c 0,40,41
 54 803 54 803 108 909 c 1,42,-1
 309 909 l 1,43,44
 240 822.75 240 822.75 240 669 c 0,45,46
 240 508.953125 240 508.953125 331 453.5 c 0,47,48
 363 434 363 434 409 434 c 1,0,1
680 567 m 0,49,50
 686 594 686 594 686 622.5 c 128,-1,51
 686 651 686 651 680 677 c 128,-1,52
 674 703 674 703 662 723.5 c 0,53,54
 635.365853659 769 635.365853659 769 600.182926829 769 c 128,-1,55
 565 769 565 769 548 757 c 128,-1,56
 531 745 531 745 520.5 724.5 c 0,57,58
 501 686.428571429 501 686.428571429 501 641.214285714 c 128,-1,59
 501 596 501 596 506 568 c 128,-1,60
 511 540 511 540 522 518.5 c 0,61,62
 546.813953488 470 546.813953488 470 593 470 c 0,63,64
 658.444444444 470 658.444444444 470 680 567 c 0,49,50
EndSplineSet
EndChar

StartChar: v1
Encoding: 145 3381 146
Width: 1044
GlyphClass: 2
Flags: W
LayerCount: 2
Back
Fore
SplineSet
743 569.5 m 0,0,1
 747 515 747 515 747 433.636363636 c 128,-1,2
 747 352.272727273 747 352.272727273 719 169 c 1,3,-1
 844 169 l 1,4,-1
 844 910 l 1,5,-1
 1041 910 l 1,6,-1
 1041 0 l 1,7,-1
 504 0 l 1,8,9
 563 305.260869565 563 305.260869565 563 464 c 0,10,11
 563 743 563 743 404 743 c 0,12,13
 236 743 236 743 236 444 c 0,14,15
 236 224 236 224 296 0 c 1,16,-1
 111 0 l 1,17,18
 56 239.038461538 56 239.038461538 56 444 c 0,19,20
 56 742.986842105 56 742.986842105 169 854.5 c 0,21,22
 252.6 937 252.6 937 401 937 c 0,23,24
 716.027522936 937 716.027522936 937 743 569.5 c 0,0,1
EndSplineSet
EndChar

StartChar: z1
Encoding: 146 3382 147
Width: 1233
GlyphClass: 2
Flags: W
LayerCount: 2
Back
Fore
SplineSet
375 -25 m 0,0,1
 55 -25 55 -25 55 437 c 0,2,3
 55 617.022727273 55 617.022727273 124 800.5 c 0,4,5
 146 859 146 859 174 910 c 1,6,-1
 364 910 l 1,7,8
 270.925906869 768.978646771 270.925906869 768.978646771 246 521.5 c 0,9,10
 239 452 239 452 239 408 c 128,-1,11
 239 364 239 364 244.5 322.5 c 128,-1,12
 250 281 250 281 264 243 c 0,13,14
 297.526315789 152 297.526315789 152 370 152 c 0,15,16
 414.090909091 152 414.090909091 152 442.5 189.5 c 0,17,18
 468 223.16 468 223.16 468 262.58 c 128,-1,19
 468 302 468 302 461 333.5 c 128,-1,20
 454 365 454 365 446 396 c 0,21,22
 424 481.25 424 481.25 424 545.625 c 128,-1,23
 424 610 424 610 448 684.5 c 128,-1,24
 472 759 472 759 522 813.5 c 0,25,26
 629.798165138 931 629.798165138 931 827 931 c 0,27,28
 1074.14563107 931 1074.14563107 931 1168.5 760.5 c 0,29,30
 1240 631.298245614 1240 631.298245614 1240 403 c 0,31,32
 1240 248.88372093 1240 248.88372093 1180.5 128.5 c 0,33,34
 1106.11494253 -22 1106.11494253 -22 966 -22 c 0,35,36
 843.962264151 -22 843.962264151 -22 775.5 101 c 0,37,38
 719 202.508474576 719 202.508474576 719 335 c 0,39,40
 719 547.91011236 719 547.91011236 838.5 632.5 c 0,41,42
 883 664 883 664 929 664 c 0,43,44
 1002 664 1002 664 1038 634 c 1,45,46
 994.15625 756 994.15625 756 821 756 c 0,47,48
 715.444444444 756 715.444444444 756 659.5 689.5 c 0,49,50
 608 628.283018868 608 628.283018868 608 523 c 0,51,52
 608 478.117647059 608 478.117647059 623 426.058823529 c 0,53,54
 651 328.882352941 651 328.882352941 651 276.441176471 c 128,-1,55
 651 224 651 224 636.5 168 c 128,-1,56
 622 112 622 112 589.5 69 c 0,57,58
 518.453488372 -25 518.453488372 -25 375 -25 c 0,0,1
1046 321 m 256,59,60
 1046 413.032258065 1046 413.032258065 1003.5 466.5 c 0,61,62
 988 486 988 486 965 486 c 256,63,64
 925.555555556 486 925.555555556 486 906 420 c 0,65,66
 893 376.125 893 376.125 893 340.0625 c 128,-1,67
 893 304 893 304 895.5 276.5 c 128,-1,68
 898 249 898 249 906 222 c 0,69,70
 925.555555556 156 925.555555556 156 965 156 c 256,71,72
 1005.01886792 156 1005.01886792 156 1028.5 221.5 c 0,73,74
 1046 270.315789474 1046 270.315789474 1046 321 c 256,59,60
EndSplineSet
EndChar

StartChar: sh
Encoding: 147 3383 148
Width: 1364
GlyphClass: 2
Flags: W
LayerCount: 2
Back
Fore
SplineSet
1362 0 m 1,0,-1
 382 0 l 1,1,2
 390 37 390 37 398.5 66.5 c 128,-1,3
 407 96 407 96 413.5 123 c 0,4,5
 429 187.384615385 429 187.384615385 429 220.192307692 c 128,-1,6
 429 253 429 253 424 274 c 128,-1,7
 419 295 419 295 408 314 c 0,8,9
 382.526315789 358 382.526315789 358 344.763157895 358 c 128,-1,10
 307 358 307 358 288 344 c 128,-1,11
 269 330 269 330 257 310 c 0,12,13
 234 271.666666667 234 271.666666667 234 232.833333333 c 128,-1,14
 234 194 234 194 238 168.5 c 128,-1,15
 242 143 242 143 248.5 117.5 c 128,-1,16
 255 92 255 92 264.5 64 c 128,-1,17
 274 36 274 36 285 0 c 1,18,-1
 101 0 l 1,19,20
 92 36 92 36 83.5 65 c 128,-1,21
 75 94 75 94 69 121 c 0,22,23
 56 179.5 56 179.5 56 234.25 c 128,-1,24
 56 289 56 289 73.5 341 c 128,-1,25
 91 393 91 393 126 434 c 0,26,27
 203.682926829 525 203.682926829 525 333 525 c 0,28,29
 459.538461538 525 459.538461538 525 536.5 438 c 0,30,31
 607 358.304347826 607 358.304347826 607 246 c 0,32,33
 607 221 607 221 604 210.5 c 0,34,35
 599.307692308 194.076923077 599.307692308 194.076923077 594 164 c 1,36,-1
 840 164 l 1,37,-1
 850 390 l 1,38,39
 837 388 837 388 824.5 388 c 2,40,-1
 799 388 l 2,41,42
 675.383561644 388 675.383561644 388 590.5 464.5 c 0,43,44
 503 543.358024691 503 543.358024691 503 667 c 0,45,46
 503 783.455882353 503 783.455882353 574 855.5 c 0,47,48
 646.434782609 929 646.434782609 929 761 929 c 256,49,50
 877.771428571 929 877.771428571 929 956 855 c 0,51,52
 1035 780.27027027 1035 780.27027027 1035 663 c 2,53,-1
 1035 585 l 1,54,55
 1151.75 585 1151.75 585 1168 780 c 0,56,57
 1171.48648649 821.837837838 1171.48648649 821.837837838 1168 909 c 1,58,-1
 1352 909 l 1,59,-1
 1362 0 l 1,0,-1
761.5 578.5 m 128,-1,61
 781 571 781 571 803.5 571 c 128,-1,62
 826 571 826 571 850 573 c 1,63,-1
 850 663 l 2,64,65
 850 697 850 697 827 723.5 c 128,-1,66
 804 750 804 750 769.5 750 c 128,-1,67
 735 750 735 750 714 728 c 128,-1,68
 693 706 693 706 693 678 c 128,-1,69
 693 650 693 650 702.5 631.5 c 128,-1,70
 712 613 712 613 727 599.5 c 128,-1,60
 742 586 742 586 761.5 578.5 c 128,-1,61
1178 164 m 1,71,-1
 1168 461 l 1,72,73
 1103.62697448 407.009720535 1103.62697448 407.009720535 1035 395 c 1,74,-1
 1025 164 l 1,75,-1
 1178 164 l 1,71,-1
EndSplineSet
EndChar

StartChar: s1
Encoding: 148 3384 149
Width: 1502
GlyphClass: 2
Flags: W
LayerCount: 2
Back
Fore
SplineSet
1383 910 m 1,0,1
 1504 752.7 1504 752.7 1504 422 c 0,2,3
 1504 173.738461538 1504 173.738461538 1390.5 55 c 0,4,5
 1319.76470588 -19 1319.76470588 -19 1225.38235294 -19 c 128,-1,6
 1131 -19 1131 -19 1068 0 c 128,-1,7
 1005 19 1005 19 961.5 58 c 0,8,9
 871 139.137931034 871 139.137931034 871 297 c 0,10,11
 871 352.6 871 352.6 880 422.8 c 0,12,13
 897 555.4 897 555.4 897 610 c 0,14,15
 897 753 897 753 800 753 c 0,16,17
 738.422222222 753 738.422222222 753 707 702.5 c 0,18,19
 681 660.714285714 681 660.714285714 681 594 c 2,20,-1
 681 10 l 1,21,-1
 495 10 l 1,22,-1
 495 595 l 2,23,24
 495 753 495 753 400 753 c 0,25,26
 267.428571429 753 267.428571429 753 249 602.5 c 0,27,28
 241.667621777 542.618911175 241.667621777 542.618911175 242.333810888 509.309455587 c 128,-1,29
 243 476 243 476 243 442.5 c 128,-1,30
 243 409 243 409 251 348.5 c 128,-1,31
 259 288 259 288 272.5 224.5 c 0,32,33
 301.75 86.9166666667 301.75 86.9166666667 339 0 c 1,34,-1
 143 0 l 1,35,36
 54 251.294117647 54 251.294117647 54 453 c 0,37,38
 54 600.083333333 54 600.083333333 69.5 668.541666667 c 128,-1,39
 85 737 85 737 107.5 782 c 128,-1,40
 130 827 130 827 167 860 c 0,41,42
 245.484848485 930 245.484848485 930 390 930 c 0,43,44
 460 930 460 930 507 908 c 128,-1,45
 554 886 554 886 590 826 c 1,46,47
 629 889 629 889 684 909.5 c 128,-1,48
 739 930 739 930 811.5 930 c 128,-1,49
 884 930 884 930 936.5 906.5 c 128,-1,50
 989 883 989 883 1023 841.5 c 0,51,52
 1088 762.161764706 1088 762.161764706 1088 618 c 0,53,54
 1088 571.2 1088 571.2 1078.5 497.1 c 0,55,56
 1060 352.8 1060 352.8 1060 306 c 0,57,58
 1060 148 1060 148 1180 148 c 0,59,60
 1320.65909091 148 1320.65909091 148 1315.5 375 c 0,61,62
 1315 397 1315 397 1315 417 c 0,63,64
 1315 756.744680851 1315 756.744680851 1168 910 c 1,65,-1
 1383 910 l 1,0,1
EndSplineSet
EndChar

StartChar: h1
Encoding: 149 3385 150
Width: 1439
GlyphClass: 2
Flags: W
LayerCount: 2
Back
Fore
SplineSet
610 300.9 m 0,0,1
 610 237.8 610 237.8 599 163 c 1,2,-1
 712 163 l 1,3,4
 706 196 706 196 698.5 231 c 128,-1,5
 691 266 691 266 684.5 301.5 c 0,6,7
 669 386.153846154 669 386.153846154 669 458.576923077 c 128,-1,8
 669 531 669 531 691.5 618.5 c 128,-1,9
 714 706 714 706 761 776 c 0,10,11
 866.414285714 933 866.414285714 933 1054 933 c 0,12,13
 1297.65384615 933 1297.65384615 933 1397 687 c 0,14,15
 1439 583 1439 583 1439 493.5 c 0,16,17
 1439 335.857142857 1439 335.857142857 1385 116 c 0,18,19
 1371 59 1371 59 1359 0 c 1,20,-1
 1166 0 l 1,21,22
 1179 60 1179 60 1193.5 117 c 128,-1,23
 1208 174 1208 174 1220.5 231.5 c 0,24,25
 1250 367.2 1250 367.2 1250 437.1 c 128,-1,26
 1250 507 1250 507 1240 556.5 c 128,-1,27
 1230 606 1230 606 1207.5 648 c 0,28,29
 1155.53571429 745 1155.53571429 745 1058 745 c 0,30,31
 955.989010989 745 955.989010989 745 901.5 639.5 c 0,32,33
 858 555.276595745 858 555.276595745 858 471.138297872 c 128,-1,34
 858 387 858 387 865 331.5 c 128,-1,35
 872 276 872 276 884 220.5 c 0,36,37
 901.1 141.4125 901.1 141.4125 943 0 c 1,38,-1
 380 0 l 1,39,40
 397 75 397 75 412.5 150.5 c 128,-1,41
 428 226 428 226 428 275 c 128,-1,42
 428 324 428 324 423 348.5 c 128,-1,43
 418 373 418 373 407.5 394.5 c 0,44,45
 382.837209302 445 382.837209302 445 346.418604651 445 c 128,-1,46
 310 445 310 445 291.5 429 c 128,-1,47
 273 413 273 413 261.5 390 c 0,48,49
 239 345 239 345 239 292 c 0,50,51
 239 165.043478261 239 165.043478261 291 0 c 1,52,-1
 101 0 l 1,53,54
 57 169.052631579 57 169.052631579 57 261.026315789 c 128,-1,55
 57 353 57 353 74.5 413 c 128,-1,56
 92 473 92 473 127 519.5 c 0,57,58
 205.655913978 624 205.655913978 624 335 624 c 0,59,60
 462.833333333 624 462.833333333 624 539.5 524 c 0,61,62
 610 432.043478261 610 432.043478261 610 300.9 c 0,0,1
EndSplineSet
EndChar

StartChar: uni0D3D
Encoding: 150 3389 151
Width: 770
Flags: W
LayerCount: 2
Back
Fore
SplineSet
678 1112 m 1,0,-1
 690 1164 l 1,1,2
 690 1174 690 1174 680 1174 c 0,3,4
 654 1174 654 1174 618 1008 c 0,5,6
 604 945 604 945 597 892 c 128,-1,7
 590 839 590 839 578 744.5 c 128,-1,8
 566 650 566 650 547 535 c 128,-1,9
 528 420 528 420 511 310.5 c 0,10,11
 474.260985353 73.8575233023 474.260985353 73.8575233023 432 -65 c 0,12,13
 352 -323 352 -323 234 -323 c 0,14,15
 148 -323 148 -323 148 -225 c 0,16,17
 148 -168.578947368 148 -168.578947368 178.5 -144.5 c 0,18,19
 188 -137 188 -137 200 -137 c 0,20,21
 254 -137 254 -137 254 -197 c 0,22,23
 254 -202 254 -202 240 -247 c 1,24,25
 244 -251 244 -251 246 -251 c 0,26,27
 281.82278481 -251 281.82278481 -251 326 -76.5 c 0,28,29
 340.918032787 -17.5737704918 340.918032787 -17.5737704918 348.959016393 38.7131147541 c 128,-1,30
 357 95 357 95 362 124 c 2,31,-1
 480 838 l 2,32,33
 485 865 485 865 490 893 c 128,-1,34
 495 921 495 921 502 949.5 c 0,35,36
 543.635564571 1119.01622718 543.635564571 1119.01622718 602 1190 c 1,37,38
 638 1232 638 1232 680 1232 c 128,-1,39
 722 1232 722 1232 750 1206.5 c 128,-1,40
 778 1181 778 1181 778 1130 c 0,41,42
 778 1052 778 1052 724 1052 c 0,43,44
 678 1052 678 1052 678 1112 c 1,0,-1
734 500 m 1,45,-1
 238 372 l 1,46,-1
 238 486 l 1,47,-1
 734 612 l 1,48,-1
 734 500 l 1,45,-1
EndSplineSet
EndChar

StartChar: uni0D3E
Encoding: 151 3390 152
Width: 506
Flags: W
LayerCount: 2
Back
Fore
SplineSet
318 463 m 0,0,1
 318 735 318 735 188 735 c 0,2,3
 150 735 150 735 113.5 711.5 c 128,-1,4
 77 688 77 688 56 646 c 1,5,-1
 51 850 l 1,6,7
 77.5217391304 905.695652174 77.5217391304 905.695652174 177 921 c 0,8,9
 203 925 203 925 242 925 c 128,-1,10
 281 925 281 925 324.5 904 c 128,-1,11
 368 883 368 883 399.5 848 c 128,-1,12
 431 813 431 813 451.5 767 c 128,-1,13
 472 721 472 721 484 670.5 c 0,14,15
 506 577.916666667 506 577.916666667 506 500.458333333 c 128,-1,16
 506 423 506 423 500.5 369 c 128,-1,17
 495 315 495 315 482 261.5 c 128,-1,18
 469 208 469 208 447.5 158 c 128,-1,19
 426 108 426 108 393.5 70 c 0,20,21
 322.513157895 -13 322.513157895 -13 208.056578947 -13 c 128,-1,22
 93.6 -13 93.6 -13 51 58 c 1,23,-1
 56 251 l 1,24,25
 102.111111111 168 102.111111111 168 161.555555556 168 c 128,-1,26
 221 168 221 168 250 199.5 c 128,-1,27
 279 231 279 231 294 277 c 0,28,29
 318 350.6 318 350.6 318 463 c 0,0,1
EndSplineSet
EndChar

StartChar: uni0D3F
Encoding: 152 3391 153
Width: 266
Flags: W
LayerCount: 2
Back
Fore
SplineSet
-206 1056 m 1,0,-1
 -207 1074 l 1,1,2
 -207 1172 -207 1172 -135.5 1227 c 0,3,4
 -70.5 1277 -70.5 1277 22 1277 c 0,5,6
 117.333333333 1277 117.333333333 1277 186 1225.5 c 0,7,8
 261 1169.25 261 1169.25 261 1073 c 2,9,-1
 261 0 l 1,10,-1
 86 0 l 1,11,-1
 86 1046 l 2,12,13
 86 1078 86 1078 64.5 1094 c 128,-1,14
 43 1110 43 1110 19 1110 c 128,-1,15
 -5 1110 -5 1110 -23.5 1095.5 c 128,-1,16
 -42 1081 -42 1081 -42 1052 c 2,17,-1
 -42 1046 l 1,18,-1
 -40 1016 l 2,19,20
 -39 1005 -39 1005 -38.5 995 c 128,-1,21
 -38 985 -38 985 -37 984 c 1,22,-1
 -201 984 l 1,23,-1
 -206 1056 l 1,0,-1
EndSplineSet
EndChar

StartChar: uni0D40
Encoding: 153 3392 154
Width: 288
Flags: W
LayerCount: 2
Back
Fore
SplineSet
96 939 m 1,0,1
 69.6 917 69.6 917 21.3 917 c 128,-1,2
 -27 917 -27 917 -61 929 c 128,-1,3
 -95 941 -95 941 -121.5 963 c 0,4,5
 -179 1010.73584906 -179 1010.73584906 -179 1073.86792453 c 128,-1,6
 -179 1137 -179 1137 -162 1175 c 128,-1,7
 -145 1213 -145 1213 -116 1239 c 0,8,9
 -56.8846153846 1292 -56.8846153846 1292 39 1292 c 0,10,11
 206.987654321 1292 206.987654321 1292 266 1172.5 c 0,12,13
 286 1132 286 1132 286 1078 c 2,14,-1
 286 -10 l 1,15,-1
 96 -10 l 1,16,-1
 96 939 l 1,0,1
120 1096 m 256,17,18
 120 1122 120 1122 101 1141 c 128,-1,19
 82 1160 82 1160 56 1160 c 256,20,21
 30 1160 30 1160 11 1141.5 c 128,-1,22
 -8 1123 -8 1123 -8 1096.5 c 128,-1,23
 -8 1070 -8 1070 11 1051 c 128,-1,24
 30 1032 30 1032 56 1032 c 256,25,26
 82 1032 82 1032 101 1051 c 128,-1,27
 120 1070 120 1070 120 1096 c 256,17,18
EndSplineSet
EndChar

StartChar: u1
Encoding: 154 3393 155
Width: 478
GlyphClass: 2
Flags: W
LayerCount: 2
Back
Fore
SplineSet
499 23.5 m 128,-1,1
 537 -37 537 -37 537 -108 c 128,-1,2
 537 -179 537 -179 516.5 -230.5 c 128,-1,3
 496 -282 496 -282 460 -321.5 c 0,4,5
 382.075949367 -407 382.075949367 -407 268 -407 c 0,6,7
 154.924050633 -407 154.924050633 -407 77 -321.5 c 0,8,9
 0 -237.013888889 0 -237.013888889 0 -122 c 0,10,11
 0 33.6875 0 33.6875 133 108.5 c 0,12,13
 173 131 173 131 220 139 c 1,14,15
 226.153846154 160.538461538 226.153846154 160.538461538 245.576923077 203.269230769 c 0,16,17
 414.002169197 573.804772234 414.002169197 573.804772234 165 909 c 1,18,-1
 349 909 l 1,19,20
 502.586339586 696.341991342 502.586339586 696.341991342 495.5 479.5 c 0,21,22
 490.674066599 331.826437941 490.674066599 331.826437941 436.5 208 c 0,23,24
 426 184 426 184 415.5 161 c 128,-1,25
 405 138 405 138 398 115 c 1,26,0
 461 84 461 84 499 23.5 c 128,-1,1
375 -112 m 256,27,28
 375 -38.7692307692 375 -38.7692307692 310.5 -9 c 0,29,30
 291 0 291 0 268 0 c 256,31,32
 198.317073171 0 198.317073171 0 169.5 -69.5 c 0,33,34
 161 -90 161 -90 161 -112.5 c 128,-1,35
 161 -135 161 -135 169.5 -155 c 128,-1,36
 178 -175 178 -175 192 -190.5 c 0,37,38
 222.258064516 -224 222.258064516 -224 268 -224 c 256,39,40
 313.161290323 -224 313.161290323 -224 336.080645161 -199.5 c 0,41,42
 375 -157.896551724 375 -157.896551724 375 -112 c 256,27,28
EndSplineSet
EndChar

StartChar: u2
Encoding: 155 3394 156
Width: 478
GlyphClass: 2
Flags: W
LayerCount: 2
Back
Fore
SplineSet
404 135 m 1,0,1
 569 64.6 569 64.6 569 -167 c 0,2,3
 569 -300.75 569 -300.75 484 -390 c 0,4,5
 398.285714286 -480 398.285714286 -480 269 -480 c 256,6,7
 139.142857143 -480 139.142857143 -480 54.5 -390 c 0,8,9
 -29 -301.215189873 -29 -301.215189873 -29 -167 c 0,10,11
 -29 -24.8358208955 -29 -24.8358208955 41.5 62.5 c 0,12,13
 108.708939709 145.758835759 108.708939709 145.758835759 225 158 c 1,14,15
 229.457711443 179.174129353 229.457711443 179.174129353 247.228855721 216.587064677 c 0,16,17
 420.842696629 582.08988764 420.842696629 582.08988764 165 909 c 1,18,-1
 349 909 l 1,19,20
 506.531206334 697.96762925 506.531206334 697.96762925 498 479 c 0,21,22
 492.40822112 335.477675408 492.40822112 335.477675408 438 218.5 c 0,23,24
 411.703703704 161.962962963 411.703703704 161.962962963 404 135 c 1,0,1
194 0 m 1,25,26
 140 -41.5384615385 140 -41.5384615385 140 -134 c 0,27,28
 140 -202.028571429 140 -202.028571429 167 -237.514285714 c 0,29,30
 214.543478261 -300 214.543478261 -300 269 -300 c 256,31,32
 323.456521739 -300 323.456521739 -300 361.5 -250 c 0,33,34
 398 -202.028571429 398 -202.028571429 398 -123.86043956 c 128,-1,35
 398 -45.6923076923 398 -45.6923076923 344 0 c 1,36,-1
 340 0 l 1,37,38
 359 -29 359 -29 359 -56.5 c 128,-1,39
 359 -84 359 -84 352 -103.5 c 128,-1,40
 345 -123 345 -123 333 -137.5 c 0,41,42
 306.103448276 -170 306.103448276 -170 267 -170 c 256,43,44
 228.896551724 -170 228.896551724 -170 209.448275862 -146.5 c 0,45,46
 176 -106.083333333 176 -106.083333333 176 -67.5416666667 c 128,-1,47
 176 -29 176 -29 194 0 c 1,48,-1
 195 0 l 1,49,-1
 194 0 l 1,25,26
195 0 m 1,50,-1
 194 0 l 1,51,-1
 195 0 l 1,50,-1
EndSplineSet
EndChar

StartChar: r1
Encoding: 156 3395 157
Width: 387
GlyphClass: 2
Flags: W
LayerCount: 2
Back
Fore
SplineSet
63 -257 m 1,0,1
 10.1176470588 -195 10.1176470588 -195 -70 -195 c 0,2,3
 -139.19047619 -195 -139.19047619 -195 -162.095238095 -213.5 c 128,-1,4
 -185 -232 -185 -232 -185 -249 c 256,5,6
 -185 -302 -185 -302 -75 -302 c 0,7,8
 55.5569620253 -302 55.5569620253 -302 131.5 -217.5 c 0,9,10
 203 -137.943661972 203 -137.943661972 203 -7 c 2,11,-1
 203 0 l 1,12,-1
 200 0 l 1,13,-1
 165 909 l 1,14,-1
 349 909 l 1,15,16
 349 762.2 349 762.2 362.5 542.6 c 0,17,18
 388 127.8 388 127.8 388 11.4 c 128,-1,19
 388 -105 388 -105 355.5 -191 c 128,-1,20
 323 -277 323 -277 264 -341 c 0,21,22
 135.859375 -480 135.859375 -480 -67 -480 c 0,23,24
 -259.666666667 -480 -259.666666667 -480 -339 -361 c 0,25,26
 -367 -319 -367 -319 -367 -260.5 c 128,-1,27
 -367 -202 -367 -202 -339 -160 c 128,-1,28
 -311 -118 -311 -118 -267.5 -90.5 c 0,29,30
 -181.290909091 -36 -181.290909091 -36 -90.1454545455 -36 c 128,-1,31
 1 -36 1 -36 58 -59 c 128,-1,32
 115 -82 115 -82 168 -136 c 1,33,-1
 63 -257 l 1,0,1
EndSplineSet
EndChar

StartChar: uni0D46
Encoding: 157 3398 158
Width: 863
Flags: W
LayerCount: 2
Back
Fore
SplineSet
261 593 m 1,0,1
 290.25 619 290.25 619 352.625 619 c 128,-1,2
 415 619 415 619 459 594 c 128,-1,3
 503 569 503 569 530 527.5 c 0,4,5
 580 450.648148148 580 450.648148148 580 322 c 0,6,7
 580 194.540983607 580 194.540983607 520.5 97 c 0,8,9
 450.96 -17 450.96 -17 331 -17 c 0,10,11
 130.907216495 -17 130.907216495 -17 75 229.5 c 0,12,13
 56 313.272727273 56 313.272727273 56 412.636363636 c 128,-1,14
 56 512 56 512 76 603 c 128,-1,15
 96 694 96 694 141.5 765.5 c 0,16,17
 243 925 243 925 447 925 c 0,18,19
 657.884615385 925 657.884615385 925 764.5 785 c 0,20,21
 859 660.909090909 859 660.909090909 859 463.298295455 c 128,-1,22
 859 265.6875 859 265.6875 781 0 c 1,23,-1
 591 0 l 1,24,25
 675 234.315789474 675 234.315789474 675 443 c 0,26,27
 675 637.337078652 675 637.337078652 545.5 713 c 0,28,29
 501 739 501 739 456.5 739 c 128,-1,30
 412 739 412 739 383 726.5 c 128,-1,31
 354 714 354 714 329 693.5 c 0,32,33
 273.157608696 647.70923913 273.157608696 647.70923913 261 593 c 1,0,1
407 294 m 256,34,35
 407 378.034482759 407 378.034482759 369.5 422 c 0,36,37
 355 439 355 439 332.5 439 c 128,-1,38
 310 439 310 439 294.5 422.5 c 128,-1,39
 279 406 279 406 269 383 c 0,40,41
 251 341.6 251 341.6 251 294 c 256,42,43
 251 211.806451613 251 211.806451613 294.5 165.5 c 0,44,45
 310 149 310 149 332.5 149 c 128,-1,46
 355 149 355 149 369.5 166 c 128,-1,47
 384 183 384 183 392 206 c 0,48,49
 407 249.125 407 249.125 407 294 c 256,34,35
EndSplineSet
EndChar

StartChar: uni0D47
Encoding: 158 3399 159
Width: 654
Flags: W
LayerCount: 2
Back
Fore
SplineSet
453 486 m 0,0,1
 303.085106383 486 303.085106383 486 269 664 c 1,2,3
 230 576.25 230 576.25 230 465.125 c 128,-1,4
 230 354 230 354 270 257 c 1,5,6
 288 347 288 347 338 388 c 128,-1,7
 388 429 388 429 439.5 429 c 128,-1,8
 491 429 491 429 526.5 415 c 128,-1,9
 562 401 562 401 589.5 374.5 c 0,10,11
 651 315.236363636 651 315.236363636 651 226 c 0,12,13
 651 130 651 130 585.5 64.5 c 0,14,15
 511 -10 511 -10 380 -10 c 0,16,17
 244.125 -10 244.125 -10 156 95 c 0,18,19
 51 220.106382979 51 220.106382979 51 470 c 0,20,21
 51 706.978723404 51 706.978723404 156 826.5 c 0,22,23
 244.289719626 927 244.289719626 927 381 927 c 0,24,25
 512.75 927 512.75 927 587 855 c 0,26,27
 651 792.939393939 651 792.939393939 651 699 c 128,-1,28
 651 605 651 605 589 543 c 0,29,30
 532 486 532 486 453 486 c 0,0,1
481 681 m 1,31,-1
 481 688 l 1,32,33
 480 715 480 715 466 737.5 c 128,-1,34
 452 760 452 760 426 760 c 128,-1,35
 400 760 400 760 386.5 740 c 128,-1,36
 373 720 373 720 373 692 c 128,-1,37
 373 664 373 664 386.5 639.5 c 128,-1,38
 400 615 400 615 426 615 c 128,-1,39
 452 615 452 615 467 635.5 c 128,-1,40
 482 656 482 656 481 681 c 1,31,-1
481 226 m 1,41,-1
 481 233 l 1,42,43
 480 260 480 260 466 282.5 c 128,-1,44
 452 305 452 305 426 305 c 128,-1,45
 400 305 400 305 386.5 285 c 128,-1,46
 373 265 373 265 373 237 c 128,-1,47
 373 209 373 209 386.5 184.5 c 128,-1,48
 400 160 400 160 426 160 c 128,-1,49
 452 160 452 160 467 180.5 c 128,-1,50
 482 201 482 201 481 226 c 1,41,-1
EndSplineSet
EndChar

